<?xml version="1.0" standalone="no"?>
<!DOCTYPE svg PUBLIC "-//W3C//DTD SVG 1.1//EN" "http://www.w3.org/Graphics/SVG/1.1/DTD/svg11.dtd" >
<svg>
<metadata>
Created by FontForge 20090622 at Thu Sep 17 02:14:39 2015
 By deploy user
Team Prada &#194;&#169; (PRADA programer font aksara sunda - facebook ). &#60;2015&#62;. All Rights Reserved
</metadata>
<defs>
<font id="Prada" horiz-adv-x="0" >
  <font-face 
    font-family="Prada"
    font-weight="400"
    font-stretch="normal"
    units-per-em="2048"
    panose-1="2 0 5 0 0 0 0 0 0 0"
    ascent="1638"
    descent="-410"
    x-height="1117"
    cap-height="1491"
    bbox="-3032.65 -2040 3395 2408"
    underline-thickness="150"
    underline-position="-142"
    unicode-range="U+001D-U+FB06"
  />
<missing-glyph horiz-adv-x="1024" 
d="M100 0v1434h824v-1434h-824zM150 50h724v1334h-724v-1334zM325 1148q31 28 58 43q53 30 112 30q92 0 148 -47.5t56 -127.5q0 -49 -23 -98.5t-87 -129.5q-63 -80 -99 -132t-36 -99q0 -38 24 -133h-32q-35 97 -35 148q0 76 81.5 218t81.5 217q0 57 -33 90t-91 33
q-38 0 -69 -17q-26 -15 -56 -40v45zM389 334l57 58q11 10 20 10q10 0 22 -11l56 -60q9 -11 9 -20q0 -11 -10 -22l-56 -62q-14 -14 -21 -14q-11 0 -20 10l-61 71q-7 9 -7 18q0 10 11 22z" />
    <glyph glyph-name="uni1B8A.conj" unicode="&#x1bab;&#x1b8a;" horiz-adv-x="1458" 
d="M715 112l-428 -1272h-198l474 1163h-548l72 246h534q139 5 94 -137zM1398 112l-429 -1272h-198l474 1163h-465l72 246h452q139 5 94 -137z" />
    <glyph glyph-name="uni1B8B.conj" unicode="&#x1bab;&#x1b8b;" horiz-adv-x="1809" 
d="M477 3l-263 -1163h-199l345 1163h-121l71 246h1296q140 5 109 -138l-287 -1271h-199l345 1163h-502l-262 -1163h-200l346 1163h-479z" />
    <glyph glyph-name="uni1B8C.conj" unicode="&#x1bab;&#x1b8c;" horiz-adv-x="1283" 
d="M15 -1160l474 1163h-466l73 246h451q140 5 95 -137l-348 -1032h577l188 378h-439l72 246h425q151 5 94 -135l-263 -729h-933z" />
    <glyph glyph-name="uni1B8D.conj" unicode="&#x1bab;&#x1b8d;" horiz-adv-x="1105" 
d="M935 -915l-275 341l71 174l379 -506l-138 -254h-957l534 1163h-512l72 246h528q140 5 95 -137l-437 -1027h640z" />
    <glyph glyph-name="uni1B8E.conj" unicode="&#x1bab;&#x1b8e;" horiz-adv-x="1480" 
d="M1022 -799l145 1048h198l-306 -1356q-49 -202 -525 236q-176 -289 -467 -315q-52 807 396 575l250 614h-252h-337l73 246h574q140 5 95 -137l-279 -826q428 -231 435 -85zM175.5 -786q-59.5 -157 219.5 20q-160 137 -219.5 -20z" />
    <glyph glyph-name="uni1B8F.conj" unicode="&#x1bab;&#x1b8f;" horiz-adv-x="1374" 
d="M647 -386q71 181 255 -32l366 -411l-166 -167l-339 487q-102 142 -116 123zM481 -920l46 209q85 165 201 11l299 -422l-146 -153l-264 509l-52 -392l-550 -2l339 1265q23 149 193 144h362l-68 -246h-395l-203 -923h238z" />
    <glyph glyph-name="uni1B90.conj" unicode="&#x1bab;&#x1b90;" horiz-adv-x="1285" 
d="M700 -542l65 -360l-88 -258h-662l474 1163h-466l73 246h451q140 5 95 -137l-347 -1027h325l-15 288q-47 325 198 331h199q238 5 186 -264l-111 -600h-185l185 618h-377z" />
    <glyph glyph-name="uni1B91.conj" unicode="&#x1bab;&#x1b91;" horiz-adv-x="1943" 
d="M419 3h-374l85 246h570l-461 -1164h468l101 312q59 136 161 38l349 -407l361 927l-533 48l-67 -194h-167l150 440h714q152 5 95 -137l-432 -1346l-569 392l-66 -322l2 4h-639q-152 -6 -95 136z" />
    <glyph glyph-name="uni1B92.conj" unicode="&#x1bab;&#x1b92;" horiz-adv-x="1524" 
d="M916 216h261q152 6 94 -136l-191 -722h-146l183 613h-281l-202 -613h-567l321 613h-373l72 245h357q139 6 94 -136l-197 -482h233l333 1169h191z" />
    <glyph glyph-name="uni1B93.conj" unicode="&#x1bab;&#x1b93;" horiz-adv-x="1262" 
d="M520 -920l103 317q58 136 161 38l363 -437l-114 -231l-376 451l-51 -376l-591 -2l339 1265q23 149 193 144h362l-68 -246h-381l-190 -923h250z" />
    <glyph glyph-name="uni1B94.conj" unicode="&#x1bab;&#x1b94;" horiz-adv-x="902" 
d="M37 -1160l504 1163h-496l72 246h522q140 5 95 -137l-399 -1032h610l-56 -240h-852z" />
    <glyph glyph-name="uni1B95.conj" unicode="&#x1bab;&#x1b95;" horiz-adv-x="1404" 
d="M15 -1160l474 1163h-466l73 246h451q140 5 95 -137l-348 -1032h578l305 923h-396l72 246h384q152 5 94 -137l-383 -1272h-933z" />
    <glyph glyph-name="uni1B96.conj" unicode="&#x1bab;&#x1b96;" horiz-adv-x="1409" 
d="M15 -1160l474 1163h-466l73 246h451q140 5 95 -137l-348 -1032h593l279 1169h198l-416 -1409h-933z" />
    <glyph glyph-name="uni1B97.conj" unicode="&#x1bab;&#x1b97;" horiz-adv-x="1380" 
d="M15 -1160l434 1409h201l-423 -1169h662l278 1169h198l-416 -1409h-934z" />
    <glyph glyph-name="uni1B98.conj" unicode="&#x1bab;&#x1b98;" horiz-adv-x="1943" 
d="M804 -1164l2 4h-639q-152 -6 -95 136l429 1273h380l-69 -246h-210l-363 -918h468l101 312q59 136 161 38l349 -407l386 975h-558l-81 -194h-153l150 440h714q152 5 95 -137l-432 -1345l-569 447z" />
    <glyph glyph-name="uni1B99.conj" unicode="&#x1bab;&#x1b99;" horiz-adv-x="1384" 
d="M67 -1160l321 613h-373l72 245h357q139 6 94 -136l-197 -482h512l305 923h-628l72 246h616q151 5 94 -137l-384 -1272h-861z" />
    <glyph glyph-name="uni1B9A.conj" unicode="&#x1bab;&#x1b9a;" horiz-adv-x="1556" 
d="M727 -328l-103 -314h-557l321 613h-373l72 245h357q139 6 94 -136l-197 -482h223l333 1169h191l-276 -837l178 -383l73 669h218l-215 -861q-59 -135 -161 -37z" />
    <glyph glyph-name="uni1B9B.conj" unicode="&#x1bab;&#x1b9b;" horiz-adv-x="945" 
d="M590 -781h-489l57 191h544l113 224h-782l57 191h769q140 6 94 -163l-116 -252h128l-61 -191h-160l-152 -379h-196zM15 30l72 219h1023l-77 -219h-1018z" />
    <glyph glyph-name="uni1B9C.conj" unicode="&#x1bab;&#x1b9c;" horiz-adv-x="1464" 
d="M651 -920h311l209 1169h198l-347 -1409h-655l408 1168h-283l-279 -1168h-198l416 1409h327q221 0 153 -226z" />
    <glyph glyph-name="uni1B9D.conj" unicode="&#x1bab;&#x1b9d;" horiz-adv-x="1339" 
d="M440 103q65 151 210 146h440l-112 -246h-452l-230 -923h631l158 378h-439l72 246h425q151 5 94 -135l-233 -729h-989z" />
    <glyph glyph-name="uni1B9E.conj" unicode="&#x1bab;&#x1b9e;" horiz-adv-x="1390" 
d="M337 -549h-267l72 246h296l125 306h-548l72 246h534q139 5 94 -137l-140 -415h139l-75 -246h-146l-206 -611h-198zM912 -549h-186l72 246h215l124 306h-397l72 246h384q139 5 94 -137l-141 -415h109l-53 -246h-138l-206 -611h-198z" />
    <glyph glyph-name="uni1B9F.conj" unicode="&#x1bab;&#x1b9f;" horiz-adv-x="1417" 
d="M425 -344l138 347h-548l72 246h1146q139 5 94 -137l-429 -1272h-198l249 611h-456l-206 -611h-198l248 611h-267l58 205h297zM679 3l-118 -347h475l138 347h-495z" />
    <glyph glyph-name="uni1BA0.conj" unicode="&#x1bab;&#x1ba0;" horiz-adv-x="1445" 
d="M1258 767q152 5 93 -137l-306 -1272h-201l353 1163h-297l-246 -1163h-614l334 613h-359l72 245h357q139 6 94 -135l-225 -483h269l196 1169h480z" />
    <glyph glyph-name="uni1BAE.conj" unicode="&#x1bab;&#x1bae;" horiz-adv-x="2030" 
d="M900 228q139 5 94 -137l-141 -414h218q139 6 94 -135l-225 -483h269l167 1169h449q152 5 93 -137l-326 -1272h-200l372 1163h-267l-216 -1163h-614l334 613h-229l-207 -613h-198l474 1163h-217l-392 -1163h-198l474 1163h-493l72 246h813z" />
    <glyph glyph-name="uni1BAF.conj" unicode="&#x1bab;&#x1baf;" horiz-adv-x="1870" 
d="M599 -2l-64 -306h203l84 306h-223zM793 -552l-186 -613h-198l228 611h-184l-166 -611h-198l208 611h-227l72 246h256l85 306h-468l72 246h794q139 5 94 -137l-100 -414h199q127 6 93 -136l-187 -482h182l243 1169h191l-206 -836l151 -394l65 679h218l-205 -861
q-59 -135 -160 -38l-151 362l-86 -321h-519l314 613h-224z" />
    <glyph glyph-name="uni1BBD.conj" unicode="&#x1bab;&#x1bbd;" horiz-adv-x="1910" 
d="M902 -925l308 1024q45 150 191 145h481l6 9l-175 -684q-3 -97 -106 -91h-215l67 226h182l33 294h-366l-204 -924h498l-94 -239h-1476l95 239h330l350 924h-362l-157 -294h170l-78 -226h-222q-96 -4 -41 84l261 682v0h515q140 5 95 -137l-322 -1032h236z" />
    <glyph glyph-name="_35" unicode="&#x1a15;&#x1a17;&#x200d;&#x1a10;" horiz-adv-x="1823" 
d="M1227 892q472 -567 472 -602q-85 -66 -85 -96h-33q0 15 -258 429q-259 -135 -408 -419l-22 -10h-10q-84 158 -269 429q-257 -148 -451 -472q-162 163 -162 193q113 267 506 537h21q13 0 290 -344q280 303 409 355zM1194 452q61 -65 119 -140q-107 -140 -119 -140h-10
q-10 0 -108 129v22q36 61 118 129zM485 441h11q10 0 107 -118v-22l-118 -140q-107 117 -107 162q25 54 107 118zM237 1471l118 -140q-76 -37 -215 -204h-10q-13 2 -108 129v21q158 194 215 194z" />
    <glyph glyph-name=".notdef" horiz-adv-x="1024" 
d="M100 0v1434h824v-1434h-824zM150 50h724v1334h-724v-1334zM325 1148q31 28 58 43q53 30 112 30q92 0 148 -47.5t56 -127.5q0 -49 -23 -98.5t-87 -129.5q-63 -80 -99 -132t-36 -99q0 -38 24 -133h-32q-35 97 -35 148q0 76 81.5 218t81.5 217q0 57 -33 90t-91 33
q-38 0 -69 -17q-26 -15 -56 -40v45zM389 334l57 58q11 10 20 10q10 0 22 -11l56 -60q9 -11 9 -20q0 -11 -10 -22l-56 -62q-14 -14 -21 -14q-11 0 -20 10l-61 71q-7 9 -7 18q0 10 11 22z" />
    <glyph glyph-name=".null" 
 />
    <glyph glyph-name=".null" 
 />
    <glyph glyph-name="nonmarkingreturn" horiz-adv-x="508" 
 />
    <glyph glyph-name="space" unicode=" " horiz-adv-x="508" 
 />
    <glyph glyph-name="exclam" unicode="!" horiz-adv-x="638" 
d="M217 304h202l40 -232h-291zM414 429h-194l-14 1062h264z" />
    <glyph glyph-name="quotedbl" unicode="&#x22;" horiz-adv-x="763" 
d="M195 1147h-105v381h242zM537 1147h-106v381h242z" />
    <glyph glyph-name="numbersign" unicode="#" horiz-adv-x="1305" 
d="M352 646l30 191h-230l54 183h216l57 315h187l-75 -315h131l60 315h172l-73 -315h202l-66 -183h-181l-37 -191h240l-64 -180h-223l-83 -362h-120l69 362h-154l-84 -362h-132l69 362h-209l56 180h188zM546 837l-37 -191h146l29 191h-138z" />
    <glyph glyph-name="dollar" unicode="$" horiz-adv-x="1036" 
d="M427 928l40 272q-10 1 -18 1q-117 -2 -151 -52t9 -125q28 -48 120 -96zM500 332q49 -15 79 -13q98 7 136.5 73.5t-57.5 159.5q-45 42 -102 79zM598 857q201 -77 287 -206q48 -72 54.5 -139t-20 -127t-85 -108t-139.5 -76q-119 -18 -223 -13l-26 -146h-146l26 172
q-158 44 -206 75l53 208q101 -60 178 -100l46 316q-1 1 -4 2q-166 71 -248 194q-44 62 -49.5 122t18.5 112.5t75 95t125 68.5q92 13 171 11l24 170h205l-38 -205q108 -32 143 -56l-45 -183q-68 52 -125 86z" />
    <glyph glyph-name="percent" unicode="%" horiz-adv-x="1543" 
d="M369 1670h36q172 0 253 -180q31 -78 31 -172q0 -271 -215 -340q-40 -9 -72 -9h-20q-177 0 -258 174q-34 78 -34 180v7q0 244 191 325q47 15 88 15zM249 1369q0 -172 81 -289q40 -44 82 -44h3q94 0 113 186q2 29 2 48q0 157 -72 278q-42 55 -94 55h-2q-88 0 -111 -180
q-2 -32 -2 -54zM1133 700h36q172 0 253 -180q32 -78 32 -171q0 -271 -215 -341q-40 -9 -72 -9h-21q-177 0 -258 174q-33 79 -33 181v6q0 244 191 325q47 15 87 15zM1014 399q0 -172 81 -288q40 -44 82 -44h2q94 0 113 186q3 29 3 48q0 157 -72 278q-42 55 -95 55h-1
q-89 0 -112 -180q-1 -33 -1 -55zM215 -5l954 1649h198l-1013 -1649h-139z" />
    <glyph glyph-name="ampersand" unicode="&#x26;" horiz-adv-x="1409" 
d="M713 853l-48 -151q-158 -11 -187 -145.5t0.5 -244t157.5 -107.5l219 1l-4 486l-111 7l44 150l68 4l-4 97l206 79l3 -174h124l-48 -164l-72 4q-18 -539 104 -621q-612 -26 -766 15q-196 86 -197 326q12 261 281 399q-188 63 -183 306q40 229 265 281q211 11 469 -129
l-186 -166q-143 115 -219 132t-102 -116q-34 -153 132 -250z" />
    <glyph glyph-name="quotesingle" unicode="'" horiz-adv-x="422" 
d="M195 1147h-105v381h242z" />
    <glyph glyph-name="parenleft" unicode="(" horiz-adv-x="758" 
d="M616 -4l-54 -265q-179 156 -279 300t-146.5 308.5t-40 360.5t70.5 414q59 204 270 609l186 -184q-227 -314 -284 -508q-87 -178 -93.5 -346t25.5 -299t100 -224.5t155 -136.5q48 -24 90 -29z" />
    <glyph glyph-name="parenright" unicode=")" horiz-adv-x="763" 
d="M148 1460l56 263q181 -154 279 -299t144 -308.5t37 -360.5t-72 -412q-59 -206 -273 -612l-184 186q228 314 285 508q90 177 96.5 345t-25 299t-98 224t-154.5 137q-47 23 -91 30z" />
    <glyph glyph-name="asterisk" unicode="*" horiz-adv-x="1029" 
d="M513 851l-132 -263l-220 89l236 235l-307 44l36 214l284 -127l-20 284l241 12l-78 -274l324 79l62 -210l-327 14l204 -226l-188 -138z" />
    <glyph glyph-name="plus" unicode="+" horiz-adv-x="1054" 
d="M426 248l-20 851h223l-21 -851h-182zM94 605l-4 203h874l-7 -203h-863z" />
    <glyph glyph-name="comma" unicode="," horiz-adv-x="478" 
d="M226 -156l-62 153q75 38 88 75h-162l49 232h242v-232q7 -102 -155 -228z" />
    <glyph glyph-name="hyphen" unicode="-" horiz-adv-x="948" 
d="M90 605l4 203h763l-13 -203h-754z" />
    <glyph glyph-name="period" unicode="." horiz-adv-x="579" 
d="M193 304h242v-232h-291z" />
    <glyph glyph-name="slash" unicode="/" horiz-adv-x="821" 
d="M45 -46l511 1649h220l-577 -1649h-154z" />
    <glyph glyph-name="zero" unicode="0" horiz-adv-x="1152" 
d="M541 1455h60q287 0 422 -360q52 -156 52 -343q0 -542 -358 -681q-67 -18 -120 -18h-34q-295 0 -430 348q-56 157 -56 361v14q0 487 318 649q79 30 146 30zM342 853q0 -344 135 -577q67 -88 137 -88h4q157 0 188 372q4 58 4 97q0 314 -120 555q-70 110 -157 110h-3
q-147 0 -185 -359q-3 -66 -3 -110z" />
    <glyph glyph-name="one" unicode="1" horiz-adv-x="644" 
d="M326 1440h183l-59 -1366l-191 -3l11 1152l-160 -133l-65 96z" />
    <glyph glyph-name="two" unicode="2" horiz-adv-x="1032" 
d="M786 299l116 -227h-810q-15 291 101.5 476t347.5 274q183 121 161 330q-8 172 -142 160q-91 12 -255 -192l-178 217q306 157 570 97q244 -88 258 -349q-11 -238 -190 -327t-300 -176q-144 -99 -103 -392z" />
    <glyph glyph-name="three" unicode="3" horiz-adv-x="1023" 
d="M606 831q144 -10 218 -71q154 -102 153 -322q0 -138 -99.5 -258.5t-300.5 -116.5q-281 -23 -533 138l160 217q134 -212 314 -223q183 18 183 282q-4 229 -296 258l-164 -17l-1 159q80 -21 220 22.5t180 229.5q11 160 -101 161q-127 23 -298 -151l-138 192
q258 139 489 109q315 -58 304 -294q-17 -228 -290 -315z" />
    <glyph glyph-name="four" unicode="4" horiz-adv-x="1077" 
d="M313 579h323l30 602zM886 582l146 4l-65 -170l-82 3l-4 -347h-269l8 338l-475 1l-100 182l664 862h184z" />
    <glyph glyph-name="five" unicode="5" horiz-adv-x="1107" 
d="M380 975q165 63 330 38q295 -61 320 -429q-11 -484 -378 -521q-258 -23 -508 139l205 173q122 -169 233 -157q195 18 191 384q-58 249 -223.5 251.5t-267.5 -165.5l-137 49l62 709h789l-97 -201l-460 78z" />
    <glyph glyph-name="six" unicode="6" horiz-adv-x="1147" 
d="M339 982q101 97 324 84q282 -47 368 -342q71 -253 -63.5 -471t-419.5 -197q-287 0 -416 347q-55 157 -55 360v14q0 487 309 650q77 31 176 31h57q186 0 354 -143l-230 -144q-108 156 -243 141h-4q-127 -22 -157 -330zM701.5 786.5q-82.5 125.5 -183.5 121.5
q-139 -22 -173 -167q-15 -310 121 -462q66 -89 133 -89h4q151 0 172 282q9 189 -73.5 314.5z" />
    <glyph glyph-name="seven" unicode="7" horiz-adv-x="1036" 
d="M706 1283l-558 -51l-48 215l744 4l107 -183q-451 -862 -463 -1196h-305z" />
    <glyph glyph-name="eight" unicode="8" horiz-adv-x="1057" 
d="M244 94q-173 83 -185 273q-14 249 236 459q-169 105 -174 304q5 248 243 321q100 26 241 17q293 -36 311 -275q22 -180 -161 -375q248 -127 250 -346q8 -325 -331 -417q-219 -47 -430 39zM594 922q94 109 105.5 210t-72.5 160q-92 38 -186 21t-87 -133q6 -127 240 -258z
M440 696q-99 -65 -110.5 -221t60 -220t181.5 -64q173 4 184 184q14 138 -315 321z" />
    <glyph glyph-name="nine" unicode="9" horiz-adv-x="1132" 
d="M796 617q-100 -94 -318 -83q-279 26 -365 276q-68 230 63.5 448t413.5 197q282 0 411 -346q54 -157 54 -361v-13q0 -488 -306 -650q-75 -32 -172 -32h-56q-208 0 -385 187l227 144q96 -178 275 -163h4q124 22 154 396zM422 780q99 -92 199 -88q137 23 168 190
q16 197 -117 340q-66 89 -131 89h-5q-148 0 -204 -183q-9 -256 90 -348z" />
    <glyph glyph-name="colon" unicode=":" horiz-adv-x="598" 
d="M212 304h242v-232h-291zM193 1090h242v-233h-291z" />
    <glyph glyph-name="semicolon" unicode=";" horiz-adv-x="456" 
d="M218 -156l-63 153q75 38 89 75h-163l49 232h242v-232q7 -102 -154 -228zM126 1090h242v-233h-291z" />
    <glyph glyph-name="semicolon" unicode="&#x37e;" horiz-adv-x="456" 
d="M218 -156l-63 153q75 38 89 75h-163l49 232h242v-232q7 -102 -154 -228zM126 1090h242v-233h-291z" />
    <glyph glyph-name="less" unicode="&#x3c;" horiz-adv-x="983" 
d="M328 711l610 -416l-172 -175l-608 415q-113 62 -35 157l621 534l67 -157z" />
    <glyph glyph-name="equal" unicode="=" horiz-adv-x="1044" 
d="M77 397l6 204h873l-16 -204h-863zM88 791l5 202h874l-15 -202h-864z" />
    <glyph glyph-name="greater" unicode="&#x3e;" horiz-adv-x="975" 
d="M646 635l-601 416l175 175l599 -414q111 -61 32 -158l-628 -534l-67 159z" />
    <glyph glyph-name="question" unicode="?" horiz-adv-x="1178" 
d="M570 423l-136 2q-29 165 -37 223t16 119q45 120 196 189q1 1 4 2q144 96 176 136q43 61 -26.5 143t-220.5 65.5t-280 -133.5l-127 205q41 30 190 72l147 26q105 5 236 -11q94 -30 138 -63t86 -92t58 -124t-10 -135q-33 -127 -149 -231l-113 -69q-82 -47 -107 -93
q-20 -72 -41 -231zM674 72h-291v232h242z" />
    <glyph glyph-name="at" unicode="@" horiz-adv-x="1599" 
d="M986 972l22 74l213 12l-134 -480l-31 -122q37 0 98.5 58t90.5 138.5t36 174.5q15 146 -49 235t-146 118.5t-191 29.5q-200 1 -372 -146.5t-179 -404.5q7 -297 186.5 -406.5t396.5 -64.5q174 22 258 170l324 -6q-40 -69 -250.5 -180.5t-434.5 -111.5q-328 1 -530 177.5
t-204 424.5q26 318 259.5 501t557.5 168q128 0 238.5 -37t199.5 -119.5t119.5 -162t21.5 -193.5q-6 -89 -47 -188t-112.5 -159t-170.5 -92.5t-207 -32.5q-54 0 -76.5 17.5t-31.5 57.5q-62 -57 -138.5 -72t-146.5 14t-108.5 97.5t-30.5 166.5q8 104 61.5 204.5t142 164.5
t194.5 64q122 0 171 -89zM641 629q-7 -79 24.5 -120.5t84.5 -41.5q63 0 90 48.5t58 124t38 148.5q1 34 -5 62t-21 48.5t-60 32t-93 -33.5t-79.5 -117.5t-36.5 -150.5z" />
    <glyph glyph-name="A" unicode="A" horiz-adv-x="1393" 
d="M586 1491h184q442 -1012 608 -1419h-325l-138 351l-510 2l-122 -353l-268 3zM437 557h437l-242 653z" />
    <glyph glyph-name="B" unicode="B" horiz-adv-x="1249" 
d="M135 1491l492 12q311 -12 394 -155q37 -65 37 -152q0 -172 -191 -283q325 -202 325 -439q12 -376 -458 -402h-599v1419zM394 1316l16 -412q199 23 289.5 84t90.5 162q-23 211 -226 211q-170 0 -170 -45zM415 766l31 -564h237q200 0 200 212q0 235 -211 412z" />
    <glyph glyph-name="C" unicode="C" horiz-adv-x="1159" 
d="M610 1514h52q209 0 432 -143v-6l-212 -180q-141 176 -287 176h-20q-230 -2 -242 -461q0 -417 121.5 -570.5t269.5 -142.5q128 0 245 134l145 -68q-202 -196 -483 -196q-276 10 -431 223t-149 504q2 390 182.5 562t376.5 168z" />
    <glyph glyph-name="D" unicode="D" horiz-adv-x="1264" 
d="M135 1484l373 19q309 -12 422 -104q277 -203 277 -615q13 -239 -124 -475q-197 -237 -452 -237h-496v1412zM395 1297l41 -1044q0 -56 93 -56h56q189 -11 254 185.5t60 401.5q0 303 -121.5 441.5t-263.5 135.5q-100 0 -119 -64z" />
    <glyph glyph-name="E" unicode="E" horiz-adv-x="1010" 
d="M135 1491h805l-65 -178l-495 35l19 -458l397 40v-170l-390 -4l24 -540l536 17v-161h-831v1419z" />
    <glyph glyph-name="F" unicode="F" horiz-adv-x="954" 
d="M135 1491h804l-64 -178l-496 30l25 -453l392 40l-11 -170h-380l32 -685l-294 -3z" />
    <glyph glyph-name="G" unicode="G" horiz-adv-x="1271" 
d="M611 1516h35q224 0 443 -144v-5l-211 -181q-143 177 -288 177h-20q-156 0 -227 -282q-15 -153 -15 -172q0 -431 227 -661q174 -103 344 28l41 547l-302 -28l-53 184h596l-5 -901h-178l-49 50q-139 -69 -236 -69h-87q-411 0 -549 472q-32 130 -32 268q11 532 380 684
q100 33 186 33z" />
    <glyph glyph-name="H" unicode="H" horiz-adv-x="1281" 
d="M135 1491h228l19 -504h482l-9 504h291v-1419h-242l-29 770l-489 7l14 -777h-265v1419z" />
    <glyph glyph-name="I" unicode="I" horiz-adv-x="561" 
d="M377 72h-242v1419h291z" />
    <glyph glyph-name="J" unicode="J" horiz-adv-x="983" 
d="M590 1491h297l6 -928q0 -134 -88 -315q-134 -199 -437 -199q-148 0 -353 120l135 155q162 -108 311 -108h15q105 0 145 194l10 153q0 148 -41 928z" />
    <glyph glyph-name="K" unicode="K" horiz-adv-x="1163" 
d="M142 1491h286l-18 -554l329 554h293l-401 -527l487 -889l-322 -3l-308 708l-93 -111l-30 -597h-230z" />
    <glyph glyph-name="L" unicode="L" horiz-adv-x="922" 
d="M135 1491h291q-47 -1275 -47 -1281l527 17l-34 -155h-737v1419z" />
    <glyph glyph-name="M" unicode="M" horiz-adv-x="1614" 
d="M135 1491h306l408 -912l383 912h247v-1419h-272l64 1005l-414 -912h-87l-437 929l26 -1022h-224v1419z" />
    <glyph glyph-name="N" unicode="N" horiz-adv-x="1290" 
d="M135 1491h294q53 -79 528 -971l-26 971h224v-1419h-207l-623 1082l20 -1082h-210v1419z" />
    <glyph glyph-name="O" unicode="O" horiz-adv-x="1282" 
d="M599 1514h73q341 0 504 -374q61 -162 61 -356q0 -563 -426 -708q-82 -19 -145 -19h-41q-352 0 -513 361q-67 164 -67 375v14q0 506 381 674q94 33 173 33zM333 890q-12 -364 165 -610q89 -93 182 -93h5q212 0 271 393q7 62 8 101q11 332 -146 587q-89 116 -206 116h-6
q-199 0 -263 -379q-8 -68 -10 -115z" />
    <glyph glyph-name="P" unicode="P" horiz-adv-x="1159" 
d="M135 1491l491 12q413 -12 483 -247l5 -65q0 -205 -236 -402q-177 -135 -457 -213l9 -504h-295v1419zM395 1316l15 -601q217 50 308 157q125 137 125 278v4q0 161 -253 207h-76q-119 0 -119 -45z" />
    <glyph glyph-name="Q" unicode="Q" horiz-adv-x="1282" 
d="M599 1514h73q312 0 483 -323q82 -189 82 -403q0 -437 -268 -638l122 -184h-296l-36 97q-70 -6 -134 -6q-386 0 -539 426q-41 148 -41 314q0 526 391 690q94 27 163 27zM343 894q-13 -409 196 -647q82 -71 179 -60l-33 105l121 98l69 -96q92 150 98 379q11 374 -167 619
q-85 92 -182 92h-11q-169 0 -244 -277q-24 -102 -26 -213z" />
    <glyph glyph-name="R" unicode="R" horiz-adv-x="1171" 
d="M394 1316l17 -520q229 61 330 148.5t101 205.5v4q0 161 -252 207h-77q-119 0 -119 -45zM807 797l349 -722l-322 -3l-239 628q-102 -23 -175 -43l11 -585h-296v1419l492 12q413 -12 483 -247l4 -65q0 -193 -307 -394z" />
    <glyph glyph-name="S" unicode="S" horiz-adv-x="1061" 
d="M960 1383l-186 -201q-181 187 -307 177q-100 10 -141 -33t-34 -100q0 -132 195 -240q212 -97 359 -192.5t170 -278.5q0 -333 -380 -440q-299 -46 -591 134l190 203q162 -174 323 -174q192 30 192 188q8 190 -355 329q-329 147 -329 407q0 252 267 337q288 57 627 -116z
" />
    <glyph glyph-name="T" unicode="T" horiz-adv-x="1091" 
d="M71 1491h1005l-49 -178l-370 26l31 -1267h-295l33 1276l-411 -35v5z" />
    <glyph glyph-name="U" unicode="U" horiz-adv-x="1270" 
d="M90 1491h268l4 -776q-7 -308 109 -419.5t234 -93.5q233 30 221 378l-11 911h265l-3 -578q0 -469 -77 -568q-146 -292 -436 -292h-41q-407 0 -510 467q-20 112 -20 287z" />
    <glyph glyph-name="V" unicode="V" horiz-adv-x="1320" 
d="M15 1491h339l360 -1095l350 1095h241l-529 -1419h-181q-508 1216 -580 1419z" />
    <glyph glyph-name="W" unicode="W" horiz-adv-x="1662" 
d="M825 894l-265 -822h-245l-300 1419h311l159 -1113l312 993h160l1 3l2 -3l337 -982l122 1102h228l-250 -1419h-257z" />
    <glyph glyph-name="X" unicode="X" horiz-adv-x="1218" 
d="M79 1491h354l236 -448l226 448h272l-408 -613l414 -806h-268l-284 542l-302 -542h-266l467 694z" />
    <glyph glyph-name="Y" unicode="Y" horiz-adv-x="1137" 
d="M461 691l-446 800h294l259 -649l287 649h267l-402 -810l25 -605h-285z" />
    <glyph glyph-name="Z" unicode="Z" horiz-adv-x="1047" 
d="M198 1491h804l-632 -1266l606 37l-32 -190h-929l568 1274l-437 -45z" />
    <glyph glyph-name="bracketleft" unicode="[" horiz-adv-x="598" 
d="M451 16l102 -224l-508 -2l25 1751q1 136 173 130h280l-31 -231h-294l42 -1424h211z" />
    <glyph glyph-name="backslash" unicode="\" horiz-adv-x="821" 
d="M621 -46l-576 1725h220l511 -1725h-155z" />
    <glyph glyph-name="bracketright" unicode="]" horiz-adv-x="597" 
d="M145 1445l-100 225l507 1l-30 -1750q-2 -135 -174 -131h-280l32 232h295l-39 1423h-211z" />
    <glyph glyph-name="asciicircum" unicode="^" horiz-adv-x="745" 
d="M700 874h-247l-127 288l-102 -288h-179l269 508h90z" />
    <glyph glyph-name="underscore" unicode="_" horiz-adv-x="1264" 
d="M0 -5h1264v-96h-1264v96z" />
    <glyph glyph-name="grave" unicode="`" horiz-adv-x="482" 
d="M45 1502h235l157 -269h-179z" />
    <glyph glyph-name="a" unicode="a" horiz-adv-x="993" 
d="M508 1151q301 0 385 -296l10 -84v-714l-208 14l-5 44q-112 -70 -243 -70q-290 0 -391 292l-11 84q0 233 263 331q168 54 383 0q15 260 -229 260q-98 0 -242 -125l-82 189q197 75 370 75zM297 421q31 -213 208 -231t188 138v56q0 263 -175 263q-153 0 -221 -180v-46z" />
    <glyph glyph-name="b" unicode="b" horiz-adv-x="1121" 
d="M176 1535q216 -29 216 -43v-356q92 10 139 10q230 0 411 -157q134 -144 134 -334v-77q0 -190 -154 -384q-143 -139 -329 -139q-40 0 -201 67v-43l-257 -1l36 1451q5 0 5 6zM392 942l6 -627q43 -88 139 -99q176 5 232 103.5t45 248.5q0 291 -221 421q-60 23 -130.5 17.5
t-70.5 -64.5z" />
    <glyph glyph-name="c" unicode="c" horiz-adv-x="927" 
d="M512 1151q172 -10 329 -79l-117 -180q-96 98 -183 132q-140 44 -198.5 -53t-55.5 -287q0 -274 108.5 -389t225.5 -97q93 12 159 106l102 -56q-143 -191 -370 -188q-210 -15 -338.5 151t-128.5 394q0 315 257 490q112 56 210 56z" />
    <glyph glyph-name="d" unicode="d" horiz-adv-x="1105" 
d="M753 1535q216 -29 216 -43v-1411l-257 -3l37 1451q4 0 4 6zM512 1152q172 -2 329 -67l-103 -200q-110 110 -198 142q-125 12 -190.5 -73.5t-63.5 -274.5q0 -275 109 -386t225 -90q94 15 159 112l103 -51q-144 -197 -370 -203q-211 -21 -339 140.5t-128 389.5
q0 316 256 499q112 60 211 62z" />
    <glyph glyph-name="e" unicode="e" horiz-adv-x="990" 
d="M289 627l417 78q3 118 -38 201.5t-127 90.5q-140 43 -200.5 -51.5t-55.5 -273.5zM939 605v-10q0 -13 -641 -73q24 -149 98 -227q108 -115 225 -97q93 12 159 106l102 -56q-143 -191 -370 -188q-210 -15 -338.5 151t-128.5 394q0 315 257 490q112 56 210 56
q239 8 363 -190q70 -134 64 -356z" />
    <glyph glyph-name="f" unicode="f" horiz-adv-x="664" 
d="M648 1541l-19 -225q-132 66 -191 66h-26q-76 0 -76 -107v-143h241l-12 -149l-224 11l50 -919h-274l1 937l-73 2v115l71 1q8 334 280 399q146 26 252 12z" />
    <glyph glyph-name="g" unicode="g" horiz-adv-x="1120" 
d="M965 1036q-57 -71 -141 -113l-65 106q22 21 42 51q29 46 21 141l215 -39q-16 -73 -72 -146zM315 795q19 -151 168 -253q71 -37 139 -37h4q103 0 114 161q0 25 -3 43q-18 138 -96.5 214t-164.5 76h-3q-146 0 -162 -157q1 -28 4 -47zM175 306.5q-21 67.5 66 141.5
q-53 31 -112 123q-52 94 -52 213v7q0 180 131.5 266.5t311.5 86.5q251 -12 379 -176q75 -91 75 -202q0 -306 -288 -388q-64 -11 -114 -11h-33q-78 0 -90 7q-30 -30 -1.5 -58t133.5 -25q228 13 377 -66q146 -82 142.5 -231.5t-164.5 -243t-393 -91.5q-280 9 -389 90.5
t-90 216.5t233 243q-101 30 -122 97.5zM370 -154q124 -71 315 -26q157 61 142.5 145t-132.5 143q-116 53 -221.5 39.5t-157.5 -75.5l-2 -1q-89 -104 17 -202q22 -15 39 -23z" />
    <glyph glyph-name="h" unicode="h" horiz-adv-x="1099" 
d="M135 1502l272 41l-13 -421q112 29 210 29q260 0 361 -195q22 -49 30 -129l14 -753h-248l6 684q20 225 -139 250q-205 4 -246 -127l-40 -806h-204z" />
    <glyph glyph-name="i" unicode="i" horiz-adv-x="512" 
d="M389 1050l-46 -975h-205l-3 975h254zM135 1227v275h272l-12 -275h-260z" />
    <glyph glyph-name="j" unicode="j" horiz-adv-x="530" 
d="M131 1227l-8 275h272l-4 -275h-260zM341.5 -116.5q-34.5 -81.5 -133.5 -136.5q-85 -46 -204 -46q-90 0 -222 37l108 209l149 -92q122 0 118 152l-22 1061h254l-13 -993q0 -110 -34.5 -191.5z" />
    <glyph glyph-name="k" unicode="k" horiz-adv-x="1024" 
d="M369 789l303 337l288 -4l-442 -408l505 -636v-4h-296l-370 525l-14 -524h-205l-3 1427h274z" />
    <glyph glyph-name="l" unicode="l" horiz-adv-x="497" 
d="M343 75h-205l-3 1427h272z" />
    <glyph glyph-name="m" unicode="m" horiz-adv-x="1511" 
d="M894 827l-12 -753h-247l31 684q20 225 -87 250q-159 -3 -197 -202l-38 -731h-205l-4 1043l255 3l-1 -57q89 86 217 87q171 -8 239 -108q112 94 211 96q260 12 334 -183q9 -49 17 -129l14 -753h-247l5 684q21 225 -125 250q-137 -10 -160 -181z" />
    <glyph glyph-name="n" unicode="n" horiz-adv-x="1100" 
d="M135 1118l255 3l3 -60q123 89 277 90q195 0 262.5 -93.5t63.5 -206.5l14 -777h-247l5 684q21 225 -139 250q-202 -14 -247 -166l-38 -767h-205z" />
    <glyph glyph-name="o" unicode="o" horiz-adv-x="1038" 
d="M487 1151h56q273 0 402 -281q48 -123 48 -268q0 -426 -339 -534q-64 -15 -115 -15h-32q-280 0 -409 272q-53 124 -53 284v9q0 383 302 510q76 23 140 23zM277 674q6 -251 146 -420q67 -64 135 -64h5q154 0 180 271q2 43 1 70q-5 229 -131 404q-70 81 -154 81h-4
q-146 0 -176 -262q-2 -47 -2 -80z" />
    <glyph glyph-name="p" unicode="p" horiz-adv-x="1136" 
d="M392 100v-439l-257 37l36 1423l221 -4v-27q104 47 232 60q210 15 338.5 -152.5t128.5 -394.5q0 -315 -257 -490q-111 -54 -210 -54q-119 7 -232 41zM392 948l6 -615q110 -102 198 -124q139 -33 193.5 45.5t60.5 271.5q0 273 -109 388t-225 96q-69 -8 -124 -62z" />
    <glyph glyph-name="q" unicode="q" horiz-adv-x="1092" 
d="M734 1084l2 38l221 4v-1492l-257 64l10 404q-90 -43 -198 -42q-211 -15 -339 151t-128 394q0 315 256 490q112 56 211 56q114 -7 222 -67zM712 235l17 622q-105 134 -189 144q-127 8 -191.5 -71t-62.5 -246q0 -274 109 -389t225 -97q50 5 92 37z" />
    <glyph glyph-name="r" unicode="r" horiz-adv-x="785" 
d="M135 1118l257 3l2 -37q219 94 387 48l-71 -250q-262 194 -328 -40l-37 -767h-206z" />
    <glyph glyph-name="s" unicode="s" horiz-adv-x="907" 
d="M395 1169h56q192 0 365 -125q-174 -166 -180 -166h-5q-122 180 -227 180h-20q-103 -29 -103 -79v-23q4 -120 443 -347q138 -109 138 -254q0 -212 -263 -295q-105 -23 -173 -23q-194 0 -381 124l180 171q123 -185 231 -185h15q160 18 160 130q0 103 -298 272
q-267 164 -267 315v8q0 192 189 269q78 28 140 28z" />
    <glyph glyph-name="t" unicode="t" horiz-adv-x="610" 
d="M162 1368l261 41l-15 -1328h-198zM67 1025l-14 97l520 4l-4 -128z" />
    <glyph glyph-name="u" unicode="u" horiz-adv-x="1100" 
d="M966 71h-257l-1 60q-125 -91 -279 -93q-195 0 -262 93.5t-64 207.5l-13 781h248l-6 -689q-20 -225 138 -249q203 16 249 168l36 768h207z" />
    <glyph glyph-name="v" unicode="v" horiz-adv-x="978" 
d="M15 1118h288l239 -692l231 692h190l-390 -1046h-132z" />
    <glyph glyph-name="w" unicode="w" horiz-adv-x="1294" 
d="M655 560l-215 -488h-179l-219 1045h287l55 -752l244 626h116l1 2l2 -2l251 -631l55 757h199l-180 -1045h-189z" />
    <glyph glyph-name="x" unicode="x" horiz-adv-x="1012" 
d="M67 1117h319l166 -331l172 331h239l-320 -471l324 -571h-250l-213 356l-209 -356h-250l356 531z" />
    <glyph glyph-name="y" unicode="y" horiz-adv-x="978" 
d="M367 -315h-211l191 521l-332 912h190l232 -689l239 689h287z" />
    <glyph glyph-name="z" unicode="z" horiz-adv-x="789" 
d="M149 1118h595l-442 -898l423 27l-23 -175h-687l407 899l-323 -8z" />
    <glyph glyph-name="braceleft" unicode="{" horiz-adv-x="736" 
d="M347 763q83 -68 110 -139q48 -77 26 -275.5t-4 -267.5q19 -148 212 -138l-148 -164q-228 48 -304 278q-41 100 -11 272.5t-4 235.5q-19 66 -176 126l-3 115q193 -10 212 136q17 71 -4.5 240.5t26.5 247.5q49 126 284 245l124 -123q-156 -60 -175 -124q-34 -64 -4 -208
t-11 -242q-48 -142 -150 -215z" />
    <glyph glyph-name="bar" unicode="|" horiz-adv-x="335" 
d="M280 1647l-55 -1786l-154 -38l16 1781z" />
    <glyph glyph-name="braceright" unicode="}" horiz-adv-x="736" 
d="M389 691q-83 68 -110 138q-48 78 -26.5 276t4.5 269q-19 146 -212 137l148 164q229 -48 304 -278q41 -100 11 -272.5t4 -237.5q20 -64 176 -124l3 -114q-193 9 -212 -137q-18 -71 4 -240.5t-26 -246.5q-49 -127 -284 -246l-124 123q157 60 175 124q34 64 4 207.5
t11 243.5q48 141 150 214z" />
    <glyph glyph-name="asciitilde" unicode="~" horiz-adv-x="1151" 
d="M952 926l154 -140q-167 -151 -298 -155q-83 -18 -238 42t-226 64q-142 23 -179 -128l-120 156q97 163 333 163q103 6 259 -61t223 -56q66 -3 92 115z" />
    <glyph glyph-name="uni00A0" unicode="&#xa0;" 
 />
    <glyph glyph-name="exclamdown" unicode="&#xa1;" horiz-adv-x="501" 
d="M296 1126h-202l-39 233h290zM100 1002h194l13 -1062h-263z" />
    <glyph glyph-name="cent" unicode="&#xa2;" horiz-adv-x="980" 
d="M512 1151q172 -10 329 -79l-117 -180q-96 98 -183 132q-140 44 -198.5 -53t-55.5 -287q0 -274 108.5 -389t225.5 -97q93 12 159 106l102 -56q-143 -191 -370 -188q-210 -15 -338.5 151t-128.5 394q0 315 257 490q112 56 210 56zM102 -98l511 1485h220l-576 -1485h-155z
" />
    <glyph glyph-name="sterling" unicode="&#xa3;" horiz-adv-x="1002" 
d="M444 651q46 -267 -47 -431l496 30l64 -178h-906l16 115q59 -19 128 29q88 71 6 401l4 1l-15 33h-145v81h119q-23 84 -27 179q-15 236 181 423q97 60 195 60q172 -10 295 -85l-98 -194q-60 106 -150 142q-154 48 -176 -55.5t-10 -206.5q6 -125 49 -263h236v-81h-215z" />
    <glyph glyph-name="currency" unicode="&#xa4;" horiz-adv-x="1614" 
d="M550 789q22 -211 180 -355q77 -54 151 -54h2q167 0 178 229q0 35 -3 60q-19 193 -162 340q-80 68 -171 68h-4q-157 0 -174 -220q0 -41 3 -68zM1181 1058l214 176l174 -170l-302 -123q46 -99 46 -213q0 -131 -47 -226l303 -125l-174 -171l-219 180q-88 -75 -228 -109
q-67 -12 -122 -12h-34q-220 0 -354 121l-220 -180l-173 171l303 124q-53 101 -53 232v8q0 116 42 204l-292 119l173 170l208 -170q75 69 195 109q81 19 149 19h60q219 0 351 -134z" />
    <glyph glyph-name="yen" unicode="&#xa5;" horiz-adv-x="1091" 
d="M428 691l-379 800h249l221 -649l243 649h228l-343 -810l22 -605h-242zM101 750h885v-96h-885v96zM101 976h885v-95h-885v95z" />
    <glyph glyph-name="brokenbar" unicode="&#xa6;" horiz-adv-x="314" 
d="M304 1781l-60 -768l-170 -16l18 766zM304 438l-60 -768l-170 -17l18 766z" />
    <glyph glyph-name="section" unicode="&#xa7;" horiz-adv-x="1125" 
d="M849 440q67 -65 77 -133v-7q22 -154 -159 -215q-73 -24 -135 -24h-56q-194 0 -381 137q156 134 161 134h4q144 -145 248 -145h20q100 23 93 63l-1 18q-18 73 -459 241q-178 77 -191 205q-25 164 206 231q-67 65 -75 134l-2 6q-22 155 160 216q72 22 134 22h57
q193 0 380 -135q-156 -134 -160 -134h-5q-144 145 -248 145h-20q-100 -25 -93 -63l2 -19q17 -74 458 -242q178 -75 191 -203q25 -164 -206 -232zM751 515q93 24 83 93q-39 83 -329 195q-74 33 -130 68q-95 -24 -84 -94q38 -82 330 -194q73 -34 130 -68z" />
    <glyph glyph-name="dieresis" unicode="&#xa8;" horiz-adv-x="542" 
d="M212 1285h-167l1 161h177zM486 1285h-167v161h178z" />
    <glyph glyph-name="copyright" unicode="&#xa9;" horiz-adv-x="1898" 
d="M945 1308h42q175 0 359 -105v-3l-176 -147q-116 159 -237 159h-17q-214 -1 -225 -352q0 -302 113.5 -413.5t234.5 -102.5q105 0 205 97l119 -51q-167 -142 -402 -142q-228 7 -356 161.5t-123 366.5q1 285 150.5 409t312.5 123zM1853 766q0 -350 -264.5 -596t-639.5 -246
q-374 0 -639 246t-265 596q0 348 265 595t639 247q375 0 639.5 -247t264.5 -595zM468 1294q-292 -318 -162 -789q89 -206 254 -336l9 -7q374 -290 770 -9q58 48 91 82q266 292 180 743q-74 229 -282 390l-8 7q-355 276 -749 14q-66 -54 -103 -95z" />
    <glyph glyph-name="ordfeminine" unicode="&#xaa;" horiz-adv-x="762" 
d="M380 1702q198 0 254 -177l6 -50v-429l-137 8l-3 27q-74 -42 -161 -42q-191 0 -257 175l-8 50q0 140 173 199q111 32 254 0q9 156 -152 156q-65 0 -159 -75l-54 113q129 45 244 45zM240 1264q21 -128 137.5 -138.5t123.5 82.5v34q0 158 -115 158q-101 0 -146 -108v-28z
M45 965h632v-95h-632v95z" />
    <glyph glyph-name="guillemotleft" unicode="&#xab;" horiz-adv-x="1122" 
d="M246 700l407 -445l-126 -165l-405 442q-77 67 -20 160l452 504l41 -161zM599 770l478 -502l-129 -167l-480 501q-86 68 -26 158l486 459l54 -160z" />
    <glyph glyph-name="logicalnot" unicode="&#xac;" horiz-adv-x="1054" 
d="M1009 448h-291q47 363 47 367l-720 -16l33 155h931v-506z" />
    <glyph glyph-name="uni00AD" unicode="&#xad;" horiz-adv-x="782" 
d="M45 605l3 203h689l-9 -203h-683z" />
    <glyph glyph-name="registered" unicode="&#xae;" horiz-adv-x="1892" 
d="M1847 766q0 -350 -263.5 -596t-637.5 -246q-373 0 -637 246t-264 596q0 348 264 595t637 247q374 0 637.5 -247t263.5 -595zM467 1294q-292 -318 -161 -789q89 -206 252 -336l10 -7q374 -290 767 -9q58 48 90 82q265 292 181 743q-75 229 -282 390l-8 7q-353 276 -748 14
q-64 -54 -101 -95zM765 1166l9 -436q191 36 258 114q89 99 89 202v3q0 117 -184 151h-55q-117 0 -117 -34zM1066 730l258 -466h-236l-175 397q-47 -18 -129 -32l5 -365h-184v1030h359q302 0 352 -172l4 -46q0 -150 -172 -294q-38 -27 -82 -52z" />
    <glyph glyph-name="macron" unicode="&#xaf;" horiz-adv-x="1105" 
d="M45 1623l4 129h1010l-15 -129h-999z" />
    <glyph glyph-name="degree" unicode="&#xb0;" horiz-adv-x="797" 
d="M321 1674h36q172 0 253 -144q31 -62 31 -137q0 -217 -214 -272q-41 -7 -73 -7h-20q-177 0 -258 139q-34 63 -34 144v5q0 195 191 260q48 12 88 12zM201 1434q0 -138 81 -231q40 -35 82 -35h3q94 0 113 148q2 24 2 39q0 126 -72 222q-42 44 -94 44h-2q-88 0 -111 -144
q-2 -26 -2 -43z" />
    <glyph glyph-name="plusminus" unicode="&#xb1;" horiz-adv-x="1050" 
d="M412 499l-20 681h224l-22 -681h-182zM81 784l-5 163h874l-7 -163h-862zM45 129l4 163h763l-13 -163h-754z" />
    <glyph glyph-name="uni00B2" unicode="&#xb2;" horiz-adv-x="717" 
d="M454 1105l69 -113h-485q-9 145 61 237.5t208 137.5q110 60 97 165q-5 86 -85 80q-55 6 -154 -96l-106 108q183 79 342 49q146 -44 154 -175q-6 -119 -113.5 -163.5t-180.5 -87.5q-86 -50 -61 -196z" />
    <glyph glyph-name="uni00B3" unicode="&#xb3;" horiz-adv-x="752" 
d="M384 1371q87 -5 131 -35q93 -51 92 -161q0 -69 -60 -129.5t-180 -58.5q-169 -11 -319 69l95 109q81 -106 189 -112q110 9 110 141q-3 115 -178 129l-99 -8v79q48 -10 132 11.5t108 114.5q6 80 -61 81q-76 11 -179 -76l-82 96q155 70 293 55q189 -29 183 -148
q-11 -114 -175 -157z" />
    <glyph glyph-name="acute" unicode="&#xb4;" horiz-adv-x="482" 
d="M223 1233h-178l157 269h235z" />
    <glyph glyph-name="mu" unicode="&#xb5;" horiz-adv-x="1084" 
d="M117 433l-12 682h247l-5 -684q-21 -225 139 -249q202 13 247 165l38 767h205l4 -1043l-255 -3l-3 60q-123 -88 -277 -90q-87 0 -150 19q-8 -73 -4 -117q4 -164 177 -202l-150 -139q-199 106 -247 375q-26 116 18 295q24 97 28 164z" />
    <glyph glyph-name="mu" unicode="&#x2219;" horiz-adv-x="1084" 
d="M117 433l-12 682h247l-5 -684q-21 -225 139 -249q202 13 247 165l38 767h205l4 -1043l-255 -3l-3 60q-123 -88 -277 -90q-87 0 -150 19q-8 -73 -4 -117q4 -164 177 -202l-150 -139q-199 106 -247 375q-26 116 18 295q24 97 28 164z" />
    <glyph glyph-name="paragraph" unicode="&#xb6;" horiz-adv-x="883" 
d="M838 1297l-26 -90l-116 12l13 -1476h-131v1476h-100v-1474h-128l8 969q-105 -16 -209 76.5t-100 262.5q53 256 264 244h525z" />
    <glyph glyph-name="periodcentered" unicode="&#xb7;" horiz-adv-x="352" 
d="M77 1030h205v-197h-247z" />
    <glyph glyph-name="cedilla" unicode="&#xb8;" horiz-adv-x="603" 
d="M366 -281q-38 -6 -86 -6q-161 0 -235 110l160 47q13 -80 89 -95h1q63 0 65 73q5 81 -45 111q-49 15 -105 -30l-143 30l-4 193l176 -2l-21 -121q88 12 218 -24q122 -42 109 -172h1q-34 -102 -180 -114z" />
    <glyph glyph-name="uni00B9" unicode="&#xb9;" horiz-adv-x="375" 
d="M139 1676h110l-35 -683l-115 -2l6 576l-95 -66l-40 48z" />
    <glyph glyph-name="ordmasculine" unicode="&#xba;" horiz-adv-x="765" 
d="M337 1701h37q180 0 265 -169q31 -74 31 -160q0 -256 -223 -321q-43 -9 -76 -9h-22q-184 0 -269 163q-35 75 -35 171v5q0 230 199 306q50 14 93 14zM198 1415q4 -151 96 -252q45 -39 90 -39h2q102 0 119 163q2 26 1 42q-3 138 -86 242q-46 49 -102 49h-3q-96 0 -116 -157
q-1 -28 -1 -48zM48 971h632v-96h-632v96z" />
    <glyph glyph-name="guillemotright" unicode="&#xbb;" horiz-adv-x="1122" 
d="M878 609l-408 445l128 165l404 -442q75 -66 18 -159l-451 -505l-39 161zM524 539l-479 503l131 166l479 -501q85 -67 26 -158l-487 -459l-51 161z" />
    <glyph glyph-name="onequarter" unicode="&#xbc;" horiz-adv-x="1409" 
d="M221 1676h110l-36 -683l-114 -2l6 576l-96 -66l-39 48zM812 248h194l18 302zM1156 250l88 2l-40 -85l-49 2l-2 -174h-162l5 169l-285 1l-60 90l398 432h111zM81 8l955 1650h197l-1013 -1650h-139z" />
    <glyph glyph-name="onehalf" unicode="&#xbd;" horiz-adv-x="1520" 
d="M221 1676h110l-36 -683l-114 -2l6 576l-96 -66l-39 48zM1257 122l69 -113h-486q-9 145 61.5 237.5t208.5 137.5q110 60 97 165q-5 86 -86 80q-54 6 -153 -97l-106 109q183 79 341 48q147 -43 155 -174q-6 -119 -113.5 -163.5t-180.5 -87.5q-86 -50 -61 -196zM59 -5
l955 1649h198l-1014 -1649h-139z" />
    <glyph glyph-name="threequarters" unicode="&#xbe;" horiz-adv-x="1510" 
d="M384 1371q87 -5 131 -35q93 -51 92 -161q0 -69 -60 -129.5t-180 -58.5q-169 -11 -319 69l95 109q81 -106 189 -112q110 9 110 141q-3 115 -178 129l-99 -8v79q48 -10 132 11.5t108 114.5q6 80 -61 81q-76 11 -179 -76l-82 96q155 70 293 55q189 -29 183 -148
q-11 -114 -175 -157zM903 248h194l18 302zM1247 250l88 2l-39 -85l-49 2l-3 -174h-161l5 169l-285 1l-60 90l398 432h110zM114 -5l954 1649h198l-1013 -1649h-139z" />
    <glyph glyph-name="questiondown" unicode="&#xbf;" horiz-adv-x="1283" 
d="M714 900l137 -2q28 -165 36.5 -223t-16.5 -119q-45 -120 -195 -189l-4 -2q-145 -96 -176 -136q-44 -61 25.5 -143t220.5 -65.5t281 133.5l127 -205q-41 -30 -190 -72l-148 -26q-105 -5 -236 11q-94 30 -137.5 63t-86 92t-58 124t9.5 135q33 127 149 231l114 69
q82 47 106 93q21 72 41 231zM610 1251h291v-232h-242z" />
    <glyph glyph-name="Agrave" unicode="&#xc0;" horiz-adv-x="1537" 
d="M586 1491h184q442 -1012 608 -1419h-325l-138 351l-510 2l-122 -353l-268 3zM437 557h437l-242 653zM386 1957h235l157 -269h-179z" />
    <glyph glyph-name="Aacute" unicode="&#xc1;" horiz-adv-x="1537" 
d="M616 1491h184q442 -1012 608 -1419h-325l-138 351l-510 2l-122 -353l-268 3zM467 557h437l-242 653zM808 1683h-177l157 269h235z" />
    <glyph glyph-name="Acircumflex" unicode="&#xc2;" horiz-adv-x="1537" 
d="M616 1491h184q442 -1012 608 -1419h-325l-138 351l-510 2l-122 -353l-268 3zM467 557h437l-242 653zM669 1683h-169l199 269h117l217 -269h-223l-82 166z" />
    <glyph glyph-name="Atilde" unicode="&#xc3;" horiz-adv-x="1537" 
d="M616 1491h184q442 -1012 608 -1419h-325l-138 351l-510 2l-122 -353l-268 3zM467 557h437l-242 653zM937 1944l73 -109q-54 -117 -119 -120q-75 -15 -132 32t-93 50q-69 16 -112 -89l-58 111q46 127 136 127q75 4 131.5 -48t89.5 -44q32 -3 84 90z" />
    <glyph glyph-name="Adieresis" unicode="&#xc4;" horiz-adv-x="1541" 
d="M620 1491h184q442 -1012 608 -1419h-325l-138 351l-509 2l-123 -353l-268 3zM471 557h437l-242 653zM709 1735h-167l1 161h176zM983 1735h-167v161h178z" />
    <glyph glyph-name="Aring" unicode="&#xc5;" horiz-adv-x="1541" 
d="M620 1491h184q442 -1012 608 -1419h-325l-138 351l-509 2l-123 -353l-268 3zM471 557h437l-242 653zM748 1955h23q110 0 161 -75q20 -33 20 -71q0 -113 -137 -142q-26 -4 -46 -4h-14q-112 0 -165 74q-21 31 -21 73v3q0 101 122 135q31 7 57 7zM700 1823q-1 -47 33 -78
q18 -11 36 -11h1q40 0 48 49q1 7 1 14q0 41 -30 74q-18 13 -40 13h-1q-38 0 -48 -48v-13z" />
    <glyph glyph-name="AE" unicode="&#xc6;" horiz-adv-x="2089" 
d="M620 1491h184q443 -1012 608 -1419h-325l-138 351l-509 2l-123 -353l-268 3zM471 557h437l-242 653zM1159 1491h804l-64 -178l-495 35l19 -458l397 40v-170l-390 -4l24 -540l535 17v-161h-830v1419z" />
    <glyph glyph-name="Ccedilla" unicode="&#xc7;" horiz-adv-x="1221" 
d="M605 1514h52q209 0 431 -143v-6l-211 -180q-141 176 -287 176h-21q-229 -2 -241 -461q0 -417 121.5 -570.5t268.5 -142.5q129 0 246 134l145 -68q-202 -196 -484 -196q-275 10 -430 223t-150 504q3 390 183 562t377 168zM732 -277q-38 -6 -86 -6q-161 0 -235 110l160 47
q13 -80 88 -95h2q63 0 65 74q4 80 -45 110q-49 15 -105 -30l-143 30l-4 193l176 -2l-21 -121q88 12 217 -23q123 -43 110 -172h1q-34 -103 -180 -115z" />
    <glyph glyph-name="Egrave" unicode="&#xc8;" horiz-adv-x="969" 
d="M40 1491h804l-64 -178l-496 35l19 -458l397 40v-170l-390 -4l25 -540l535 17v-161h-830v1419zM206 1952h235l157 -269h-179z" />
    <glyph glyph-name="Eacute" unicode="&#xc9;" horiz-adv-x="1006" 
d="M132 1491h805l-65 -178l-495 35l19 -458l397 40v-170l-390 -4l24 -540l536 17v-161h-831v1419zM616 1683h-178l157 269h235z" />
    <glyph glyph-name="Ecircumflex" unicode="&#xca;" horiz-adv-x="969" 
d="M40 1491h804l-64 -178l-496 35l19 -458l397 40v-170l-390 -4l25 -540l535 17v-161h-830v1419zM369 1683h-170l200 269h117l217 -269h-224l-82 166z" />
    <glyph glyph-name="Edieresis" unicode="&#xcb;" horiz-adv-x="969" 
d="M40 1491h804l-64 -178l-496 35l19 -458l397 40v-170l-390 -4l25 -540l535 17v-161h-830v1419zM410 1735h-167l1 161h177zM684 1735h-167v161h178z" />
    <glyph glyph-name="Igrave" unicode="&#xcc;" horiz-adv-x="522" 
d="M410 72h-242v1419h291zM45 1952h235l157 -269h-179z" />
    <glyph glyph-name="Iacute" unicode="&#xcd;" horiz-adv-x="522" 
d="M287 72h-242v1419h291zM239 1683h-178l157 269h235z" />
    <glyph glyph-name="Icircumflex" unicode="&#xce;" horiz-adv-x="658" 
d="M417 72h-242v1419h291zM215 1683h-170l200 269h117l217 -269h-224l-82 166z" />
    <glyph glyph-name="Idieresis" unicode="&#xcf;" horiz-adv-x="571" 
d="M372 72h-242v1419h291zM211 1735h-167l1 161h177zM485 1735h-167v161h178z" />
    <glyph glyph-name="Eth" unicode="&#xd0;" horiz-adv-x="1406" 
d="M206 1484l373 19q308 -12 422 -104q277 -203 277 -615q12 -239 -124 -475q-197 -237 -452 -237h-496v1412zM466 1297l41 -1044q0 -56 92 -56h56q190 -11 255 185.5t59 401.5q0 303 -121.5 441.5t-263.5 135.5q-99 0 -118 -64zM45 982h632v-96h-632v96z" />
    <glyph glyph-name="Ntilde" unicode="&#xd1;" horiz-adv-x="1171" 
d="M45 1491h294q53 -79 528 -971l-26 971h224v-1419h-208l-622 1082l20 -1082h-210v1419zM755 1944l74 -109q-55 -117 -119 -120q-75 -15 -132.5 32t-92.5 50q-70 16 -112 -89l-59 111q46 127 137 127q75 4 131.5 -48t89.5 -44q31 -3 83 90z" />
    <glyph glyph-name="Ograve" unicode="&#xd2;" horiz-adv-x="1357" 
d="M599 1514h73q341 0 504 -374q61 -162 61 -356q0 -563 -426 -708q-82 -19 -145 -19h-41q-352 0 -513 361q-67 164 -67 375v14q0 506 381 674q94 33 173 33zM333 890q-12 -364 165 -610q89 -93 182 -93h5q212 0 271 393q7 62 8 101q11 332 -146 587q-89 116 -206 116h-6
q-199 0 -263 -379q-8 -68 -10 -115zM401 1952h235l157 -269h-179z" />
    <glyph glyph-name="Oacute" unicode="&#xd3;" horiz-adv-x="1357" 
d="M599 1514h73q341 0 504 -374q61 -162 61 -356q0 -563 -426 -708q-82 -19 -145 -19h-41q-352 0 -513 361q-67 164 -67 375v14q0 506 381 674q94 33 173 33zM333 890q-12 -364 165 -610q89 -93 182 -93h5q212 0 271 393q7 62 8 101q11 332 -146 587q-89 116 -206 116h-6
q-199 0 -263 -379q-8 -68 -10 -115zM718 1683h-177l157 269h235z" />
    <glyph glyph-name="Ocircumflex" unicode="&#xd4;" horiz-adv-x="1357" 
d="M599 1514h73q341 0 504 -374q61 -162 61 -356q0 -563 -426 -708q-82 -19 -145 -19h-41q-352 0 -513 361q-67 164 -67 375v14q0 506 381 674q94 33 173 33zM333 890q-12 -364 165 -610q89 -93 182 -93h5q212 0 271 393q7 62 8 101q11 332 -146 587q-89 116 -206 116h-6
q-199 0 -263 -379q-8 -68 -10 -115zM564 1683h-169l199 269h117l217 -269h-223l-82 166z" />
    <glyph glyph-name="Otilde" unicode="&#xd5;" horiz-adv-x="1285" 
d="M599 1514h73q341 0 504 -374q61 -162 61 -356q0 -563 -426 -708q-82 -19 -145 -19h-41q-352 0 -513 361q-67 164 -67 375v14q0 506 381 674q94 33 173 33zM333 890q-12 -364 165 -610q89 -93 182 -93h5q212 0 271 393q7 62 8 101q11 332 -146 587q-89 116 -206 116h-6
q-199 0 -263 -379q-8 -68 -10 -115zM847 1944l73 -109q-54 -117 -119 -120q-75 -15 -132 32t-93 50q-69 16 -112 -89l-58 111q46 127 136 127q75 4 131.5 -48t89.5 -44q32 -3 84 90z" />
    <glyph glyph-name="Odieresis" unicode="&#xd6;" horiz-adv-x="1357" 
d="M599 1514h73q341 0 504 -374q61 -162 61 -356q0 -563 -426 -708q-82 -19 -145 -19h-41q-352 0 -513 361q-67 164 -67 375v14q0 506 381 674q94 33 173 33zM333 890q-12 -364 165 -610q89 -93 182 -93h5q212 0 271 393q7 62 8 101q11 332 -146 587q-89 116 -206 116h-6
q-199 0 -263 -379q-8 -68 -10 -115zM605 1735h-167l2 161h176zM879 1735h-166v161h177z" />
    <glyph glyph-name="multiply" unicode="&#xd7;" horiz-adv-x="943" 
d="M45 437l654 616l158 -142l-682 -589zM64 889l168 157l666 -595l-176 -151z" />
    <glyph glyph-name="Oslash" unicode="&#xd8;" horiz-adv-x="1357" 
d="M599 1514h73q341 0 504 -374q61 -162 61 -356q0 -563 -426 -708q-82 -19 -145 -19h-41q-352 0 -513 361q-67 164 -67 375v14q0 506 381 674q94 33 173 33zM333 890q-12 -364 165 -610q89 -93 182 -93h5q212 0 271 393q7 62 8 101q11 332 -146 587q-89 116 -206 116h-6
q-199 0 -263 -379q-8 -68 -10 -115zM291 -46l510 1649h220l-576 -1649h-154z" />
    <glyph glyph-name="Ugrave" unicode="&#xd9;" horiz-adv-x="1242" 
d="M42 1491h268l4 -776q-7 -308 109 -419.5t234 -93.5q233 30 221 378l-11 911h265l-3 -578q0 -469 -76 -568q-146 -292 -437 -292h-41q-407 0 -509 467q-21 112 -21 287zM344 1952h235l157 -269h-179z" />
    <glyph glyph-name="Uacute" unicode="&#xda;" horiz-adv-x="1242" 
d="M42 1491h268l4 -776q-7 -308 109 -419.5t234 -93.5q233 30 221 378l-11 911h265l-3 -578q0 -469 -76 -568q-146 -292 -437 -292h-41q-407 0 -509 467q-21 112 -21 287zM661 1683h-178l157 269h235z" />
    <glyph glyph-name="Ucircumflex" unicode="&#xdb;" horiz-adv-x="1242" 
d="M42 1491h268l4 -776q-7 -308 109 -419.5t234 -93.5q233 30 221 378l-11 911h265l-3 -578q0 -469 -76 -568q-146 -292 -437 -292h-41q-407 0 -509 467q-21 112 -21 287zM507 1683h-170l200 269h117l217 -269h-224l-82 166z" />
    <glyph glyph-name="Udieresis" unicode="&#xdc;" horiz-adv-x="1242" 
d="M42 1491h268l4 -776q-7 -308 109 -419.5t234 -93.5q233 30 221 378l-11 911h265l-3 -578q0 -469 -76 -568q-146 -292 -437 -292h-41q-407 0 -509 467q-21 112 -21 287zM547 1735h-166l1 161h176zM822 1735h-167v161h178z" />
    <glyph glyph-name="Yacute" unicode="&#xdd;" horiz-adv-x="1267" 
d="M492 691l-447 800h294l259 -649l287 649h267l-402 -810l26 -605h-286zM659 1683h-177l157 269h235z" />
    <glyph glyph-name="Thorn" unicode="&#xde;" horiz-adv-x="1075" 
d="M310 1096l15 -600q217 49 309 157q122 138 122 277v4q0 161 -251 209h-78q-117 0 -117 -47zM304 1271h237q413 0 483 -235l5 -65q0 -204 -236 -402q-177 -135 -457 -213l9 -284h-294l-6 1486h259v-287z" />
    <glyph glyph-name="germandbls" unicode="&#xdf;" horiz-adv-x="897" 
d="M796 210q83 -28 159 -28q55 0 93 19.5t59.5 54.5t25.5 82t-7 104q-24 118 -104 175t-271 68l-41 155q94 35 134 100t22 153.5t-57 122t-110 25.5t-100 -98l52 -1000l-236 -54l13 1104q36 123 158 160t186.5 29t145.5 -33t151 -124q46 -144 -26 -264q-60 -99 -145 -153
l68 -11q141 -16 271.5 -102.5t152.5 -256.5q0 -165 -63 -243t-139.5 -104.5t-167.5 -26.5q-130 0 -248 41q-32 10 -66 30l26 109q34 -23 64 -34z" />
    <glyph glyph-name="agrave" unicode="&#xe0;" horiz-adv-x="1008" 
d="M509 1151q301 0 385 -296l10 -84v-714l-208 14l-5 44q-112 -70 -243 -70q-290 0 -391 292l-11 84q0 233 263 331q168 54 383 0q15 260 -229 260q-98 0 -242 -125l-82 189q197 75 370 75zM298 421q31 -213 208 -231t188 138v56q0 263 -175 263q-153 0 -221 -180v-46z
M224 1502h235l157 -269h-179z" />
    <glyph glyph-name="aacute" unicode="&#xe1;" horiz-adv-x="1008" 
d="M509 1151q301 0 385 -296l10 -84v-714l-208 14l-5 44q-112 -70 -243 -70q-290 0 -391 292l-11 84q0 233 263 331q168 54 383 0q15 260 -229 260q-98 0 -242 -125l-82 189q197 75 370 75zM298 421q31 -213 208 -231t188 138v56q0 263 -175 263q-153 0 -221 -180v-46z
M541 1233h-178l157 269h235z" />
    <glyph glyph-name="acircumflex" unicode="&#xe2;" horiz-adv-x="1008" 
d="M509 1151q301 0 385 -296l10 -84v-714l-208 14l-5 44q-112 -70 -243 -70q-290 0 -391 292l-11 84q0 233 263 331q168 54 383 0q15 260 -229 260q-98 0 -242 -125l-82 189q197 75 370 75zM298 421q31 -213 208 -231t188 138v56q0 263 -175 263q-153 0 -221 -180v-46z
M386 1233h-169l199 269h118l217 -269h-224l-82 165z" />
    <glyph glyph-name="atilde" unicode="&#xe3;" horiz-adv-x="1008" 
d="M509 1151q301 0 385 -296l10 -84v-714l-208 14l-5 44q-112 -70 -243 -70q-290 0 -391 292l-11 84q0 233 263 331q168 54 383 0q15 260 -229 260q-98 0 -242 -125l-82 189q197 75 370 75zM298 421q31 -213 208 -231t188 138v56q0 263 -175 263q-153 0 -221 -180v-46z
M669 1494l74 -110q-55 -117 -119 -120q-75 -15 -132.5 32t-92.5 50q-70 17 -112 -89l-59 111q46 127 137 127q75 4 131.5 -48t89.5 -43q31 -3 83 90z" />
    <glyph glyph-name="adieresis" unicode="&#xe4;" horiz-adv-x="1008" 
d="M509 1151q301 0 385 -296l10 -84v-714l-208 14l-5 44q-112 -70 -243 -70q-290 0 -391 292l-11 84q0 233 263 331q168 54 383 0q15 260 -229 260q-98 0 -242 -125l-82 189q197 75 370 75zM298 421q31 -213 208 -231t188 138v56q0 263 -175 263q-153 0 -221 -180v-46z
M427 1285h-166l1 161h176zM702 1285h-167v161h178z" />
    <glyph glyph-name="aring" unicode="&#xe5;" horiz-adv-x="1008" 
d="M509 1151q301 0 385 -296l10 -84v-714l-208 14l-5 44q-112 -70 -243 -70q-290 0 -391 292l-11 84q0 233 263 331q168 54 383 0q15 260 -229 260q-98 0 -242 -125l-82 189q197 75 370 75zM298 421q31 -213 208 -231t188 138v56q0 263 -175 263q-153 0 -221 -180v-46z
M477 1505h23q109 0 161 -75q19 -33 19 -71q0 -114 -137 -142q-26 -5 -46 -5h-14q-112 0 -165 74q-20 32 -20 74v3q0 101 121 135q32 7 58 7zM429 1372q-2 -46 32 -78q18 -11 36 -11h1q40 0 48 50q1 6 1 13q0 41 -30 74q-17 14 -39 14h-1q-39 0 -48 -48v-14z" />
    <glyph glyph-name="ae" unicode="&#xe6;" horiz-adv-x="1720" 
d="M509 1151q301 0 385 -296l10 -84v-714l-208 14l-5 44q-112 -70 -243 -70q-290 0 -391 292l-11 84q0 233 263 331q168 54 383 0q15 260 -229 260q-98 0 -242 -125l-82 189q197 75 370 75zM298 421q31 -213 208 -231t188 138v56q0 263 -175 263q-153 0 -221 -180v-46z
M964 627l416 78q3 118 -38 201.5t-127 90.5q-139 43 -200 -51.5t-55 -273.5zM1614 605v-10q0 -13 -642 -73q25 -149 98 -227q108 -115 226 -97q93 12 158 106l102 -56q-143 -191 -370 -188q-210 -15 -338 151t-128 394q0 315 256 490q112 56 210 56q239 8 364 -190
q69 -134 64 -356z" />
    <glyph glyph-name="ccedilla" unicode="&#xe7;" horiz-adv-x="980" 
d="M512 1151q172 -10 329 -79l-117 -180q-96 98 -183 132q-140 44 -198.5 -53t-55.5 -287q0 -274 108.5 -389t225.5 -97q93 12 159 106l102 -56q-143 -191 -370 -188q-210 -15 -338.5 151t-128.5 394q0 315 257 490q112 56 210 56zM599 -281q-38 -6 -86 -6q-161 0 -234 110
l159 47q14 -80 89 -95h1q63 0 66 73q4 81 -45 111q-49 15 -105 -30l-144 30l-4 193l176 -2l-20 -121q87 12 217 -24q123 -42 109 -172h2q-35 -102 -181 -114z" />
    <glyph glyph-name="egrave" unicode="&#xe8;" horiz-adv-x="1040" 
d="M289 627l417 78q3 118 -38 201.5t-127 90.5q-140 43 -200.5 -51.5t-55.5 -273.5zM939 605v-10q0 -13 -641 -73q24 -149 98 -227q108 -115 225 -97q93 12 159 106l102 -56q-143 -191 -370 -188q-210 -15 -338.5 151t-128.5 394q0 315 257 490q112 56 210 56
q239 8 363 -190q70 -134 64 -356zM243 1502h235l157 -269h-179z" />
    <glyph glyph-name="eacute" unicode="&#xe9;" horiz-adv-x="993" 
d="M289 627l417 78q3 118 -38 201.5t-127 90.5q-140 43 -200.5 -51.5t-55.5 -273.5zM939 605v-10q0 -13 -641 -73q24 -149 98 -227q108 -115 225 -97q93 12 159 106l102 -56q-143 -191 -370 -188q-210 -15 -338.5 151t-128.5 394q0 315 257 490q112 56 210 56
q239 8 363 -190q70 -134 64 -356zM560 1233h-178l157 269h235z" />
    <glyph glyph-name="ecircumflex" unicode="&#xea;" horiz-adv-x="1046" 
d="M289 627l417 78q3 118 -38 201.5t-127 90.5q-140 43 -200.5 -51.5t-55.5 -273.5zM939 605v-10q0 -13 -641 -73q24 -149 98 -227q108 -115 225 -97q93 12 159 106l102 -56q-143 -191 -370 -188q-210 -15 -338.5 151t-128.5 394q0 315 257 490q112 56 210 56
q239 8 363 -190q70 -134 64 -356zM406 1233h-170l200 269h117l217 -269h-224l-82 165z" />
    <glyph glyph-name="edieresis" unicode="&#xeb;" horiz-adv-x="1040" 
d="M289 627l417 78q3 118 -38 201.5t-127 90.5q-140 43 -200.5 -51.5t-55.5 -273.5zM939 605v-10q0 -13 -641 -73q24 -149 98 -227q108 -115 225 -97q93 12 159 106l102 -56q-143 -191 -370 -188q-210 -15 -338.5 151t-128.5 394q0 315 257 490q112 56 210 56
q239 8 363 -190q70 -134 64 -356zM446 1285h-166l1 161h176zM721 1285h-167v161h178z" />
    <glyph glyph-name="igrave" unicode="&#xec;" horiz-adv-x="507" 
d="M427 1114l-46 -1039h-205l-3 1039h254zM45 1502h235l157 -269h-179z" />
    <glyph glyph-name="iacute" unicode="&#xed;" horiz-adv-x="507" 
d="M315 1114l-46 -1039h-205l-2 1039h253zM223 1233h-178l157 269h235z" />
    <glyph glyph-name="icircumflex" unicode="&#xee;" horiz-adv-x="658" 
d="M448 1114l-46 -1039h-205l-3 1039h254zM215 1233h-170l200 269h117l217 -269h-224l-82 165z" />
    <glyph glyph-name="idieresis" unicode="&#xef;" horiz-adv-x="569" 
d="M404 1114l-46 -1039h-205l-3 1039h254zM211 1285h-166l1 161h176zM486 1285h-167v161h178z" />
    <glyph glyph-name="eth" unicode="&#xf0;" horiz-adv-x="1130" 
d="M511 907q-164 -24 -197 -170q-7 -278 160 -435q82 -89 160 -89h5q179 0 192 285q5 157 -98.5 285t-221.5 124zM546 1073q183 -3 272 -89q-11 138 -58 238zM677 1346q-60 62 -145 96l130 128q89 -54 160 -123l123 81l89 -120l-114 -74q165 -231 165 -578q0 -177 -54 -340
q-133 -360 -425 -360q-289 -21 -425 206t-64 453q88 306 373 357q10 0 18 1l-82 97z" />
    <glyph glyph-name="ntilde" unicode="&#xf1;" horiz-adv-x="1020" 
d="M44 1118l255 3l3 -60q123 89 277 90q195 0 262.5 -93.5t63.5 -206.5l14 -777h-247l5 684q21 225 -139 250q-202 -14 -247 -166l-38 -767h-205zM677 1494l74 -110q-55 -117 -119 -120q-75 -15 -132.5 32t-92.5 50q-70 17 -112 -89l-59 111q47 127 137 127q75 4 131.5 -48
t89.5 -43q31 -3 83 90z" />
    <glyph glyph-name="ograve" unicode="&#xf2;" horiz-adv-x="1098" 
d="M487 1151h56q273 0 402 -281q48 -123 48 -268q0 -426 -339 -534q-64 -15 -115 -15h-32q-280 0 -409 272q-53 124 -53 284v9q0 383 302 510q76 23 140 23zM277 674q6 -251 146 -420q67 -64 135 -64h5q154 0 180 271q2 43 1 70q-5 229 -131 404q-70 81 -154 81h-4
q-146 0 -176 -262q-2 -47 -2 -80zM272 1502h235l157 -269h-179z" />
    <glyph glyph-name="oacute" unicode="&#xf3;" horiz-adv-x="1098" 
d="M487 1151h56q273 0 402 -281q48 -123 48 -268q0 -426 -339 -534q-64 -15 -115 -15h-32q-280 0 -409 272q-53 124 -53 284v9q0 383 302 510q76 23 140 23zM277 674q6 -251 146 -420q67 -64 135 -64h5q154 0 180 271q2 43 1 70q-5 229 -131 404q-70 81 -154 81h-4
q-146 0 -176 -262q-2 -47 -2 -80zM588 1233h-177l157 269h235z" />
    <glyph glyph-name="ocircumflex" unicode="&#xf4;" horiz-adv-x="1098" 
d="M487 1151h56q273 0 402 -281q48 -123 48 -268q0 -426 -339 -534q-64 -15 -115 -15h-32q-280 0 -409 272q-53 124 -53 284v9q0 383 302 510q76 23 140 23zM277 674q6 -251 146 -420q67 -64 135 -64h5q154 0 180 271q2 43 1 70q-5 229 -131 404q-70 81 -154 81h-4
q-146 0 -176 -262q-2 -47 -2 -80zM434 1233h-169l199 269h118l217 -269h-224l-82 165z" />
    <glyph glyph-name="otilde" unicode="&#xf5;" horiz-adv-x="1098" 
d="M487 1151h56q273 0 402 -281q48 -123 48 -268q0 -426 -339 -534q-64 -15 -115 -15h-32q-280 0 -409 272q-53 124 -53 284v9q0 383 302 510q76 23 140 23zM277 674q6 -251 146 -420q67 -64 135 -64h5q154 0 180 271q2 43 1 70q-5 229 -131 404q-70 81 -154 81h-4
q-146 0 -176 -262q-2 -47 -2 -80zM717 1494l74 -110q-55 -117 -119 -120q-75 -15 -132.5 32t-93.5 50q-69 17 -111 -89l-59 111q46 127 136 127q75 4 132 -48t90 -43q31 -3 83 90z" />
    <glyph glyph-name="odieresis" unicode="&#xf6;" horiz-adv-x="1098" 
d="M487 1151h56q273 0 402 -281q48 -123 48 -268q0 -426 -339 -534q-64 -15 -115 -15h-32q-280 0 -409 272q-53 124 -53 284v9q0 383 302 510q76 23 140 23zM277 674q6 -251 146 -420q67 -64 135 -64h5q154 0 180 271q2 43 1 70q-5 229 -131 404q-70 81 -154 81h-4
q-146 0 -176 -262q-2 -47 -2 -80zM475 1285h-166l1 161h176zM750 1285h-167v161h177z" />
    <glyph glyph-name="divide" unicode="&#xf7;" horiz-adv-x="1208" 
d="M506 304h241v-232h-291zM486 1090h242v-233h-291zM53 396l4 203h916l-16 -203h-904z" />
    <glyph glyph-name="oslash" unicode="&#xf8;" horiz-adv-x="1098" 
d="M487 1151h56q273 0 402 -281q48 -123 48 -268q0 -426 -339 -534q-64 -15 -115 -15h-32q-280 0 -409 272q-53 124 -53 284v9q0 383 302 510q76 23 140 23zM277 674q6 -251 146 -420q67 -64 135 -64h5q154 0 180 271q2 43 1 70q-5 229 -131 404q-70 81 -154 81h-4
q-146 0 -176 -262q-2 -47 -2 -80zM161 -37l511 1319h220l-577 -1319h-154z" />
    <glyph glyph-name="ugrave" unicode="&#xf9;" horiz-adv-x="1016" 
d="M918 71h-257l-2 60q-124 -91 -278 -93q-195 0 -262 93.5t-64 207.5l-13 781h247l-5 -689q-20 -225 138 -249q203 16 248 168l37 768h206zM229 1502h235l157 -269h-179z" />
    <glyph glyph-name="uacute" unicode="&#xfa;" horiz-adv-x="1016" 
d="M918 71h-257l-2 60q-124 -91 -278 -93q-195 0 -262 93.5t-64 207.5l-13 781h247l-5 -689q-20 -225 138 -249q203 16 248 168l37 768h206zM545 1233h-178l157 269h235z" />
    <glyph glyph-name="ucircumflex" unicode="&#xfb;" horiz-adv-x="1016" 
d="M918 71h-257l-2 60q-124 -91 -278 -93q-195 0 -262 93.5t-64 207.5l-13 781h247l-5 -689q-20 -225 138 -249q203 16 248 168l37 768h206zM392 1233h-169l199 269h117l217 -269h-224l-81 165z" />
    <glyph glyph-name="udieresis" unicode="&#xfc;" horiz-adv-x="1016" 
d="M918 71h-257l-2 60q-124 -91 -278 -93q-195 0 -262 93.5t-64 207.5l-13 781h247l-5 -689q-20 -225 138 -249q203 16 248 168l37 768h206zM433 1285h-167l2 161h176zM707 1285h-166v161h177z" />
    <glyph glyph-name="yacute" unicode="&#xfd;" horiz-adv-x="1098" 
d="M397 -315h-211l191 521l-332 912h190l232 -689l239 689h287zM588 1233h-177l157 269h235z" />
    <glyph glyph-name="thorn" unicode="&#xfe;" horiz-adv-x="1106" 
d="M299 100v-439l-257 37l36 1423l221 -4v-27q104 47 232 60q210 15 338.5 -152.5t128.5 -394.5q0 -315 -257 -490q-112 -54 -210 -54q-119 7 -232 41zM299 948l5 -615q111 -102 198 -124q140 -33 194.5 45.5t59.5 271.5q0 273 -108.5 388t-224.5 96q-69 -8 -124 -62z
M280 15h-205l-3 1427h272z" />
    <glyph glyph-name="ydieresis" unicode="&#xff;" horiz-adv-x="1098" 
d="M397 -315h-211l191 521l-332 912h190l232 -689l239 689h287zM475 1285h-166l1 161h176zM750 1285h-167v161h177z" />
    <glyph glyph-name="dotlessi" unicode="&#x131;" horiz-adv-x="344" 
d="M299 1114l-46 -1039h-205l-3 1039h254z" />
    <glyph glyph-name="Lslash" unicode="&#x141;" horiz-adv-x="1283" 
d="M416 1491h291q-47 -1275 -47 -1281l527 17l-34 -155h-737v1419zM-16 406l894 894l68 -68l-894 -894z" />
    <glyph glyph-name="lslash" unicode="&#x142;" horiz-adv-x="1121" 
d="M628 75h-205l-3 1427h272zM-16 406l894 894l68 -68l-894 -894z" />
    <glyph glyph-name="OE" unicode="&#x152;" horiz-adv-x="1962" 
d="M599 1514h73q341 0 504 -374q61 -162 61 -356q0 -563 -426 -708q-82 -19 -145 -19h-41q-352 0 -513 361q-67 164 -67 375v14q0 506 381 674q94 33 173 33zM333 890q-12 -364 165 -610q89 -93 182 -93h5q212 0 271 393q7 62 8 101q11 332 -146 587q-89 116 -206 116h-6
q-199 0 -263 -379q-8 -68 -10 -115zM1032 1491h804l-64 -178l-495 35l19 -458l397 40v-170l-390 -4l24 -540l535 17v-161h-830v1419z" />
    <glyph glyph-name="oe" unicode="&#x153;" horiz-adv-x="1864" 
d="M487 1151h56q273 0 402 -281q48 -123 48 -268q0 -426 -339 -534q-64 -15 -115 -15h-32q-280 0 -409 272q-53 124 -53 284v9q0 383 302 510q76 23 140 23zM277 674q6 -251 146 -420q67 -64 135 -64h5q154 0 180 271q2 43 1 70q-5 229 -131 404q-70 81 -154 81h-4
q-146 0 -176 -262q-2 -47 -2 -80zM1107 627l417 78q2 118 -38.5 201.5t-126.5 90.5q-140 43 -200.5 -51.5t-55.5 -273.5zM1757 605v-10q0 -13 -642 -73q25 -149 99 -227q108 -115 225 -97q93 12 158 106l103 -56q-144 -191 -370 -188q-210 -15 -338.5 151t-128.5 394
q0 315 257 490q112 56 210 56q239 8 363 -190q70 -134 64 -356z" />
    <glyph glyph-name="Scaron" unicode="&#x160;" horiz-adv-x="1122" 
d="M960 1383l-186 -201q-181 187 -307 177q-100 10 -141 -33t-34 -100q0 -132 195 -240q212 -97 359 -192.5t170 -278.5q0 -333 -380 -440q-299 -46 -591 134l190 203q162 -174 323 -174q192 30 192 188q8 190 -355 329q-329 147 -329 407q0 252 267 337q288 57 627 -116z
M642 1952h169l-198 -269h-119l-217 269h225l81 -165z" />
    <glyph glyph-name="scaron" unicode="&#x161;" horiz-adv-x="958" 
d="M395 1169h56q192 0 365 -125q-174 -166 -180 -166h-5q-122 180 -227 180h-20q-103 -29 -103 -79v-23q4 -120 443 -347q138 -109 138 -254q0 -212 -263 -295q-105 -23 -173 -23q-194 0 -381 124l180 171q123 -185 231 -185h15q160 18 160 130q0 103 -298 272
q-267 164 -267 315v8q0 192 189 269q78 28 140 28zM560 1502h169l-198 -269h-119l-217 269h226l80 -165z" />
    <glyph glyph-name="Ydieresis" unicode="&#x178;" horiz-adv-x="1267" 
d="M492 691l-447 800h294l259 -649l287 649h267l-402 -810l26 -605h-286zM546 1735h-166l1 161h176zM821 1735h-167v161h177z" />
    <glyph glyph-name="Zcaron" unicode="&#x17d;" horiz-adv-x="1166" 
d="M210 1491h804l-632 -1266l607 37l-32 -190h-930l568 1274l-437 -45zM650 1952h169l-198 -269h-119l-217 269h226l80 -165z" />
    <glyph glyph-name="zcaron" unicode="&#x17e;" horiz-adv-x="866" 
d="M180 1118h596l-443 -898l423 27l-23 -175h-687l407 899l-323 -8zM513 1502h170l-198 -269h-119l-217 269h225l81 -165z" />
    <glyph glyph-name="florin" unicode="&#x192;" horiz-adv-x="1013" 
d="M576 108q-28 -340 -353 -408q-186 -28 -302 0l95 233q95 -70 167 -70h33q95 0 104 115l76 987l-228 3l23 116h212q34 380 311 445q149 26 254 12l-38 -225q-127 66 -184 66h-28q-76 0 -83 -107l-12 -190h241l-24 -148l-223 11z" />
    <glyph glyph-name="circumflex" unicode="&#x2c6;" horiz-adv-x="1241" 
d="M45 1492l7 204h1144l-20 -204h-1131z" />
    <glyph glyph-name="circumflex" unicode="&#x2012;" horiz-adv-x="1241" 
d="M45 1492l7 204h1144l-20 -204h-1131z" />
    <glyph glyph-name="caron" unicode="&#x2c7;" horiz-adv-x="1241" 
d="M45 605l6 203h1145l-20 -203h-1131z" />
    <glyph glyph-name="caron" unicode="&#x2013;" horiz-adv-x="1241" 
d="M45 605l6 203h1145l-20 -203h-1131z" />
    <glyph glyph-name="emdash" unicode="&#x2c9;" horiz-adv-x="1548" 
d="M45 605l7 203h1451l-26 -203h-1432z" />
    <glyph glyph-name="emdash" unicode="&#x2014;" horiz-adv-x="1548" 
d="M45 605l7 203h1451l-26 -203h-1432z" />
    <glyph glyph-name="breve" unicode="&#x2d8;" horiz-adv-x="2277" 
d="M45 605l12 203h2175l-39 -203h-2148z" />
    <glyph glyph-name="breve" unicode="&#x2015;" horiz-adv-x="2277" 
d="M45 605l12 203h2175l-39 -203h-2148z" />
    <glyph glyph-name="quoteleft" unicode="&#x2018;" horiz-adv-x="388" 
d="M206 1658l63 -153q-75 -39 -89 -75h163l-49 -233h-242v233q-7 102 154 228z" />
    <glyph glyph-name="ring" unicode="&#x2da;" horiz-adv-x="388" 
d="M182 1301l-63 153q75 38 89 75h-163l49 232h242v-232q7 -102 -154 -228z" />
    <glyph glyph-name="ring" unicode="&#x2019;" horiz-adv-x="388" 
d="M182 1301l-63 153q75 38 89 75h-163l49 232h242v-232q7 -102 -154 -228z" />
    <glyph glyph-name="ogonek" unicode="&#x2db;" horiz-adv-x="388" 
d="M206 337l63 -153q-75 -38 -89 -75h163l-49 -232h-242v232q-7 103 154 228z" />
    <glyph glyph-name="ogonek" unicode="&#x201a;" horiz-adv-x="388" 
d="M206 337l63 -153q-75 -38 -89 -75h163l-49 -232h-242v232q-7 103 154 228z" />
    <glyph glyph-name="tilde" unicode="&#x2dc;" horiz-adv-x="781" 
d="M206 1658l63 -153q-75 -39 -89 -75h163l-49 -233h-242v233q-7 102 154 228zM206 1658l63 -153q-75 -39 -89 -75h163l-49 -233h-242v233q-7 102 154 228zM599 1658l63 -153q-75 -39 -89 -75h163l-49 -233h-242v233q-7 102 154 228z" />
    <glyph glyph-name="tilde" unicode="&#x201c;" horiz-adv-x="781" 
d="M206 1658l63 -153q-75 -39 -89 -75h163l-49 -233h-242v233q-7 102 154 228zM206 1658l63 -153q-75 -39 -89 -75h163l-49 -233h-242v233q-7 102 154 228zM599 1658l63 -153q-75 -39 -89 -75h163l-49 -233h-242v233q-7 102 154 228z" />
    <glyph glyph-name="hungarumlaut" unicode="&#x2dd;" horiz-adv-x="778" 
d="M179 1301l-63 153q75 38 89 75h-163l49 232h242v-232q7 -102 -154 -228zM179 1301l-63 153q75 38 89 75h-163l49 232h242v-232q7 -102 -154 -228zM572 1290l-63 153q75 38 89 75h-162l49 232h241v-232q7 -102 -154 -228z" />
    <glyph glyph-name="hungarumlaut" unicode="&#x201d;" horiz-adv-x="778" 
d="M179 1301l-63 153q75 38 89 75h-163l49 232h242v-232q7 -102 -154 -228zM179 1301l-63 153q75 38 89 75h-163l49 232h242v-232q7 -102 -154 -228zM572 1290l-63 153q75 38 89 75h-162l49 232h241v-232q7 -102 -154 -228z" />
    <glyph glyph-name="uni0394" unicode="&#x394;" horiz-adv-x="1451" 
d="M616 1491h184q442 -1012 606 -1419l-1361 3zM339 177h701l-378 1033z" />
    <glyph glyph-name="uni03A9" unicode="&#x3a9;" horiz-adv-x="1425" 
d="M45 72l71 178l262 -17q-120 111 -199 274q-67 148 -67 342v13q0 464 380 618q95 30 174 30h73q341 0 503 -344q62 -147 62 -325q0 -367 -245 -605l250 14l71 -178l-557 -4q172 384 198 586q6 57 6 94q0 303 -165 538q-93 105 -211 105h-5q-200 0 -251 -347
q-6 -64 -6 -106q0 -309 270 -871z" />
    <glyph glyph-name="uni03BC" unicode="&#x3bc;" horiz-adv-x="1025" 
d="M117 433l-12 682h247l-5 -684q-21 -225 139 -249q202 13 247 165l38 767h205l4 -1043l-255 -3l-3 60q-123 -88 -277 -90q-87 0 -150 19q-8 -73 -4 -117q4 -164 177 -202l-150 -139q-199 106 -247 375q-26 116 18 295q24 97 28 164z" />
    <glyph glyph-name="uni03BC" unicode="&#x2215;" horiz-adv-x="1025" 
d="M117 433l-12 682h247l-5 -684q-21 -225 139 -249q202 13 247 165l38 767h205l4 -1043l-255 -3l-3 60q-123 -88 -277 -90q-87 0 -150 19q-8 -73 -4 -117q4 -164 177 -202l-150 -139q-199 106 -247 375q-26 116 18 295q24 97 28 164z" />
    <glyph glyph-name="pi" unicode="&#x3c0;" horiz-adv-x="1219" 
d="M1006 971l3 -896h-255l65 896h-213l-3 -327q-25 -376 -296 -521q-117 -64 -216 -64l-46 185q219 -38 267 53.5t42 266.5l-2 407h-277l23 143h1076l-23 -143h-145z" />
    <glyph glyph-name="pi" unicode="&#x20a3;" horiz-adv-x="1219" 
d="M1006 971l3 -896h-255l65 896h-213l-3 -327q-25 -376 -296 -521q-117 -64 -216 -64l-46 185q219 -38 267 53.5t42 266.5l-2 407h-277l23 143h1076l-23 -143h-145z" />
    <glyph glyph-name="dotaccent" unicode="&#x2d9;" 
d="M-790 1902h204v-204h-204v204z" />
    <glyph glyph-name="dotbelowcomb" unicode="&#x323;" 
d="M-606 -141h184v-234h-184v234z" />
    <glyph glyph-name="Amacron" unicode="&#x100;" horiz-adv-x="1380" 
d="M582 1491h184q442 -1012 608 -1419h-325l-138 351l-510 2l-122 -353l-268 3zM433 557h437l-242 653zM260 1623l3 107h797l-12 -107h-788z" />
    <glyph glyph-name="uni0226" unicode="&#x226;" horiz-adv-x="1410" 
d="M582 1491h184q442 -1012 608 -1419h-325l-138 351l-510 2l-122 -353l-268 3zM433 557h437l-242 653zM550 1902h204v-204h-204v204z" />
    <glyph glyph-name="uni1E0C" unicode="&#x1e0c;" horiz-adv-x="1290" 
d="M132 1484l373 19q309 -12 422 -104q277 -203 277 -615q13 -239 -124 -475q-197 -237 -452 -237h-496v1412zM392 1297l41 -1044q0 -56 93 -56h56q189 -11 254 185.5t60 401.5q0 303 -121.5 441.5t-263.5 135.5q-100 0 -119 -64zM464 -141h184v-234h-184v234z" />
    <glyph glyph-name="uni1E24" unicode="&#x1e24;" horiz-adv-x="1370" 
d="M185 1491h228l19 -504h482l-9 504h291v-1419h-242l-29 770l-489 7l14 -777h-265v1419zM594 -141h184v-234h-184v234z" />
    <glyph glyph-name="Imacron" unicode="&#x12a;" horiz-adv-x="610" 
d="M407 72h-242v1419h291zM-90 1623l3 107h797l-12 -107h-788z" />
    <glyph glyph-name="uni1E36" unicode="&#x1e36;" horiz-adv-x="980" 
d="M171 1491h291q-47 -1275 -47 -1281l527 17l-34 -155h-737v1419zM384 -141h184v-234h-184v234z" />
    <glyph glyph-name="uni1E40" unicode="&#x1e40;" horiz-adv-x="1700" 
d="M205 1491h306l408 -912l383 912h247v-1419h-272l64 1005l-414 -912h-87l-437 929l26 -1022h-224v1419zM770 1902h204v-204h-204v204z" />
    <glyph glyph-name="uni1E44" unicode="&#x1e44;" horiz-adv-x="1440" 
d="M205 1491h294q53 -79 528 -971l-26 971h224v-1419h-207l-623 1082l20 -1082h-210v1419zM620 1902h204v-204h-204v204z" />
    <glyph glyph-name="uni1E46" unicode="&#x1e46;" horiz-adv-x="1420" 
d="M205 1491h294q53 -79 528 -971l-26 971h224v-1419h-207l-623 1082l20 -1082h-210v1419zM654 -141h184v-234h-184v234z" />
    <glyph glyph-name="uni1E5A" unicode="&#x1e5a;" horiz-adv-x="1310" 
d="M480 1316l17 -520q229 61 330 148.5t101 205.5v4q0 161 -252 207h-77q-119 0 -119 -45zM893 797l349 -722l-322 -3l-239 628q-102 -23 -175 -43l11 -585h-296v1419l492 12q413 -12 483 -247l4 -65q0 -193 -307 -394zM604 -141h184v-234h-184v234z" />
    <glyph glyph-name="uni1E62" unicode="&#x1e62;" horiz-adv-x="1170" 
d="M990 1383l-186 -201q-181 187 -307 177q-100 10 -141 -33t-34 -100q0 -132 195 -240q212 -97 359 -192.5t170 -278.5q0 -333 -380 -440q-299 -46 -591 134l190 203q162 -174 323 -174q192 30 192 188q8 190 -355 329q-329 147 -329 407q0 252 267 337q288 57 627 -116z
M444 -141h184v-234h-184v234z" />
    <glyph glyph-name="uni1E6C" unicode="&#x1e6c;" horiz-adv-x="1160" 
d="M71 1491h1005l-49 -178l-370 26l31 -1267h-295l33 1276l-411 -35v5zM434 -141h184v-234h-184v234z" />
    <glyph glyph-name="Umacron" unicode="&#x16a;" horiz-adv-x="1410" 
d="M150 1491h268l4 -776q-7 -308 109 -419.5t234 -93.5q233 30 221 378l-11 911h265l-3 -578q0 -469 -77 -568q-146 -292 -436 -292h-41q-407 0 -510 467q-20 112 -20 287zM290 1623l3 107h797l-12 -107h-788z" />
    <glyph glyph-name="amacron" unicode="&#x101;" horiz-adv-x="1070" 
d="M519 1151q301 0 385 -296l10 -84v-714l-208 14l-5 44q-112 -70 -243 -70q-290 0 -391 292l-11 84q0 233 263 331q168 54 383 0q15 260 -229 260q-98 0 -242 -125l-82 189q197 75 370 75zM308 421q31 -213 208 -231t188 138v56q0 263 -175 263q-153 0 -221 -180v-46z
M90 1293l3 107h797l-12 -107h-788z" />
    <glyph glyph-name="uni0227" unicode="&#x227;" horiz-adv-x="1040" 
d="M509 1151q301 0 385 -296l10 -84v-714l-208 14l-5 44q-112 -70 -243 -70q-290 0 -391 292l-11 84q0 233 263 331q168 54 383 0q15 260 -229 260q-98 0 -242 -125l-82 189q197 75 370 75zM298 421q31 -213 208 -231t188 138v56q0 263 -175 263q-153 0 -221 -180v-46z
M390 1422h204v-204h-204v204z" />
    <glyph glyph-name="uni1E0D" unicode="&#x1e0d;" horiz-adv-x="1160" 
d="M756 1535q216 -29 216 -43v-1411l-257 -3l37 1451q4 0 4 6zM515 1152q172 -2 329 -67l-103 -200q-110 110 -198 142q-125 12 -190.5 -73.5t-63.5 -274.5q0 -275 109 -386t225 -90q94 15 159 112l103 -51q-144 -197 -370 -203q-211 -21 -339 140.5t-128 389.5
q0 316 256 499q112 60 211 62zM514 -141h184v-234h-184v234z" />
    <glyph glyph-name="uni1E25" unicode="&#x1e25;" horiz-adv-x="1170" 
d="M164 1502l272 41l-13 -421q112 29 210 29q260 0 361 -195q22 -49 30 -129l14 -753h-248l6 684q20 225 -139 250q-205 4 -246 -127l-40 -806h-204zM544 -141h184v-234h-184v234z" />
    <glyph glyph-name="imacron" unicode="&#x12b;" horiz-adv-x="570" 
d="M399 1114l-46 -1039h-205l-3 1039h254zM-30 1330l2 80h596l-9 -80h-589z" />
    <glyph glyph-name="uni1E37" unicode="&#x1e37;" horiz-adv-x="670" 
d="M413 75h-205l-3 1427h272zM214 -141h184v-234h-184v234z" />
    <glyph glyph-name="uni1E41" unicode="&#x1e41;" horiz-adv-x="1560" 
d="M893 827l-12 -753h-247l31 684q20 225 -87 250q-159 -3 -197 -202l-38 -731h-205l-4 1043l255 3l-1 -57q89 86 217 87q171 -8 239 -108q112 94 211 96q260 12 334 -183q9 -49 17 -129l14 -753h-247l5 684q21 225 -125 250q-137 -10 -160 -181zM700 1432h204v-204h-204
v204z" />
    <glyph glyph-name="uni1E45" unicode="&#x1e45;" horiz-adv-x="1180" 
d="M134 1118l255 3l3 -60q123 89 277 90q195 0 262.5 -93.5t63.5 -206.5l14 -777h-247l5 684q21 225 -139 250q-202 -14 -247 -166l-38 -767h-205zM460 1432h204v-204h-204v204z" />
    <glyph glyph-name="uni1E47" unicode="&#x1e47;" horiz-adv-x="1150" 
d="M134 1118l255 3l3 -60q123 89 277 90q195 0 262.5 -93.5t63.5 -206.5l14 -777h-247l5 684q21 225 -139 250q-202 -14 -247 -166l-38 -767h-205zM444 -141h184v-234h-184v234z" />
    <glyph glyph-name="uni1E5B" unicode="&#x1e5b;" horiz-adv-x="930" 
d="M181 1118l257 3l2 -37q219 94 387 48l-71 -250q-262 194 -328 -40l-37 -767h-206zM374 -141h184v-234h-184v234z" />
    <glyph glyph-name="uni1E63" unicode="&#x1e63;" horiz-adv-x="1050" 
d="M475 1169h56q192 0 365 -125q-174 -166 -180 -166h-5q-122 180 -227 180h-20q-103 -29 -103 -79v-23q4 -120 443 -347q138 -109 138 -254q0 -212 -263 -295q-105 -23 -173 -23q-194 0 -381 124l180 171q123 -185 231 -185h15q160 18 160 130q0 103 -298 272
q-267 164 -267 315v8q0 192 189 269q78 28 140 28zM434 -141h184v-234h-184v234z" />
    <glyph glyph-name="uni1E6D" unicode="&#x1e6d;" horiz-adv-x="800" 
d="M232 1368l261 41l-15 -1328h-198zM137 1025l-14 97l520 4l-4 -128zM274 -141h184v-234h-184v234z" />
    <glyph glyph-name="umacron" unicode="&#x16b;" horiz-adv-x="1220" 
d="M1037 71h-257l-1 60q-125 -91 -279 -93q-195 0 -262 93.5t-64 207.5l-13 781h248l-6 -689q-20 -225 138 -249q203 16 249 168l36 768h207zM200 1303l3 107h797l-12 -107h-788z" />
    <glyph glyph-name="uniFB00" unicode="&#xfb00;" horiz-adv-x="1340" 
d="M719 1541l-19 -225q-132 66 -191 66h-26q-76 0 -76 -107v-143h241l-12 -149l-224 11l50 -919h-274l1 937l-73 2v115l71 1q8 334 280 399q146 26 252 12zM1237 1541l-19 -225q-132 66 -191 66h-26q-76 0 -76 -107v-143h241l-12 -149l-224 11l50 -919h-274l1 937l-73 2v115
l71 1q8 334 280 399q146 26 252 12z" />
    <glyph glyph-name="uniFB01" unicode="&#xfb01;" horiz-adv-x="1080" 
d="M737 1541l-19 -225q-132 66 -191 66h-26q-76 0 -76 -107v-143h241l-12 -149l-224 11l50 -919h-274l1 937l-73 2v115l71 1q8 334 280 399q146 26 252 12zM909 1136l-46 -1059h-205l-3 1059h254z" />
    <glyph glyph-name="uniFB02" unicode="&#xfb02;" horiz-adv-x="1150" 
d="M737 1541l-19 -225q-132 66 -191 66h-26q-76 0 -76 -107v-143h241l-12 -149l-224 11l50 -919h-274l1 937l-73 2v115l71 1q8 334 280 399q146 26 252 12zM923 77h-205l-3 1470h272z" />
    <glyph glyph-name="uniFB03" unicode="&#xfb03;" horiz-adv-x="1600" 
d="M1277 1541l-19 -225q-132 66 -191 66h-26q-76 0 -76 -107v-143h241l-12 -149l-224 11l50 -919h-274l1 937l-73 2v115l71 1q8 334 280 399q146 26 252 12zM1449 1136l-46 -1059h-205l-3 1059h254zM747 1541l-19 -225q-132 66 -191 66h-26q-76 0 -76 -107v-143h241
l-12 -149l-224 11l50 -919h-274l1 937l-73 2v115l71 1q8 334 280 399q146 26 252 12z" />
    <glyph glyph-name="uniFB04" unicode="&#xfb04;" horiz-adv-x="1660" 
d="M1247 1541l-19 -225q-132 66 -191 66h-26q-76 0 -76 -107v-143h241l-12 -149l-224 11l50 -919h-274l1 937l-73 2v115l71 1q8 334 280 399q146 26 252 12zM1433 77h-205l-3 1470h272zM727 1541l-19 -225q-132 66 -191 66h-26q-76 0 -76 -107v-143h241l-12 -149l-224 11
l50 -919h-274l1 937l-73 2v115l71 1q8 334 280 399q146 26 252 12z" />
    <glyph glyph-name="uniFB05" unicode="&#xfb05;" horiz-adv-x="1250" 
d="M707 1541l-19 -225q-132 66 -191 66h-26q-76 0 -76 -107v-143h241l-12 -149l-224 11l50 -919h-274l1 937l-73 2v115l71 1q8 334 280 399q146 26 252 12zM742 1368l261 41l-15 -1328h-198zM647 1025l-14 97l520 4l-4 -128z" />
    <glyph glyph-name="uniFB06" unicode="&#xfb06;" horiz-adv-x="1480" 
d="M425 1169h56q192 0 365 -125q-174 -166 -180 -166h-5q-122 180 -227 180h-20q-103 -29 -103 -79v-23q4 -120 443 -347q138 -109 138 -254q0 -212 -263 -295q-105 -23 -173 -23q-194 0 -381 124l180 171q123 -185 231 -185h15q160 18 160 130q0 103 -298 272
q-267 164 -267 315v8q0 192 189 269q78 28 140 28zM992 1368l259 -50l-13 -1237h-198zM897 1025l-14 97l520 4l-4 -128zM507 1414q57 213 448 170q258 -62 295 -268l-253 -59q-6 281 -134 275q-109 -12 -143.5 -151.5t20.5 -275.5l-30 -21q-254 155 -203 330z" />
    <glyph glyph-name="HDA" horiz-adv-x="2140" 
d="M1257 1157h-297l-246 -1163h-614l334 613h-359l72 245h357q139 6 94 -135l-225 -483h269l196 1169h480q152 5 93 -137l-248 -1032h237l103 317q58 136 161 38l363 -437l-114 -231l-376 451l-51 -376l-589 -2z" />
    <glyph glyph-name="HRA" horiz-adv-x="1850" 
d="M675 1184l72 219h1023l-77 -219h-1018zM750 979h769q140 6 94 -163l-116 -252h128l-61 -191h-160l-152 -379h-196l194 379h-389l57 191h444l113 224h-592l-199 -794h-614l334 613h-359l72 245h357q139 6 94 -135l-225 -483h269z" />
    <glyph glyph-name="uni1BBE_uni1B92" horiz-adv-x="2040" 
d="M230 360l-154 -10l242 436h-212l56 188h223q95 6 41 -101zM848 -353l542 1510h-396l72 246h384q152 5 94 -137l-584 -1856l-596 -3l66 240h418zM715 1166h-533l72 237h520q139 5 94 -132l-443 -1274l-254 -6zM954 360l-154 -10l241 436h-211l56 188h222q96 6 41 -101z
M1762 401h-533l72 221h520q139 5 94 -123l-312 -950l-254 -6z" />
    <glyph glyph-name="uni1BBF_uni1B95" horiz-adv-x="2100" 
d="M625 577l-48 -194h-461l42 194h467zM489 196l-48 -202h-339l43 202h344zM762 945l-48 -183h-584l42 183h590zM1736 885l101 272h-277zM588 -6l474 1163h-943l72 246h930q139 5 94 -137l-361 -1070h593l243 594l-320 357l76 256h451q140 5 95 -137l-413 -1272h-991z" />
    <glyph glyph-name="JYA" horiz-adv-x="2320" 
d="M571 234l46 209q85 165 201 11l299 -422l-146 -153l-264 509l-52 -392l-550 -2l339 1265q23 149 193 144h362l-68 -246h-395l-203 -923h238zM1296 -25l-443 630q-102 142 -116 123q71 181 255 -32l253 -284l186 631h693l-382 -803h454l-73 -246h-451q-140 -5 -95 137
l268 672h-383z" />
    <glyph glyph-name="uni1B80" unicode="&#x1b80;" 
d="M-474 1696q0 -74 -69 -128.5t-169 -54.5q-101 0 -170 54.5t-69 128.5v30q0 74 69 128.5t170 54.5q100 0 169 -54.5t69 -128.5v-30zM-712 1855q-42 0 -68.5 -53t-26.5 -91t26.5 -91.5t68.5 -53.5t69.5 53.5t27.5 91.5t-27.5 91t-69.5 53z" />
    <glyph glyph-name="uni1B81" unicode="&#x1b81;" 
d="M-760 1776l-43 -148l-127 51l144 200q36 64 152 -51l121 -132l42 152l126 -53l-142 -199q-36 -64 -154 51z" />
    <glyph glyph-name="uni1B82" unicode="&#x1b82;" horiz-adv-x="844" 
d="M556 41l-58 -82l-473 956l-10 -28l228 -1zM829 41l-58 -82l-473 956l-10 -28l228 -1z" />
    <glyph glyph-name="uni1B83" unicode="&#x1b83;" horiz-adv-x="1283" 
d="M771 798q228 -23 362.5 -108.5t134.5 -278.5q0 -96 -43.5 -175t-118.5 -135.5t-177 -87t-218 -30.5q-164 0 -292 59.5t-218 171t-138 270t-48 358.5q0 188 87 584l207 -64q-129 -335 -129 -516q-37 -181 5.5 -322t113 -215.5t166 -123.5t196.5 -49q72 0 166.5 47
t113.5 105t19 128q0 144 -88 229.5t-263 85.5l-27 70l349 356h-450l72 246h493q175 5 95 -133z" />
    <glyph glyph-name="uni1B84" unicode="&#x1b84;" horiz-adv-x="1143" 
d="M602 1157l-363 -918h683l53 194h153l-126 -439h-835q-152 -6 -95 136l429 1273h380l-69 -246h-210z" />
    <glyph glyph-name="uni1B85" unicode="&#x1b85;" horiz-adv-x="1361" 
d="M321 237h685l-125 233q-115 167 -85 274.5t216 107.5h334l-68 -245h-341l277 -392l-127 -221h-839q-151 -6 -94 136l347 1027h-486l72 246h534q139 5 94 -137z" />
    <glyph glyph-name="uni1B86" unicode="&#x1b86;" horiz-adv-x="1283" 
d="M879 783l26 31q67 74 142 127t150 77q47 15 70 16l-67 -195q8 -7 3 -4q-45 12 -91 7t-92 -31q-22 -13 -64 -45q112 -34 180 -77q132 -85 132 -278q0 -96 -43.5 -175t-118.5 -135.5t-177 -87t-218 -30.5q-164 0 -292 59.5t-218 171t-138 270t-48 358.5q0 188 87 584
l207 -64q-129 -335 -129 -516q-37 -181 5.5 -322t113 -215.5t166 -123.5t196.5 -49q72 0 166.5 47t113.5 105t19 128q0 144 -88 229.5t-263 85.5l-27 70l349 356h-450l72 246h493q175 5 95 -133l-370 -472q65 -7 108 -15z" />
    <glyph glyph-name="uni1B87" unicode="&#x1b87;" horiz-adv-x="1285" 
d="M20 1147l76 256h451q140 5 95 -137l-347 -1027h325l-15 288q-47 325 198 331h229q238 5 186 -264l-111 -600h-185l185 618h-407l65 -360l-88 -258h-662l325 796zM386 885l101 272h-277z" />
    <glyph glyph-name="uni1B88" unicode="&#x1b88;" horiz-adv-x="1237" 
d="M670 1244q63 78 142.5 117t151 46.5t258.5 -30.5l-8 8l-190 -244q-70 68 -205 36.5t-173 -326.5l209 -12q359 -59 359 -400q-2 -124 -45 -203.5t-111 -142t-143 -86.5t-190 -24q-164 0 -292.5 59.5t-218.5 171t-137.5 271t-61.5 445.5l214 -42q-45 -223 -16 -363.5
t99 -215t144.5 -124t177.5 -49.5q144 5 214.5 93t70.5 187q14 185 -96 279q-87 61 -292 65l-74 65q114 309 213 419z" />
    <glyph glyph-name="uni1B89" unicode="&#x1b89;" horiz-adv-x="1283" 
d="M892 1157h154q175 5 95 -131l-452 -369q310 8 444.5 -77t134.5 -237q0 -149 -118 -243.5t-220.5 -105.5t-218.5 -11q-164 0 -292 59.5t-218 171t-138 270t-48 358.5q0 188 87 584l207 -64q-129 -335 -129 -516q-37 -181 5.5 -322t113 -215.5t166 -123.5t196.5 -49
q72 0 185.5 56t113.5 183q0 79 -123 149t-296 70l-28 69l355 289h-386l71 205h197l-280 229l103 52l193 -220l91 197l278 -15z" />
    <glyph glyph-name="uni1B8A" unicode="&#x1b8a;" horiz-adv-x="1458" 
d="M715 1266l-428 -1272h-198l474 1163h-548l72 246h534q139 5 94 -137zM1398 1266l-429 -1272h-198l474 1163h-465l72 246h452q139 5 94 -137z" />
    <glyph glyph-name="uni1B8B" unicode="&#x1b8b;" horiz-adv-x="1761" 
d="M477 1157l-263 -1163h-199l345 1163h-121l71 246h1296q140 5 109 -138l-287 -1271h-199l345 1163h-502l-262 -1163h-200l346 1163h-479z" />
    <glyph glyph-name="uni1B8C" unicode="&#x1b8c;" horiz-adv-x="1283" 
d="M15 -6l474 1163h-466l73 246h451q140 5 95 -137l-348 -1032h577l188 378h-439l72 246h425q151 5 94 -135l-263 -729h-933z" />
    <glyph glyph-name="uni1B8D" unicode="&#x1b8d;" horiz-adv-x="1105" 
d="M935 239l-275 341l71 174l379 -506l-138 -254h-957l534 1163h-512l72 246h528q140 5 95 -137l-437 -1027h640z" />
    <glyph glyph-name="uni1B8E" unicode="&#x1b8e;" horiz-adv-x="1410" 
d="M1022 355l145 1048h198l-306 -1356q-49 -202 -525 236q-176 -289 -467 -315q-52 807 396 575l250 614h-252h-337l73 246h574q140 5 95 -137l-279 -826q428 -231 435 -85zM175.5 368q-59.5 -157 219.5 20q-160 137 -219.5 -20z" />
    <glyph glyph-name="uni1B8F" unicode="&#x1b8f;" horiz-adv-x="1310" 
d="M647 768q71 181 255 -32l366 -411l-166 -167l-339 487q-102 142 -116 123zM481 234l46 209q85 165 201 11l299 -422l-146 -153l-264 509l-52 -392l-550 -2l339 1265q23 149 193 144h362l-68 -246h-395l-203 -923h238z" />
    <glyph glyph-name="uni1B90" unicode="&#x1b90;" horiz-adv-x="1220" 
d="M700 612l65 -360l-88 -258h-662l474 1163h-466l73 246h451q140 5 95 -137l-347 -1027h325l-15 288q-47 325 198 331h199q238 5 186 -264l-111 -600h-185l185 618h-377z" />
    <glyph glyph-name="uni1B91" unicode="&#x1b91;" horiz-adv-x="1943" 
d="M419 1157h-374l85 246h570l-461 -1164h468l101 312q59 136 161 38l349 -407l387 975h-559l-67 -194h-167l150 440h714q152 5 95 -137l-432 -1346l-569 392l-66 -322l2 4h-639q-152 -6 -95 136z" />
    <glyph glyph-name="uni1B92" unicode="&#x1b92;" horiz-adv-x="1340" 
d="M916 852h261q152 6 94 -136l-191 -722h-146l183 613h-281l-202 -613h-567l321 613h-373l72 245h357q139 6 94 -136l-197 -482h233l333 1169h191z" />
    <glyph glyph-name="uni1B93" unicode="&#x1b93;" horiz-adv-x="1180" 
d="M520 234l103 317q58 136 161 38l363 -437l-114 -231l-376 451l-51 -376l-591 -2l339 1265q23 149 193 144h362l-68 -246h-381l-190 -923h250z" />
    <glyph glyph-name="uni1B94" unicode="&#x1b94;" horiz-adv-x="978" 
d="M37 -6l504 1163h-496l72 246h522q140 5 95 -137l-399 -1032h610l-56 -240h-852z" />
    <glyph glyph-name="uni1B95" unicode="&#x1b95;" horiz-adv-x="1404" 
d="M15 -6l474 1163h-466l73 246h451q140 5 95 -137l-348 -1032h578l305 923h-396l72 246h384q152 5 94 -137l-383 -1272h-933z" />
    <glyph glyph-name="uni1B96" unicode="&#x1b96;" horiz-adv-x="1409" 
d="M15 -6l474 1163h-466l73 246h451q140 5 95 -137l-348 -1032h593l279 1169h198l-416 -1409h-933z" />
    <glyph glyph-name="uni1B97" unicode="&#x1b97;" horiz-adv-x="1380" 
d="M15 -6l434 1409h201l-423 -1169h662l278 1169h198l-416 -1409h-934z" />
    <glyph glyph-name="uni1B98" unicode="&#x1b98;" horiz-adv-x="1943" 
d="M804 -10l2 4h-639q-152 -6 -95 136l429 1273h380l-69 -246h-210l-363 -918h468l101 312q59 136 161 38l349 -407l386 975h-558l-81 -194h-153l150 440h714q152 5 95 -137l-432 -1345l-569 447z" />
    <glyph glyph-name="uni1B99" unicode="&#x1b99;" horiz-adv-x="1384" 
d="M67 -6l321 613h-373l72 245h357q139 6 94 -136l-197 -482h512l305 923h-628l72 246h616q151 5 94 -137l-384 -1272h-861z" />
    <glyph glyph-name="uni1B9A" unicode="&#x1b9a;" horiz-adv-x="1340" 
d="M727 308l-103 -314h-557l321 613h-373l72 245h357q139 6 94 -136l-197 -482h223l333 1169h191l-276 -837l178 -383l73 669h218l-215 -861q-59 -135 -161 -37z" />
    <glyph glyph-name="uni1B9B" unicode="&#x1b9b;" horiz-adv-x="1150" 
d="M590 373h-489l57 191h544l113 224h-782l57 191h769q140 6 94 -163l-116 -252h128l-61 -191h-160l-152 -379h-196zM15 1184l72 219h1023l-77 -219h-1018z" />
    <glyph glyph-name="uni1B9C" unicode="&#x1b9c;" horiz-adv-x="1410" 
d="M651 234h311l209 1169h198l-347 -1409h-655l408 1168h-283l-279 -1168h-198l416 1409h327q221 0 153 -226z" />
    <glyph glyph-name="uni1B9D" unicode="&#x1b9d;" horiz-adv-x="1339" 
d="M440 1257q65 151 210 146h440l-112 -246h-452l-230 -923h631l158 378h-439l72 246h425q151 5 94 -135l-233 -729h-989z" />
    <glyph glyph-name="uni1B9E" unicode="&#x1b9e;" horiz-adv-x="1390" 
d="M337 605h-267l72 246h296l125 306h-548l72 246h534q139 5 94 -137l-140 -415h139l-75 -246h-146l-206 -611h-198zM912 605h-186l72 246h215l124 306h-397l72 246h384q139 5 94 -137l-141 -415h109l-53 -246h-138l-206 -611h-198z" />
    <glyph glyph-name="uni1B9F" unicode="&#x1b9f;" horiz-adv-x="1417" 
d="M425 810l138 347h-548l72 246h1146q139 5 94 -137l-429 -1272h-198l249 611h-456l-206 -611h-198l248 611h-267l58 205h297zM679 1157l-118 -347h475l138 347h-495z" />
    <glyph glyph-name="uni1BA0" unicode="&#x1ba0;" horiz-adv-x="1445" 
d="M1258 1403q152 5 93 -137l-306 -1272h-201l353 1163h-297l-246 -1163h-614l334 613h-359l72 245h357q139 6 94 -135l-225 -483h269l196 1169h480z" />
    <glyph glyph-name="uni1BA1" unicode="&#x1ba1;" horiz-adv-x="547" 
d="M-65 -731h-755l94 276l57 -79h704l361 1626l217 -133l-101 -65l-422 -1491q-28 -139 -155 -134z" />
    <glyph glyph-name="uni1BA1_uni1BA5" 
d="M-213 -247l-160 -324l-112 80l159 176h-365l42 143h347q143 4 89 -75zM-65 -731h-755l94 276l57 -79h704l361 1626l217 -133l-101 -65l-422 -1491q-28 -139 -155 -134z" />
    <glyph glyph-name="uni1BA2" unicode="&#x1ba2;" 
d="M-1283 -518q111 57 260 3q121 -52 237 -140q104 -77 185 -68.5t162 62.5l30 -130q-43 -51 -97 -81q-90 -39 -162 -27.5t-118 61.5q-180 198 -283 244t-206 -96l-105 111z" />
    <glyph glyph-name="uni1BA2_uni1BA5" 
d="M-1283 -518q111 57 260 3q121 -52 237 -140q104 -77 185 -68.5t162 62.5l30 -130q-43 -51 -97 -81q-90 -39 -162 -27.5t-118 61.5q-180 198 -283 244t-206 -96l-105 111zM-558 -217l-160 -324l-112 80l159 176h-365l42 143h347q143 4 89 -75z" />
    <glyph glyph-name="uni1BA3" unicode="&#x1ba3;" 
d="M-968 -134q127 4 78 -79l-93 -191l201 35l-37 -142l-313 19l123 198h-182l-38 -143l-151 -45l121 295q22 55 96 53h195z" />
    <glyph glyph-name="uni1BA3_uni1BA5" 
d="M-1018 -134q127 4 78 -79l-93 -191l201 35l-37 -142l-313 19l123 198h-182l-38 -143l-151 -45l121 295q22 55 96 53h195zM-353 -202l-160 -324l-112 80l159 176h-365l42 143h347q143 4 89 -75z" />
    <glyph glyph-name="uni1BA4" unicode="&#x1ba4;" 
d="M-440 1832l-176 -321h-97l-70 110h111l115 146h-354l41 139h341q142 4 89 -74z" />
    <glyph glyph-name="uni1BA4_uni1B80" 
d="M-590 1832l-176 -321h-97l-70 110h111l115 146h-354l41 139h341q142 4 89 -74zM-124 1696q0 -74 -69 -128.5t-169 -54.5q-101 0 -170 54.5t-69 128.5v30q0 74 69 128.5t170 54.5q100 0 169 -54.5t69 -128.5v-30zM-362 1855q-42 0 -68.5 -53t-26.5 -91t26.5 -91.5
t68.5 -53.5t69.5 53.5t27.5 91.5t-27.5 91t-69.5 53z" />
    <glyph glyph-name="uni1BA4_uni1B81" 
d="M-520 1761l-43 -148l-127 51l144 200q36 64 152 -51l121 -132l42 152l126 -53l-142 -199q-36 -64 -154 51zM-680 1832l-176 -321h-97l-70 110h111l115 146h-354l41 139h341q142 4 89 -74z" />
    <glyph glyph-name="uni1BA5" unicode="&#x1ba5;" 
d="M-741 -217l-160 -324l-112 80l159 176h-365l42 143h347q143 4 89 -75z" />
    <glyph glyph-name="uni1BA6" unicode="&#x1ba6;" horiz-adv-x="604" 
d="M416 657h-295l42 158h357q77 0 52 -86l-165 -291h153l-58 -134h-165l-85 -135h339l-41 -155h-378q-97 -4 -51 83z" />
    <glyph glyph-name="uni1BA7" unicode="&#x1ba7;" horiz-adv-x="563" 
d="M186 172h306l-43 -158h-356q-78 0 -52 86l154 291h-143l59 133h156l78 135h-323l41 156h378q96 4 50 -83z" />
    <glyph glyph-name="uni1BA8" unicode="&#x1ba8;" horiz-adv-x="20" 
d="M-669 1668l99 227l190 -15l-195 -277q-56 -93 -120 -34l-272 292l119 63z" />
    <glyph glyph-name="uni1BA8_uni1B80" 
d="M-940 1668l99 227l190 -15l-195 -277q-56 -93 -120 -34l-272 292l119 63zM-189 1696q0 -74 -69 -128.5t-169 -54.5q-101 0 -170 54.5t-69 128.5v30q0 74 69 128.5t170 54.5q100 0 169 -54.5t69 -128.5v-30zM-427 1855q-42 0 -68.5 -53t-26.5 -91t26.5 -91.5t68.5 -53.5
t69.5 53.5t27.5 91.5t-27.5 91t-69.5 53z" />
    <glyph glyph-name="uni1BA8_uni1B81" 
d="M-969 1668l99 227l190 -15l-195 -277q-56 -93 -120 -34l-272 292l119 63zM-565 1776l-43 -148l-127 51l144 200q36 64 152 -51l121 -132l42 152l126 -53l-142 -199q-36 -64 -154 51z" />
    <glyph glyph-name="uni1BA9" unicode="&#x1ba9;" horiz-adv-x="20" 
d="M-754 1792l25 121l125 9l-108 -189l44 -71l99 230l191 -12l-195 -277q-56 -73 -120 -34l-272 293l118 60z" />
    <glyph glyph-name="uni1BA9_uni1B80" 
d="M-1039 1777l25 121l125 9l-108 -189l44 -71l99 230l191 -12l-195 -277q-56 -73 -120 -34l-272 293l118 60zM-159 1681q0 -74 -69 -128.5t-169 -54.5q-101 0 -170 54.5t-69 128.5v30q0 74 69 128.5t170 54.5q100 0 169 -54.5t69 -128.5v-30zM-397 1840q-42 0 -68.5 -53
t-26.5 -91t26.5 -91.5t68.5 -53.5t69.5 53.5t27.5 91.5t-27.5 91t-69.5 53z" />
    <glyph glyph-name="uni1BA9_uni1B81" 
d="M-1025 1792l25 121l125 9l-108 -189l44 -71l99 230l191 -12l-195 -277q-56 -73 -120 -34l-272 293l118 60zM-535 1776l-43 -148l-127 51l144 200q36 64 152 -51l121 -132l42 152l126 -53l-142 -199q-36 -64 -154 51z" />
    <glyph glyph-name="uni1BAA" unicode="&#x1baa;" horiz-adv-x="735" 
d="M284 -329l-124 -195q-165 313 51 507q239 187 230 287q0 133 -61.5 168.5t-210.5 -1.5l-31 121l244 249h-285l48 158h345q115 3 63 -83l-266 -326q215 16 293.5 -74t53.5 -206q1 -99 -177.5 -214.5t-209 -198t36.5 -192.5z" />
    <glyph glyph-name="uni1BAB" unicode="&#x1bab;" 
d="M-904 -40l-2 -189h185l2 -43h-187v-167h-50v164l-216 1v45h216v191z" />
    <glyph glyph-name="uni1BAC" unicode="&#x1bac;" horiz-adv-x="16" 
d="M-1370 -118l41 -98q-200 -212 162 -205q191 4 346.5 64t245.5 202l71 -65q-147 -169 -391 -271q-163 -73 -327 -72q-175 7 -231 91q-79 130 83 354z" />
    <glyph glyph-name="uni1BAC_uni1BA5" 
d="M-363 -412l-160 -324l-112 80l159 176h-365l42 143h347q143 4 89 -75zM-1564 -43l41 -98q-200 -212 162 -205q191 4 346.5 64t245.5 202l71 -65q-147 -169 -391 -271q-163 -73 -327 -72q-175 7 -231 91q-79 130 83 354z" />
    <glyph glyph-name="uni1BAD" unicode="&#x1bad;" horiz-adv-x="29" 
d="M-1179 -508v14l-89 71l149 150h-191l39 123h163q119 3 73 -75l-90 -183l193 34l-33 -135zM-714 -153v-12l89 -71l-146 -150h191l-41 -123h-162q-120 -4 -77 73l93 185l-192 -34l34 135z" />
    <glyph glyph-name="uni1BAD_uni1BA5" 
d="M-363 -232l-160 -324l-112 80l159 176h-365l42 143h347q143 4 89 -75zM-1450 -523v14l-89 71l149 150h-191l39 123h163q119 3 73 -75l-90 -183l193 34l-33 -135zM-985 -168v-12l89 -71l-146 -150h191l-41 -123h-162q-120 -4 -77 73l93 185l-192 -34l34 135z" />
    <glyph glyph-name="uni1BAE" unicode="&#x1bae;" horiz-adv-x="2030" 
d="M900 1403q139 5 94 -137l-141 -414h218q139 6 94 -135l-225 -483h269l167 1169h449q152 5 93 -137l-326 -1272h-200l372 1163h-267l-216 -1163h-614l334 613h-229l-207 -613h-198l474 1163h-217l-392 -1163h-198l474 1163h-493l72 246h813z" />
    <glyph glyph-name="uni1BAF" unicode="&#x1baf;" horiz-adv-x="1870" 
d="M599 1157l-64 -306h203l84 306h-223zM793 607l-186 -613h-198l228 611h-184l-166 -611h-198l208 611h-227l72 246h256l85 306h-468l72 246h794q139 5 94 -137l-100 -414h199q127 6 93 -136l-187 -482h182l243 1169h191l-206 -836l151 -394l65 679h218l-205 -861
q-59 -135 -160 -38l-151 362l-86 -321h-519l314 613h-224z" />
    <glyph glyph-name="uni1BB0" unicode="&#x1bb0;" horiz-adv-x="1259" 
d="M1092.5 1222.5q151.5 -218.5 122.5 -528.5q-30 -311 -222.5 -530t-434.5 -219q-240 0 -391.5 218t-122.5 528q30 312 222.5 531t433.5 219t392.5 -218.5zM679 1212q-437 -24 -489 -521q8 -464 403 -506q447 18 501 497q21 475 -415 530z" />
    <glyph glyph-name="uni1BB1" unicode="&#x1bb1;" horiz-adv-x="1283" 
d="M606 1157l-299 -923h564l188 378h-439l72 246h425q151 5 94 -135l-263 -729h-933l446 1163h-225l-63 -194h-153l147 440h890l-127 -440h-153l57 194h-228z" />
    <glyph glyph-name="uni1BB2" unicode="&#x1bb2;" horiz-adv-x="1066" 
d="M431 607l-124 -373l534 3l25 273l185 -2l-94 -514h-942l446 1163h-225l-63 -194h-153l147 440h528l-183 -551h298l-69 -245h-310z" />
    <glyph glyph-name="uni1BB3" unicode="&#x1bb3;" horiz-adv-x="1234" 
d="M15 -6l446 1163h-225l-63 -194h-153l147 440h528l-388 -1169l572 3l-125 233q-115 167 -85 274.5t216 107.5h334l-68 -245h-341l277 -392l-127 -221h-945z" />
    <glyph glyph-name="uni1BB4" unicode="&#x1bb4;" horiz-adv-x="1064" 
d="M623 604l-197 -610h-225l235 610h-171l-34 -137h-152l119 385h332l117 305h-416l-63 -194h-153l146 440h720l-178 -551h145l48 151h153l-133 -399h-293z" />
    <glyph glyph-name="uni1BB5" unicode="&#x1bb5;" horiz-adv-x="1346" 
d="M15 -6l446 1163h-225l-63 -194h-153l147 440h528l-388 -1169l590 3l-22 1066q6 100 103 100h353l-68 -246h-262l89 -938l-130 -225h-945z" />
    <glyph glyph-name="uni1BB6" unicode="&#x1bb6;" horiz-adv-x="1236" 
d="M15 -6l535 1409h508l-127 -440h-153l58 194h-228l-299 -923l572 3l-181 326q-60 100 -30.5 194.5t216.5 94.5h335l-69 -245h-341l277 -392l-127 -221h-946z" />
    <glyph glyph-name="uni1BB7" unicode="&#x1bb7;" horiz-adv-x="1674" 
d="M20 -6l41 179h157l308 1230h405q221 0 160 -226l-306 -943h298l220 1169h349l-37 -183h-158l-295 -1226h-654l446 1168h-363l-214 -1168h-357z" />
    <glyph glyph-name="uni1BB8" unicode="&#x1bb8;" horiz-adv-x="1593" 
d="M393 390q-161 136 -206.5 -37.5t206.5 37.5zM1578 1403l-37 -183h-131l-341 -1173q-49 -202 -535 236q-176 -289 -467 -315q-52 807 396 575l250 614h-417l-63 -194h-152l146 440h544q140 5 95 -137l-279 -826q438 -231 445 -85l235 1048h311z" />
    <glyph glyph-name="uni1BB9" unicode="&#x1bb9;" horiz-adv-x="1234" 
d="M15 -6l446 1163h-225l-63 -194h-153l147 440h890l-127 -440h-153l57 194h-228l-299 -923l572 3l-125 233q-115 167 -85 274.5t216 107.5h334l-68 -245h-341l277 -392l-127 -221h-945z" />
    <glyph glyph-name="uni1BBA" unicode="&#x1bba;" horiz-adv-x="872" 
d="M433 605h-266l72 246h296l124 306h-547l72 246h534q139 5 94 -137l-598 -1791h-199z" />
    <glyph glyph-name="uni1BBB" unicode="&#x1bbb;" horiz-adv-x="1274" 
d="M143 360l299 797h-423l72 246h411q140 5 93 -137l-184 -666h482l169 557h-312l72 246h288q152 5 93 -137l-182 -906h-878zM1010 212l-47 -218h-951l90 218h908z" />
    <glyph glyph-name="uni1BBC" unicode="&#x1bbc;" horiz-adv-x="1952" 
d="M517 234l103 317q59 136 161 38l449 -384l-113 -230l-463 395l-51 -374l-591 -2l353 1265q23 149 193 144h335l-68 -246h-381l-204 -923h277zM1688 -350l25 192l174 -142l-139 -332q-80 -187 -440 237q-178 -291 -468 -317q-52 807 396 575l506 1294h-588l72 246h575
q139 5 94 -137l-535 -1504q349 -241 328 -112zM948.5 -312q-59.5 -157 218.5 20q-159 137 -218.5 -20z" />
    <glyph glyph-name="uni1BBD" unicode="&#x1bbd;" horiz-adv-x="1910" 
d="M902 234l308 1024q45 150 191 145h481l6 9l-175 -684q-3 -97 -106 -91h-215l67 226h182l33 294h-366l-204 -924h498l-94 -239h-1476l95 239h330l350 924h-362l-157 -294h170l-78 -226h-222q-96 -4 -41 84l261 682v0h515q140 5 95 -137l-322 -1032h236z" />
    <glyph glyph-name="uni1BBE" unicode="&#x1bbe;" horiz-adv-x="1614" 
d="M281 488l-154 -8l242 359h-212l56 155h223q95 5 41 -83zM339 233l376 924h-533l72 246h520q139 5 94 -137l-348 -1032h565l305 923h-396l72 246h384q152 5 94 -137l-311 -1033h224l-94 -239h-1351l94 239h233zM1005 488l-154 -8l241 359h-211l56 155h222q96 5 41 -83z
" />
    <glyph glyph-name="uni1BBF" unicode="&#x1bbf;" horiz-adv-x="1182" 
d="M1125 1266l-429 -1272h-198l474 1163h-943l72 246h930q139 5 94 -137zM535 567l-48 -184h-461l42 184h467zM399 177l-48 -183h-339l43 183h344zM672 945l-48 -183h-584l42 183h590z" />
    <glyph glyph-name="uni1CC0" unicode="&#x1cc0;" horiz-adv-x="2033" 
d="M1008 828q-56 0 -90.5 -47t-33 -110t39 -108.5t92.5 -45.5q56 1 91.5 47.5t34 110t-40.5 109t-93 44.5zM1270 675q2 -109 -72 -178t-179 -71q-107 -1 -183.5 67.5t-79.5 178.5q-2 115 72 184.5t182 71.5q104 1 181 -68t79 -185zM1001 1198q-165 -3 -275 -155
t-107.5 -370.5t117.5 -368t278 -148.5q167 3 281.5 155t112 370.5t-122 368t-284.5 148.5zM1461 1131q162 -145 195 -414q27 51 38 66l167 201l14 -203l-136 -101l159 -170l-40 -124l-200 283q-16 -281 -182 -438q-161 -149 -396 -173l1 -37q19 -10 32 -22l191 -187
l-182 -15l-97 149l-155 -171l-119 44l240 203l-1 34q-245 14 -417 167q-167 147 -195 419q-28 -52 -38 -65l-168 -201l-14 202l136 101l-159 171l40 124l202 -284q19 280 181 433q160 150 395 172l-3 42q-16 11 -30 23l-191 187l184 15l97 -148l156 170l117 -43l-241 -205
v-38q247 -14 419 -167z" />
    <glyph glyph-name="uni1CC1" unicode="&#x1cc1;" horiz-adv-x="1555" 
d="M771 766l263 313q-114 120 -254 119q-153 -1 -272 -142zM718 710q-83 82 -295 192q-38 -114 -37 -231q2 -97 32 -199zM778 639l-280 -318q7 -12 10 -15q121 -151 287 -149q157 2 273 152zM847 698q99 -115 304 -216q26 100 26 200q-3 124 -47 243zM318.5 1123
q183.5 172 447.5 175q266 2 456 -166.5t194 -455.5q4 -273 -179.5 -445t-448.5 -175q-265 -2 -455 166.5t-194 444.5q-4 284 179.5 456z" />
    <glyph glyph-name="uni1CC2" unicode="&#x1cc2;" horiz-adv-x="1555" 
d="M512 1011q117 -152 279 -150q161 2 267 157q4 2 8 12q-7 14 -11 18q-114 151 -279 150q-163 -3 -283 -157q11 -21 19 -30zM1069 345q-111 150 -270 148q-161 -1 -277 -155q-7 -11 -20 -29q126 -154 289 -152q165 2 275 155q6 5 13 19q-7 9 -10 14zM785 593
q195 1 366 -105q23 101 22 194q-2 93 -29 190q-164 -110 -360 -111q-202 -3 -376 113q-27 -102 -24 -203q0 -97 31 -198q167 117 370 120zM318.5 1123q183.5 172 447.5 175q266 2 456 -166.5t194 -455.5q4 -273 -179.5 -445t-448.5 -175q-265 -2 -455 166.5t-194 444.5
q-4 284 179.5 456z" />
    <glyph glyph-name="uni1CC3" unicode="&#x1cc3;" horiz-adv-x="1555" 
d="M1416 676q4 -273 -179.5 -445t-448.5 -175q-265 -2 -455 166.5t-194 444.5q-4 284 179.5 456t448.5 175q265 2 455 -166.5t194 -455.5zM760 1198q-148 -3 -245 -155t-94.5 -370t105 -368t247.5 -149q150 3 251 156t98.5 370.5t-109 367t-253.5 148.5z" />
    <glyph glyph-name="uni1CC4" unicode="&#x1cc4;" horiz-adv-x="2550" 
d="M540 234l103 317q58 136 161 38l449 -384l-113 -230l-463 395l-51 -374l-591 -2l352 1265q24 149 194 144h254l-56 -246h-312l-204 -923h277zM1697 -350l39 193l174 -143l-139 -332q-80 -187 -440 237q-178 -291 -468 -317q-52 807 396 575l506 1294h-400l63 246h396
q139 5 94 -137l-535 -1504q336 -241 314 -112zM971 -312q-59 -157 219 20q-160 137 -219 -20zM2187 590l-46 -184h-353l41 184h358zM2487 1403l-46 -183h-380l41 183h385zM2037 173l-47 -183h-338l41 183h344zM2337 996l-46 -183h-366l41 183h371zM1469 997l-47 -184h-762
l41 184h768zM1360 579l-47 -183h-97l-179 183h323zM1265 1403l-37 -183h-294l41 183h290z" />
    <glyph glyph-name="uni1CC5" unicode="&#x1cc5;" horiz-adv-x="1340" 
d="M754 802l47 184h393l-41 -184h-399zM508 -10l47 183h502l-41 -183h-508zM891 1220l46 183h339l-41 -183h-344zM631 396l47 183h448l-41 -183h-454zM685 1266l-429 -1272h-198l474 1163h-507l73 246h492q140 5 95 -137z" />
    <glyph glyph-name="uni1CC6" unicode="&#x1cc6;" horiz-adv-x="2120" 
d="M540 234l103 317q58 136 161 38l382 -384l-50 -228l-459 393l-51 -374l-591 -2l352 1265q24 149 194 144h254l-56 -246h-312l-204 -923h277zM1805 590l-47 -184h-557l41 184h563zM2078 1403l-47 -183h-1048l41 183h1054zM1654 173l-46 -183h-339l41 183h344zM1941 996
l-46 -183h-817l41 183h822z" />
    <glyph glyph-name="uni1CC7" unicode="&#x1cc7;" horiz-adv-x="2900" 
d="M2354 802l47 184h394l-43 -184h-398zM2108 -10l48 183h502l-42 -183h-508zM2490 1220l48 183h338l-42 -183h-344zM2231 396l47 183h448l-42 -183h-453zM1304 -10l1 4h-639q-152 -6 -100 136l377 1273h380l-58 -246h-210l-326 -918h468l87 313q55 135 160 37l365 -407
l347 975h-557l-73 -194h-154l132 440h714q152 5 100 -137l-378 -1345l-587 447zM528 590l-48 -184h-393l42 184h399zM774 1403l-48 -183h-502l42 183h508zM392 173l-48 -183h-339l42 183h345zM651 996l-48 -183h-448l43 183h453z" />
    <glyph glyph-name="quotedblbase" unicode="&#x201e;" horiz-adv-x="781" 
d="M599 337l63 -153q-75 -38 -89 -75h163l-49 -232h-242v232q-7 103 154 228zM599 337l63 -153q-75 -38 -89 -75h163l-49 -232h-242v232q-7 103 154 228zM206 348l63 -153q-75 -38 -89 -75h163l-49 -232h-242v232q-7 103 154 228z" />
    <glyph glyph-name="dagger" unicode="&#x2020;" horiz-adv-x="1154" 
d="M479 576l-12 825l-421 -138l-1 257l419 2l-4 286h234l-11 -286l426 -2v-257l-432 141l-34 -850h-3l19 -1231h-233l51 1253h2z" />
    <glyph glyph-name="daggerdbl" unicode="&#x2021;" horiz-adv-x="1188" 
d="M513 576l-12 825l-420 -138l-2 257l419 2l-4 286h234l-11 -286l426 -2v-257l-432 141l-34 -850h-3l13 -824l420 138l2 -257l-420 -3l5 -285h-234l11 285l-426 3v257l432 -141l34 849h2z" />
    <glyph glyph-name="bullet" unicode="&#x2022;" horiz-adv-x="647" 
d="M520 1218.5q82 -77.5 82 -186.5t-82 -187t-196 -78q-116 0 -197.5 78t-81.5 187t81.5 186.5t197.5 77.5q114 0 196 -77.5z" />
    <glyph glyph-name="ellipsis" unicode="&#x2026;" horiz-adv-x="1746" 
d="M94 304h242v-232h-291zM777 304h242v-232h-291zM1460 304h241v-232h-291z" />
    <glyph glyph-name="perthousand" unicode="&#x2030;" horiz-adv-x="1389" 
d="M45 -241l1057 1979h241l-1128 -1979h-170z" />
    <glyph glyph-name="guilsinglleft" unicode="&#x2039;" 
d="M419 623l754 6l-22 -274l-931 12q-160 -12 -164 129l862 872l196 -108z" />
    <glyph glyph-name="guilsinglright" unicode="&#x203a;" horiz-adv-x="1207" 
d="M105 1260l195 108l862 -872q-3 -141 -164 -129l-931 -12l-22 274l755 -6z" />
    <glyph glyph-name="fraction" unicode="&#x2044;" horiz-adv-x="1389" 
d="M45 -241l1057 1979h241l-1128 -1979h-170z" />
    <glyph glyph-name="Euro" unicode="&#x20ac;" horiz-adv-x="1186" 
d="M713 1514h44q177 0 366 -143v-6l-179 -180q-120 176 -244 176h-18q-195 -2 -205 -461q0 -417 103.5 -570.5t228.5 -142.5q109 0 209 134l123 -68q-172 -196 -411 -196q-234 10 -366 223t-127 504q2 390 155.5 562t320.5 168zM45 677h885v-95h-885v95zM45 950h885v-95
h-885v95z" />
    <glyph glyph-name="uni2116" unicode="&#x2116;" horiz-adv-x="1241" 
d="M45 1492l7 204h1144l-20 -204h-1131z" />
    <glyph glyph-name="trademark" unicode="&#x2122;" horiz-adv-x="1135" 
d="M70 1962h452l-22 -71l-166 10l14 -507h-133l15 510l-185 -13v1zM485 1962h138l184 -365l172 365h111v-568h-122l29 402l-187 -365h-39l-196 372l11 -409h-101v568z" />
    <glyph glyph-name="Delta" unicode="&#x2206;" horiz-adv-x="2277" 
d="M45 605l12 203h2175l-39 -203h-2148z" />
    <glyph glyph-name="minus" unicode="&#x2212;" horiz-adv-x="857" 
d="M45 605l4 203h763l-13 -203h-754z" />
    <glyph glyph-name="uni25CC" unicode="&#x25cc;" horiz-adv-x="1383" 
d="M1251 1019l-129 -92q-63 102 -164 165l91 126q124 -78 202 -199zM833 1313l-26 -152q-56 13 -115 13q-60 0 -116 -13l-27 152q74 17 142 17q71 0 142 -17zM1338 683q0 -70 -16 -142l-153 26q13 56 13 114q0 62 -13 118l153 26q16 -73 16 -142zM1251 347
q-80 -122 -202 -201l-91 127q101 63 164 165zM425 1092q-101 -63 -163 -165l-130 92q78 121 204 199zM214 567l-154 -26q-15 68 -15 142q0 73 15 142l154 -26q-13 -56 -13 -118q0 -58 13 -114zM833 52q-71 -17 -142 -17q-68 0 -142 17l27 153q56 -14 116 -14q59 0 115 14z
M425 273l-89 -127q-124 79 -204 201l130 91q62 -102 163 -165z" />
    <glyph glyph-name="uni25FB" unicode="&#x25fb;" horiz-adv-x="916" 
d="M45 515v804h826v-804h-826zM800 586v663h-683v-663h683z" />
    <glyph glyph-name="uni25FC" unicode="&#x25fc;" horiz-adv-x="916" 
d="M45 515v804h826v-804h-826z" />
    <glyph glyph-name="uni25FD" unicode="&#x25fd;" horiz-adv-x="634" 
d="M45 639v528h543v-528h-543zM537 689v428h-440v-428h440z" />
    <glyph glyph-name="uni25FE" unicode="&#x25fe;" horiz-adv-x="634" 
d="M45 639v528h543v-528h-543z" />
    <glyph glyph-name="uniA980" unicode="&#xa980;" 
d="M-805 2090q213 -128 213 -245q62 16 137 98l65 -60q-159 -186 -446.5 -184t-405.5 135l117 121q68 -89 136 -110q22 122 184 245zM-897 1817q110 -16 166 2q18 50 -101 136q-65 -45 -65 -138z" />
    <glyph glyph-name="uniA981" unicode="&#xa981;" 
d="M-656 1970q81 -52 81 -101q-180 -168 -276 -168q-49 0 -149 108l128 154q17 0 148 -121q44 63 68 128z" />
    <glyph glyph-name="uniA982" unicode="&#xa982;" 
d="M-865 1470q199 249 417 691l116 -22l-448 -686z" />
    <glyph glyph-name="uniA983" unicode="&#xa983;" horiz-adv-x="700" 
d="M322 1382h16q134 0 257 -234q12 -42 12 -83v-3q0 -185 -203 -442v-4q382 -149 382 -545v-40q0 -350 -306 -947l-8 -4h-2q0 7 -58 83q146 295 224 549q44 177 44 299q0 304 -235 399q-131 43 -195 43q-62 81 -62 92q176 157 249 267q48 77 48 92q-80 0 -192 110
q-113 140 -113 226q0 46 41 94q46 48 101 48zM289 1165q44 -99 152 -167q38 -11 72 -15q4 -8 4 -12h4q17 57 17 83q-37 142 -101 142q0 8 -66 15q-82 -11 -82 -46z" />
    <glyph glyph-name="uniA984" unicode="&#xa984;" horiz-adv-x="2600" 
d="M815 1795q8 -21 25 -137q-190 -88 -350 -245q-194 -225 -232 -450q-8 -40 -8 -80v-42q0 -198 162 -363q93 -68 208 -68q248 28 248 237q0 134 -114 182q-89 18 -89 27l-33 63l8 4h8q144 0 171 64q25 45 25 98v59q0 142 -140 142q-43 -3 -133 -98q-65 72 -65 83
q86 94 223 94q154 0 277 -165q17 -30 25 -91q0 -148 -115 -193l-52 -35v-4q198 -65 198 -127q4 -21 4 -40v-55q0 -241 -276 -327q-80 -17 -137 -17h-17q-266 0 -403 273q-53 129 -53 268q0 474 505 857q93 67 130 86zM1783 1365q117 0 206 -192q4 -22 4 -37v-437
q150 -45 302 -143q146 -127 146 -174h-94q-105 0 -202 -11l-4 7q9 0 16 32v12q0 78 -164 177v-284l-4 -8q-173 82 -179 96v267q0 11 -101 29v-292q0 -88 -133 -100h-5q-39 0 -289 103q-57 16 -97 16q-70 0 -90 -83q0 -4 -4 -4q-52 35 -52 39q25 25 105 175q3 0 29 23h8
q95 0 308 -158q40 -23 78 -23q63 0 77 114v201q-64 8 -130 8h-20q-60 0 -208 -35q-52 90 -52 110q104 62 163 165h4q165 -35 170 -35v-4q-49 -44 -244 -138v-4h41q126 0 272 -7q0 -4 4 -4v422q0 177 139 177zM1709 777l4 -19l97 -13v439q-4 88 -23 95h-20q-58 0 -58 -123
v-379z" />
    <glyph glyph-name="uniA984.conj" 
d="M-330 192q117 0 206 -154q4 -17 4 -29v-350q150 -36 302 -114l-138 -107q0 62 -164 141v-227l-4 -6q-173 65 -179 76v214q0 9 -101 23v-233q0 -71 -133 -80h-5q-39 0 -289 82q-57 13 -97 13q-70 0 -90 -67q0 -3 -4 -3q-52 28 -52 31q25 20 105 140q3 0 29 19h8
q95 0 308 -127q40 -18 78 -18q63 0 77 91v161q-64 6 -130 6h-20q-60 0 -208 -28q-52 72 -52 88q104 50 163 132h4q165 -28 170 -28v-3q-49 -35 -244 -110v-3h41q126 0 272 -6q0 -3 4 -3v337q0 142 139 142zM-404 -278l4 -16l97 -10v351q-4 71 -23 76h-20q-58 0 -58 -98v-303
zM-1316 502l24 -108q-153 -51 -312 -164q-151 -120 -216 -250q-66 -126 -66 -228q0 -171 171 -306q101 -50 195 -50q253 21 253 189q0 109 -105 145q-29 9 -90 16q-37 53 -37 60q139 0 179 41q32 40 32 120q0 108 -93 131h-40q-52 0 -142 -80l-66 66q87 75 220 75h20
q145 0 268 -138q16 -36 16 -63v-19q0 -109 -150 -155q0 -6 -20 -9v-3q207 -51 207 -108q0 -2 4 -41q0 -174 -134 -237q-128 -70 -285 -70q-318 0 -442 275q-25 79 -25 155v9q0 404 574 721q42 26 60 26z" />
    <glyph glyph-name="uniA985" unicode="&#xa985;" horiz-adv-x="1920" 
d="M878 309q1 1 1 2h-138q-164 0 -203 75q-25 44 -25 107v79q0 227 -4 647q-8 28 -31 28q-84 0 -183 -205q-29 -71 -37 -165q0 -171 126 -349q32 -21 32 -27v-8q-90 -142 -94 -142q-42 37 -101 213q-41 162 -41 277v46q0 204 220 424q79 63 121 63q99 0 167 -138l4 -21
q4 -573 4 -785q0 -23 45 -27h362q-157 97 -203 134q-48 51 -48 75q151 27 175 27v-4l-4 -40q0 -94 234 -192q18 0 70 -84q4 0 4 -4l-8 -4h-423v-2h-22zM1072 1378q57 0 142 -146q112 133 187 133q75 -17 154 -121q17 -34 17 -108v-821l-4 -8q-175 83 -179 92v4q0 224 -4 816
q0 29 -21 36q-50 -4 -210 -201h-8q-53 132 -131 205l-8 4h-13q-58 0 -210 -229h-4q-8 60 -8 87q162 257 300 257zM779 289v-2l102 -31v-4q-44 -48 -193 -138v-4h7q383 0 468 -122q62 -61 91 -218q-4 0 -4 -3l-22 3h-17q-133 -7 -169 -7q19 57 19 102q0 186 -263 186
q-48 0 -153 -36q-7 0 -23 103q125 114 139 171h18z" />
    <glyph glyph-name="uniA985.conj" 
d="M-942 -653q1 1 1 2h-138q-164 0 -203 60q-25 35 -25 85v64q0 181 -4 517q-8 23 -31 23q-84 0 -183 -164q-29 -57 -37 -132q0 -137 126 -280q32 -16 32 -21v-7q-90 -113 -94 -113q-42 29 -101 170q-41 130 -41 222v37q0 163 220 339q79 50 121 50q99 0 167 -110l4 -17
q4 -458 4 -628q0 -18 45 -22h362q-157 78 -203 108q-48 40 -48 60q151 21 175 21v-3l-4 -32q0 -75 234 -154q18 0 70 -67q4 0 4 -3l-8 -3h-423v-2h-22zM-748 202q57 0 142 -116q112 106 187 106q75 -14 154 -97q17 -27 17 -86v-657l-4 -6q-175 66 -179 73v3q0 180 -4 653
q0 23 -21 29q-50 -3 -210 -161h-8q-53 106 -131 164l-8 3h-13q-58 0 -210 -183h-4q-8 48 -8 70q162 205 300 205zM-1041 -669v-1l102 -25v-3q-44 -39 -193 -111v-3h7q383 0 468 -98q62 -48 91 -174q-4 0 -4 -2l-22 2h-17q-133 -6 -169 -6q19 46 19 82q0 149 -263 149
q-48 0 -153 -29q-7 0 -23 82q125 92 139 137h18z" />
    <glyph glyph-name="uniA986" unicode="&#xa986;" horiz-adv-x="2440" 
d="M1044 1378q63 0 145 -146q117 133 185 133q54 0 153 -114q20 -36 18 -103l-11 -687q-2 -71 30 -71q95 0 97 84q0 27 8 734q1 62 -79 110q22 47 29 47h213q109 0 196 -177l-6 -877q-4 0 -4 -4q-152 73 -173 92q3 688 5 797q1 51 -98 75l-17 -12q4 -100 -4 -766
q-3 -186 -175 -186h-8q-106 0 -193 186q0 9 -4 16q1 283 4 430l5 280q0 30 -20 36q-47 0 -215 -201h-8q-90 209 -147 209q-60 0 -216 -229h-4q-6 66 -6 87q168 257 300 257zM878 309q1 1 1 2h-138q-164 0 -203 75q-25 44 -25 107v79q0 227 -4 647q-8 28 -31 28
q-84 0 -183 -205q-29 -71 -37 -165q0 -171 126 -349q32 -21 32 -27v-8q-90 -142 -94 -142q-42 37 -101 213q-41 162 -41 277v46q0 204 220 424q79 63 121 63q99 0 167 -138l4 -21q4 -573 4 -785q0 -23 45 -27h362q-157 97 -203 134q-48 51 -48 75q151 27 175 27v-4l-4 -40
q0 -94 234 -192q18 0 70 -84q4 0 4 -4l-8 -4h-423v-2h-22zM1000 309v-2l127 -31v-4q-55 -48 -241 -138v-4h9q479 0 585 -122q77 -61 114 -218q-5 0 -5 -3l-28 3h-21q-166 -7 -211 -7q24 57 24 102q0 186 -329 186q-60 0 -191 -36q-9 0 -29 103q156 114 174 171h22z" />
    <glyph glyph-name="uniA986.conj" 
d="M-1096 202q63 0 145 -116q117 106 185 106q54 0 153 -91q20 -29 18 -83l-11 -549q-2 -57 30 -57q95 0 97 67q0 22 8 587q1 50 -79 88q22 38 29 38h213q109 0 196 -142l-6 -701q-4 0 -4 -3q-152 58 -173 73q3 551 5 638q1 41 -98 60l-17 -10q4 -80 -4 -613
q-3 -148 -175 -148h-8q-106 0 -193 148q0 8 -4 13q1 227 4 344l5 224q0 24 -20 29q-47 0 -215 -161h-8q-90 167 -147 167q-60 0 -216 -183h-4q-6 53 -6 70q168 205 300 205zM-1262 -653q1 1 1 2h-138q-164 0 -203 60q-25 35 -25 85v64q0 181 -4 517q-8 23 -31 23
q-84 0 -183 -164q-29 -57 -37 -132q0 -137 126 -280q32 -16 32 -21v-7q-90 -113 -94 -113q-42 29 -101 170q-41 130 -41 222v37q0 163 220 339q79 50 121 50q99 0 167 -110l4 -17q4 -458 4 -628q0 -18 45 -22h362q-157 78 -203 108q-48 40 -48 60q151 21 175 21v-3l-4 -32
q0 -75 234 -154q18 0 70 -67q4 0 4 -3l-8 -3h-423v-2h-22zM-1140 -653v-1l127 -25v-3q-55 -39 -241 -111v-3h9q479 0 585 -98q77 -48 114 -174q-5 0 -5 -2l-28 2h-21q-166 -6 -211 -6q24 46 24 82q0 149 -329 149q-60 0 -191 -29q-9 0 -29 82q156 92 174 137h22z" />
    <glyph glyph-name="uniA987" unicode="&#xa987;" horiz-adv-x="2440" 
d="M878 309q1 1 1 2h-138q-164 0 -203 75q-25 44 -25 107v79q0 227 -4 647q-8 28 -31 28q-84 0 -183 -205q-29 -71 -37 -165q0 -171 126 -349q32 -21 32 -27v-8q-90 -142 -94 -142q-42 37 -101 213q-41 162 -41 277v46q0 204 220 424q79 63 121 63q99 0 167 -138l4 -21
q4 -573 4 -785q0 -23 45 -27h362q-157 97 -203 134q-48 51 -48 75q151 27 175 27v-4l-4 -40q0 -94 234 -192q18 0 70 -84q4 0 4 -4l-8 -4h-423v-2h-22zM1064 1378q63 0 145 -146q117 133 185 133q54 0 153 -114q20 -36 18 -103l-11 -687q-2 -71 30 -71q95 0 97 84
q0 27 8 734q1 62 -79 110q22 47 29 47h213q109 0 196 -177l-6 -877q-4 0 -4 -4q-152 73 -173 92q3 688 5 797q1 51 -98 75l-17 -12q4 -100 -4 -766q-3 -186 -175 -186h-8q-106 0 -193 186q0 9 -4 16q1 283 4 430l5 280q0 30 -20 36q-47 0 -215 -201h-8q-90 209 -147 209
q-60 0 -216 -229h-4q-6 66 -6 87q168 257 300 257zM1539 253q53 -105 53 -120h-5q-330 -43 -398 -117v-5h12q381 0 381 -30l43 -52q0 -97 -378 -233q-86 -20 -152 -20q-176 123 -190 129v11q108 -25 233 -30q165 0 279 80q-24 12 -68 12h-138q-174 0 -174 51v54
q0 122 502 270z" />
    <glyph glyph-name="uniA987.conj" 
d="M-1106 202q63 0 145 -116q117 106 185 106q54 0 153 -91q20 -29 18 -83l-11 -549q-2 -57 30 -57q95 0 97 67q0 22 8 587q1 50 -79 88q22 38 29 38h213q109 0 196 -142l-6 -701q-4 0 -4 -3q-152 58 -173 73q3 551 5 638q1 41 -98 60l-17 -10q4 -80 -4 -613
q-3 -148 -175 -148h-8q-106 0 -193 148q0 8 -4 13q1 227 4 344l5 224q0 24 -20 29q-47 0 -215 -161h-8q-90 167 -147 167q-60 0 -216 -183h-4q-6 53 -6 70q168 205 300 205zM-1282 -653q1 1 1 2h-138q-164 0 -203 60q-25 35 -25 85v64q0 181 -4 517q-8 23 -31 23
q-84 0 -183 -164q-29 -57 -37 -132q0 -137 126 -280q32 -16 32 -21v-7q-90 -113 -94 -113q-42 29 -101 170q-41 130 -41 222v37q0 163 220 339q79 50 121 50q99 0 167 -110l4 -17q4 -458 4 -628q0 -18 45 -22h362q-157 78 -203 108q-48 40 -48 60q151 21 175 21v-3l-4 -32
q0 -75 234 -154q18 0 70 -67q4 0 4 -3l-8 -3h-423v-2h-22zM-631 -698q53 -84 53 -96h-5q-330 -34 -398 -93v-4h12q381 0 381 -24l43 -42q0 -77 -378 -186q-86 -16 -152 -16q-176 98 -190 103v9q108 -20 233 -24q165 0 279 64q-24 9 -68 9h-138q-174 0 -174 41v43
q0 98 502 216z" />
    <glyph glyph-name="uniA988" unicode="&#xa988;" horiz-adv-x="1920" 
d="M878 309q1 1 1 2h-138q-164 0 -203 75q-25 44 -25 107v79q0 227 -4 647q-8 28 -31 28q-84 0 -183 -205q-29 -71 -37 -165q0 -171 126 -349q32 -21 32 -27v-8q-90 -142 -94 -142q-42 37 -101 213q-41 162 -41 277v46q0 204 220 424q79 63 121 63q99 0 167 -138l4 -21
q4 -573 4 -785q0 -23 45 -27h362q-157 97 -203 134q-48 51 -48 75q151 27 175 27v-4l-4 -40q0 -94 234 -192q18 0 70 -84q4 0 4 -4l-8 -4h-423v-2h-22zM1100 1378q57 0 142 -142h4q113 129 191 129q111 -52 154 -138q4 -6 8 -35q5 -662 5 -894q0 -177 -593 -561
q-204 -159 -295 -307.5t-102 -260.5q350 291 681 287q239 0 366 -177l-171 -40q-45 -24 -68 -24q-71 146 -232 146q-204 20 -645 -378h-4q-170 23 -187 31q62 201 217.5 431.5t540.5 474.5q153 95 251 230q49 54 55 137q-2 98 -2 301v512q0 151 -16 151l-8 4
q-45 0 -208 -201h-4l-68 126q-51 77 -86 83q-67 -3 -216 -234q-2 9 -12 88q164 261 302 261z" />
    <glyph glyph-name="uniA988.conj" 
d="M-610 188q57 0 142 -104h4q113 94 191 94q111 -38 154 -101q4 -4 8 -26q5 -485 5 -656q0 -169 -509 -206q-148 -10 -291 -55.5t-190 -146.5q350 63 681 60q239 0 366 -130l-239 -47q-71 107 -232 107q-204 15 -645 -97h-4l-187 23q102 167 286 251t472 104
q131 35 215.5 51.5t90.5 77.5q-2 72 -2 221v376q0 111 -16 111l-8 3q-45 0 -208 -148h-4l-68 93q-51 56 -86 61q-67 -3 -216 -172q-2 6 -12 64q164 192 302 192zM-812 -653q1 1 1 2h-138q-164 0 -203 60q-25 35 -25 85v64q0 181 -4 517q-8 23 -31 23q-84 0 -183 -164
q-29 -57 -37 -132q0 -137 126 -280q32 -16 32 -21v-7q-90 -113 -94 -113q-42 29 -101 170q-41 130 -41 222v37q0 163 220 339q79 50 121 50q99 0 167 -110l4 -17q4 -458 4 -628q0 -18 45 -22h362q-157 78 -203 108q-48 40 -48 60q151 21 175 21v-3l-4 -32q0 -75 234 -154
q18 0 70 -67q4 0 4 -3l-8 -3h-423v-2h-22z" />
    <glyph glyph-name="uniA989" unicode="&#xa989;" horiz-adv-x="1548" 
d="M526 1374q76 0 154 -115q12 -30 12 -44v-710q0 -93 86 -106h187q118 0 118 114v679q0 169 125 169h29q83 0 171 -146q24 -48 24 -86v-818h-4q-20 0 -179 88v774q0 67 -20 106h-25q-56 0 -56 -103v-766q0 -86 -127 -103h-288v-4l118 -27v-4q-39 -39 -239 -138v-4h4
q505 0 596 -134q81 -79 103 -190q0 -8 4 -16q-4 0 -4 -3l-41 3h-13q-69 0 -207 -11v4q25 68 25 111q0 177 -342 177q-44 0 -183 -36q-8 7 -24 107q118 74 174 165h-24q-118 0 -154 96q-13 31 -13 58v715q0 9 -4 16q0 4 4 4q0 51 -37 51q-73 0 -170 -182q-44 -93 -44 -173
v-36q0 -169 134 -339q12 0 20 -16v-8q-88 -142 -94 -142q-52 59 -97 202q-45 168 -45 292v36q0 198 195 405q93 88 151 88z" />
    <glyph glyph-name="uniA989.conj" horiz-adv-x="1414" 
d="M1024 315l-4 -8q-173 82 -179 96v781q-4 88 -23 95h-20q-58 0 -58 -123v-749q0 -88 -133 -100h-5q-39 0 -289 103q-57 16 -97 16q-70 0 -90 -83q0 -4 -4 -4q-52 35 -52 39q25 25 105 175q3 0 29 23h8q95 0 308 -158q40 -23 78 -23q63 0 77 114v679q0 177 139 177
q117 0 206 -192q4 -22 4 -37v-821zM704 309v-2l127 -31v-4q-55 -48 -241 -138v-4h9q479 0 585 -122q77 -61 114 -218q-5 0 -5 -3l-28 3h-21q-166 -7 -211 -7q24 57 24 102q0 186 -329 186q-60 0 -191 -36q-9 0 -29 103q156 114 174 171h22z" />
    <glyph glyph-name="uniA98A" unicode="&#xa98a;" horiz-adv-x="1920" 
d="M556 1374q90 0 162 -130q8 -18 8 -52v-292q0 -155 4 -470q4 -27 45 -27h321q-12 13 -162 102q-78 63 -90 103q0 8 179 31v-4q-5 -27 -9 -36q0 -99 257 -204q45 -69 57 -80v-4h-569q-212 0 -212 174q-4 95 -4 221v498q0 30 -24 43h-17q-78 -17 -154 -162
q-57 -107 -57 -213q0 -193 143 -359q6 0 15 -16q-78 -130 -93 -142h-4q-54 59 -101 225q-41 155 -41 292q0 222 224 439q78 63 122 63zM1407 -77q-541 -97 -729 -247q-371 -234 -371 -630l40 -101q94 -197 364 -95q125 43 396 306h8q151 -93 207 -52q79 23 83 154zM1398 63
q-1 934 -2 1148q0 29 -21 44q-49 0 -210 -201h-4l-61 111q-58 98 -95 98q-65 0 -206 -229h-12q-4 72 -4 95q169 249 296 249q51 0 101 -84q4 0 49 -62q103 133 183 133q48 0 150 -118q17 -33 17 -63l2 -1075q211 158 207 374q23 129 123 -271q7 -158 -330 -239l1 -764
q-38 -158 -200 -199q-98 -45 -186 3q-236 -242 -517 -301q-187 -21 -343 104t-156 330q0 492 505 717q315 119 713 200z" />
    <glyph glyph-name="uniA98A.conj" 
d="M-832 -653q1 1 1 2h-138q-164 0 -203 60q-25 35 -25 85v64q0 181 -4 517q-8 23 -31 23q-84 0 -183 -164q-29 -57 -37 -132q0 -137 126 -280q32 -16 32 -21v-7q-90 -113 -94 -113q-42 29 -101 170q-41 130 -41 222v37q0 163 220 339q79 50 121 50q99 0 167 -110l4 -17
q4 -458 4 -628q0 -18 45 -22h362q-157 78 -203 108q-48 40 -48 60q151 21 175 21v-3l-4 -32q0 -75 234 -154q18 0 70 -67q4 0 4 -3l-8 -3h-423v-2h-22zM-1169 -1031v-9q64 -102 282 -156q116 -22 332 165h8q171 -51 199 -18q52 19 52 123v104q-196 -15 -462 -41
q-411 -75 -411 -168zM-305 69q0 23 -21 35q-49 0 -210 -161h-4l-61 89q-58 78 -95 78q-65 0 -206 -183h-12q-4 58 -4 76q169 199 296 199q51 0 101 -67q4 0 49 -49q103 106 183 106q48 0 150 -94q17 -27 17 -51l5 -770q134 27 153 169l-8 90q131 -48 158.5 -157.5
t-303.5 -164.5v-200q0 -96 -134 -138q-98 -36 -206 2q-181 -177 -372 -160q-216 39 -337 139t-121 192q0 153 545 173q303 4 442 22z" />
    <glyph glyph-name="uniA98B" unicode="&#xa98b;" horiz-adv-x="1995" 
d="M666 1374q90 0 162 -130q8 -18 8 -52v-292q0 -155 4 -470q4 -27 45 -27h321q-12 13 -162 102q-78 63 -90 103q0 8 179 31v-4q-5 -27 -9 -36q0 -99 257 -204q45 -69 57 -80v-4h-569q-212 0 -212 174q-4 95 -4 221v498q0 30 -24 43h-17q-78 -17 -154 -162
q-57 -107 -57 -213q0 -193 143 -359q6 0 15 -16q-78 -130 -93 -142h-4q-54 59 -101 225q-41 155 -41 292q0 222 224 439q78 63 122 63zM1514 -793h-2l5 752q-106 -8 -216 -22q-237 -38 -392 -141q-471 -264 -491 -730l40 -121q104 -177 334 -95q165 43 436 306h8
q151 -93 207 -52q55 18 71 103zM1699 -29l-3 -753q-24 -166 -164 -208q-118 -35 -206 3q-236 -242 -557 -301q-147 -1 -308 114t-161 340q20 562 625 797q283 93 592 106l-2 1142q0 29 -21 44q-49 0 -210 -201h-4l-61 111q-58 98 -95 98q-65 0 -206 -229h-12q-4 72 -4 95
q169 249 296 249q51 0 101 -84q4 0 49 -62q103 133 183 133q48 0 150 -118q17 -33 17 -63l1 -1114q97 -2 194 -9q164 -23 235 -90q83 -76 83 -145q0 -157 -94 -190q0 -9 -13 -8q121 -64 159 -120q34 -36 33 -140v-3q-15 -167 -156 -222q-76 -26 -137 -26q-149 1 -244 109
q8 49 17 49q90 -58 182 -60q128 0 168 129q5 37 5 60q0 141 -96 183q-65 10 -109 28q-25 52 -25 68l30 -1q90 -1 120 83q9 15 9 59v41q0 76 -61 93q-64 16 -137 16q-80 0 -163 -3z" />
    <glyph glyph-name="uniA98B.conj" 
d="M-852 -653q1 1 1 2h-138q-164 0 -203 60q-25 35 -25 85v64q0 181 -4 517q-8 23 -31 23q-84 0 -183 -164q-29 -57 -37 -132q0 -137 126 -280q32 -16 32 -21v-7q-90 -113 -94 -113q-42 29 -101 170q-41 130 -41 222v37q0 163 220 339q79 50 121 50q99 0 167 -110l4 -17
q4 -458 4 -628q0 -18 45 -22h362q-157 78 -203 108q-48 40 -48 60q151 21 175 21v-3l-4 -32q0 -75 234 -154q18 0 70 -67q4 0 4 -3l-8 -3h-423v-2h-22zM-400 -672l92 6l-7 735q0 23 -21 35q-49 0 -210 -161h-4l-61 89q-58 78 -95 78q-65 0 -206 -183h-12q-4 58 -4 76
q169 199 296 199q51 0 101 -67q4 0 49 -49q103 106 183 106q48 0 150 -94q17 -27 17 -51l3 -705q53 1 105 1q164 -9 235 -58q83 -56 83 -111q0 -78 -94 -110q0 -7 -13 -6q121 -45 159 -88q34 -26 33 -109v-3q-15 -95 -126 -137q-76 -25 -137 -29q-149 -8 -244 74q8 39 17 40
q90 -42 182 -38q128 7 143 112q0 113 -96 140q-65 5 -109 17q-25 40 -25 53h30q90 4 109.5 33t19.5 73q0 61 -61 71q-64 9 -137 5q-30 -2 -73 -6l1 -252q0 -96 -134 -138q-98 -36 -206 2q-181 -177 -372 -160q-216 39 -337 139t-121 192q0 97 294 173.5t603 105.5z
M-308 -751q-196 -22 -306 -39q-156 -29 -360.5 -94t-204.5 -147v-9q64 -102 282 -156q116 -22 332 165h8q171 -51 199 -18q52 19 52 123z" />
    <glyph glyph-name="uniA98C" unicode="&#xa98c;" horiz-adv-x="1476" 
d="M1019 1378q121 0 235 -182v-8q0 -100 -520 -119h-69q-20 38 -20 44h-4q-78 -74 -167 -241q-110 -211 -110 -327v-4q0 -115 110 -115q108 0 292 127q108 67 179 67h25q172 0 390 -376q-69 -31 -78 -31q-106 221 -329 221q-95 0 -423 -75q-63 -8 -97 -8q-145 0 -261 162
q-12 37 -12 67q0 209 318 529q301 269 541 269zM709 1169q257 9 257 54v17q-4 42 -33 42q-56 0 -224 -113z" />
    <glyph glyph-name="uniA98C.conj" 
d="M-451 202q121 0 235 -145v-7q0 -80 -520 -95h-69q-20 31 -20 35h-4q-78 -59 -167 -192q-110 -169 -110 -262v-3q0 -92 110 -92q108 0 292 101q108 54 179 54h25q172 0 390 -301q-69 -25 -78 -25q-106 177 -329 177q-95 0 -423 -60q-63 -6 -97 -6q-145 0 -261 129
q-12 30 -12 54q0 167 318 423q301 215 541 215zM-761 35q257 7 257 43v14q-4 34 -33 34q-56 0 -224 -91z" />
    <glyph glyph-name="uniA98D" unicode="&#xa98d;" horiz-adv-x="1476" 
d="M1019 1378q121 0 235 -182v-8q0 -100 -520 -119h-69q-20 38 -20 44h-4q-78 -74 -167 -241q-110 -211 -110 -327v-4q0 -115 110 -115q108 0 292 127q108 67 179 67h25q172 0 390 -376q-69 -31 -78 -31q-106 221 -329 221q-95 0 -423 -75q-63 -8 -97 -8q-145 0 -261 162
q-12 37 -12 67q0 209 318 529q301 269 541 269zM709 1169q257 9 257 54v17q-4 42 -33 42q-56 0 -224 -113zM994 2064q53 -105 53 -120h-5q-330 -43 -398 -117v-5h12q381 0 381 -30l43 -52q0 -97 -378 -233q-86 -20 -152 -20q-176 123 -190 129v11q108 -25 233 -30
q165 0 279 80q-24 12 -68 12h-138q-174 0 -174 51v54q0 122 502 270z" />
    <glyph glyph-name="uniA98D.conj" 
d="M-451 202q121 0 235 -145v-7q0 -80 -520 -95h-69q-20 31 -20 35h-4q-78 -59 -167 -192q-110 -169 -110 -262v-3q0 -92 110 -92q108 0 292 101q108 54 179 54h25q172 0 390 -301q-69 -25 -78 -25q-106 177 -329 177q-95 0 -423 -60q-63 -6 -97 -6q-145 0 -261 129
q-12 30 -12 54q0 167 318 423q301 215 541 215zM-761 35q257 7 257 43v14q-4 34 -33 34q-56 0 -224 -91zM-631 -698q53 -84 53 -96h-5q-330 -34 -398 -93v-4h12q381 0 381 -24l43 -42q0 -77 -378 -186q-86 -16 -152 -16q-176 98 -190 103v9q108 -20 233 -24q165 0 279 64
q-24 9 -68 9h-138q-174 0 -174 41v43q0 98 502 216z" />
    <glyph glyph-name="uniA98D_uniA980" horiz-adv-x="1583" 
d="M1019 1378q121 0 235 -182v-8q0 -100 -520 -119h-69q-20 38 -20 44h-4q-78 -74 -167 -241q-110 -211 -110 -327v-4q0 -115 110 -115q108 0 292 127q108 67 179 67h25q172 0 390 -376q-69 -31 -78 -31q-106 221 -329 221q-95 0 -423 -75q-63 -8 -97 -8q-145 0 -261 162
q-12 37 -12 67q0 209 318 529q301 269 541 269zM709 1169q257 9 257 54v17q-4 42 -33 42q-56 0 -224 -113zM994 2064q53 -105 53 -120h-5q-330 -43 -398 -117v-5h12q381 0 381 -30l43 -52q0 -97 -378 -233q-86 -20 -152 -20q-176 123 -190 129v11q108 -25 233 -30
q165 0 279 80q-24 12 -68 12h-138q-174 0 -174 51v54q0 122 502 270zM1425 1820q213 -128 213 -245q62 16 137 98l65 -60q-159 -186 -446.5 -184t-405.5 135l117 121q68 -89 136 -110q22 122 184 245zM1333 1547q110 -16 166 2q18 50 -101 136q-65 -45 -65 -138z" />
    <glyph glyph-name="uniA98D_uniA981" horiz-adv-x="1593" 
d="M1019 1368q121 0 235 -182v-8q0 -100 -520 -119h-69q-20 38 -20 44h-4q-78 -74 -167 -241q-110 -211 -110 -327v-4q0 -115 110 -115q108 0 292 127q108 67 179 67h25q172 0 390 -376q-69 -31 -78 -31q-106 221 -329 221q-95 0 -423 -75q-63 -8 -97 -8q-145 0 -261 162
q-12 37 -12 67q0 209 318 529q301 269 541 269zM709 1159q257 9 257 54v17q-4 42 -33 42q-56 0 -224 -113zM994 2054q53 -105 53 -120h-5q-330 -43 -398 -117v-5h12q381 0 381 -30l43 -52q0 -97 -378 -233q-86 -20 -152 -20q-176 123 -190 129v11q108 -25 233 -30
q165 0 279 80q-24 12 -68 12h-138q-174 0 -174 51v54q0 122 502 270zM1396 1710q81 -52 81 -101q-180 -168 -276 -168q-49 0 -149 108l128 154q17 0 148 -121q44 63 68 128z" />
    <glyph glyph-name="uniA98D_uniA982" horiz-adv-x="1654" 
d="M1019 1378q121 0 235 -182v-8q0 -100 -520 -119h-69q-20 38 -20 44h-4q-78 -74 -167 -241q-110 -211 -110 -327v-4q0 -115 110 -115q108 0 292 127q108 67 179 67h25q172 0 390 -376q-69 -31 -78 -31q-106 221 -329 221q-95 0 -423 -75q-63 -8 -97 -8q-145 0 -261 162
q-12 37 -12 67q0 209 318 529q301 269 541 269zM709 1169q257 9 257 54v17q-4 42 -33 42q-56 0 -224 -113zM994 2064q53 -105 53 -120h-5q-330 -43 -398 -117v-5h12q381 0 381 -30l43 -52q0 -97 -378 -233q-86 -20 -152 -20q-176 123 -190 129v11q108 -25 233 -30
q165 0 279 80q-24 12 -68 12h-138q-174 0 -174 51v54q0 122 502 270zM1005 1500q199 249 417 691l116 -22l-448 -686z" />
    <glyph glyph-name="uniA98D_uniA9B3" horiz-adv-x="1680" 
d="M1439 1378q121 0 235 -182v-8q0 -100 -520 -119h-69q-20 38 -20 44h-4q-78 -74 -167 -241q-110 -211 -110 -327v-4q0 -115 110 -115q108 0 292 127q108 67 179 67h25q172 0 390 -376q-69 -31 -78 -31q-106 221 -329 221q-95 0 -423 -75q-63 -8 -97 -8q-145 0 -261 162
q-12 37 -12 67q0 209 318 529q301 269 541 269zM1129 1169q257 9 257 54v17q-4 42 -33 42q-56 0 -224 -113zM1414 2064q53 -105 53 -120h-5q-330 -43 -398 -117v-5h12q381 0 381 -30l43 -52q0 -97 -378 -233q-86 -20 -152 -20q-176 123 -190 129v11q108 -25 233 -30
q165 0 279 80q-24 12 -68 12h-138q-174 0 -174 51v54q0 122 502 270zM652 2098q65 -43 65 -82q-146 -137 -223 -137q-40 0 -121 88l104 125q14 0 120 -98q36 50 55 104zM794 1841q65 -42 65 -82q-146 -136 -223 -136q-40 0 -121 87l104 126q14 0 120 -99q36 51 55 104z
M439 1841q65 -42 65 -82q-146 -136 -223 -136q-40 0 -121 87l104 126q14 0 120 -99q36 51 55 104z" />
    <glyph glyph-name="uniA98D_uniA9B3_uniA980" horiz-adv-x="1680" 
d="M1229 1378q121 0 235 -182v-8q0 -100 -520 -119h-69q-20 38 -20 44h-4q-78 -74 -167 -241q-110 -211 -110 -327v-4q0 -115 110 -115q108 0 292 127q108 67 179 67h25q172 0 390 -376q-69 -31 -78 -31q-106 221 -329 221q-95 0 -423 -75q-63 -8 -97 -8q-145 0 -261 162
q-12 37 -12 67q0 209 318 529q301 269 541 269zM919 1169q257 9 257 54v17q-4 42 -33 42q-56 0 -224 -113zM1204 2064q53 -105 53 -120h-5q-330 -43 -398 -117v-5h12q381 0 381 -30l43 -52q0 -97 -378 -233q-86 -20 -152 -20q-176 123 -190 129v11q108 -25 233 -30
q165 0 279 80q-24 12 -68 12h-138q-174 0 -174 51v54q0 122 502 270zM1615 1800q213 -128 213 -245q62 16 137 98l65 -60q-159 -186 -446.5 -184t-405.5 135l117 121q68 -89 136 -110q22 122 184 245zM1523 1527q110 -16 166 2q18 50 -101 136q-65 -45 -65 -138zM462 2088
q65 -43 65 -82q-146 -137 -223 -137q-40 0 -121 88l104 125q14 0 120 -98q36 50 55 104zM604 1831q65 -42 65 -82q-146 -136 -223 -136q-40 0 -121 87l104 126q14 0 120 -99q36 51 55 104zM249 1831q65 -42 65 -82q-146 -136 -223 -136q-40 0 -121 87l104 126q14 0 120 -99
q36 51 55 104z" />
    <glyph glyph-name="uniA98D_uniA9B3_uniA981" horiz-adv-x="1680" 
d="M1449 1378q121 0 235 -182v-8q0 -100 -520 -119h-69q-20 38 -20 44h-4q-78 -74 -167 -241q-110 -211 -110 -327v-4q0 -115 110 -115q108 0 292 127q108 67 179 67h25q172 0 390 -376q-69 -31 -78 -31q-106 221 -329 221q-95 0 -423 -75q-63 -8 -97 -8q-145 0 -261 162
q-12 37 -12 67q0 209 318 529q301 269 541 269zM1139 1169q257 9 257 54v17q-4 42 -33 42q-56 0 -224 -113zM1424 2064q53 -105 53 -120h-5q-330 -43 -398 -117v-5h12q381 0 381 -30l43 -52q0 -97 -378 -233q-86 -20 -152 -20q-176 123 -190 129v11q108 -25 233 -30
q165 0 279 80q-24 12 -68 12h-138q-174 0 -174 51v54q0 122 502 270zM1806 1740q81 -52 81 -101q-180 -168 -276 -168q-49 0 -149 108l128 154q17 0 148 -121q44 63 68 128zM642 2068q65 -43 65 -82q-146 -137 -223 -137q-40 0 -121 88l104 125q14 0 120 -98q36 50 55 104z
M784 1811q65 -42 65 -82q-146 -136 -223 -136q-40 0 -121 87l104 126q14 0 120 -99q36 51 55 104zM429 1811q65 -42 65 -82q-146 -136 -223 -136q-40 0 -121 87l104 126q14 0 120 -99q36 51 55 104z" />
    <glyph glyph-name="uniA98D_uniA9B3_uniA982" horiz-adv-x="1799" 
d="M1389 1378q121 0 235 -182v-8q0 -100 -520 -119h-69q-20 38 -20 44h-4q-78 -74 -167 -241q-110 -211 -110 -327v-4q0 -115 110 -115q108 0 292 127q108 67 179 67h25q172 0 390 -376q-69 -31 -78 -31q-106 221 -329 221q-95 0 -423 -75q-63 -8 -97 -8q-145 0 -261 162
q-12 37 -12 67q0 209 318 529q301 269 541 269zM1079 1169q257 9 257 54v17q-4 42 -33 42q-56 0 -224 -113zM1364 2064q53 -105 53 -120h-5q-330 -43 -398 -117v-5h12q381 0 381 -30l43 -52q0 -97 -378 -233q-86 -20 -152 -20q-176 123 -190 129v11q108 -25 233 -30
q165 0 279 80q-24 12 -68 12h-138q-174 0 -174 51v54q0 122 502 270zM1385 1500q199 249 417 691l116 -22l-448 -686zM602 2058q65 -43 65 -82q-146 -137 -223 -137q-40 0 -121 88l104 125q14 0 120 -98q36 50 55 104zM744 1801q65 -42 65 -82q-146 -136 -223 -136
q-40 0 -121 87l104 126q14 0 120 -99q36 51 55 104zM389 1801q65 -42 65 -82q-146 -136 -223 -136q-40 0 -121 87l104 126q14 0 120 -99q36 51 55 104z" />
    <glyph glyph-name="uniA98E" unicode="&#xa98e;" horiz-adv-x="1927" 
d="M1562 1227q0 55 -37 55q-15 4 -36 4h-203v-4q167 -183 167 -441v-4q0 -425 -187 -501q-28 -12 -66 -12h-341q-245 0 -333 275q-29 122 -29 269v9q0 222 70 359q-28 15 -62 15h-4q-120 0 -216 -245q-17 -35 -24 -129q0 -212 158 -380q-63 -109 -97 -146q-54 71 -101 225
q-41 174 -41 288q0 250 255 474q70 40 99 40h459v-9q-54 -83 -73 -83q-139 -27 -139 -59q-146 -165 -146 -406q0 -332 131 -379q50 -28 146 -28q309 0 430 312q16 60 25 157q0 246 -175 388q-47 15 -64 15v4q39 56 72 88h285q178 0 223 -60q37 -51 37 -134q0 -104 4.5 -458
t4.5 -428q0 -177 -593 -561q-204 -159 -295 -307.5t-102 -260.5q350 291 681 287q239 0 366 -177l-171 -40q-45 -24 -68 -24q-71 146 -232 146q-204 20 -645 -378h-4q-170 23 -187 31q62 201 217.5 431.5t540.5 474.5q153 95 251 230q49 54 55 137q-1 68 -6 940z" />
    <glyph glyph-name="uniA98E.conj" 
d="M-292 67q0 44 -37 44q-15 3 -36 3h-204v-3q168 -146 168 -353v-3q0 -341 -188 -401q-28 -10 -66 -10h-343q-246 0 -334 220q-30 98 -30 216v7q0 178 71 287q-28 12 -63 12h-4q-120 0 -217 -196q-17 -28 -24 -103q0 -170 159 -305q-63 -87 -97 -116q-55 56 -102 180
q-41 139 -41 230q0 201 256 380q70 32 100 32h461v-7q-55 -67 -74 -67q-139 -21 -139 -47q-147 -132 -147 -325q0 -266 132 -304q50 -22 146 -22q311 0 432 250q16 48 25 126q0 197 -175 310q-48 12 -65 12v4q39 44 73 70h286q179 0 224 -48q37 -41 37 -107l12 -638
q0 -169 -509 -206q-148 -10 -291 -55.5t-190 -146.5q350 63 681 60q239 0 366 -130l-239 -47q-71 107 -232 107q-204 15 -645 -97h-4l-187 23q102 167 286 251t472 104q131 35 215.5 51.5t90.5 77.5z" />
    <glyph glyph-name="uniA98F" unicode="&#xa98f;" horiz-adv-x="2054" 
d="M506 1375q86 0 163 -130q9 -52 9 -138v-213q20 0 170 -8v236q0 179 231 242h94q163 0 224 -111q85 -88 85 -213v-573q0 -79 33 -79q65 0 65 79v734q0 71 -82 119q26 48 33 48h199q103 0 187 -154q17 -25 17 -100q0 -113 4 -801q-12 0 -179 83q-8 606 -8 801q0 50 -86 75
q-6 0 -21 -15q4 -73 4 -107v-643q0 -162 -72 -190q-38 -11 -70 -11q-116 0 -203 188q-4 22 -4 37v189q0 161 4 410q0 142 -105 142h-21q-146 0 -232 -129q-28 -49 -28 -96v-165h4q185 0 277 -209q8 0 8 -39v-44q0 -127 -171 -261q-35 -23 -61 -23q-37 0 -113 142
q-13 56 -13 154v178q0 6 -8 6q-106 5 -167 5v-478h-4q-60 22 -174 87v4q8 464 8 505v96q0 244 -33 244h-16q-78 -16 -159 -166q-53 -103 -53 -201v-8q0 -217 158 -376q-86 -129 -88 -142h-9q-54 55 -106 230q-37 149 -37 273v23q0 223 191 411q101 82 155 82zM917 780
q0 -4 -5 -4l5 -56q0 -52 4 -201q9 -36 20 -36h8q49 0 105 103q21 32 21 54v21q-26 119 -158 119z" />
    <glyph glyph-name="uniA98F.conj" 
d="M-983 -273q0 -7 -5 -7l5 -38q0 -31 4 -165q8 -29 20 -29h12q41 0 101 79q21 28 21 46v16q0 64 -126 95q-23 3 -32 3zM-265 -565q217 69 308 5q85 -91 -9 -252l-65 39q-44 135 -193 125q-56 1 -93.5 -1.5t-80.5 -2.5q-102 0 -191 134q-12 24 -12 44v150q0 128 4 325
q0 112 -107 112h-24q-138 0 -227 -102q-28 -41 -28 -76v-131h4q165 0 247 -125q41 -34 41 -85q0 -114 -159 -218q-47 -28 -72 -28h-4q-38 0 -115 113q-12 46 -12 112v151q0 4 -8 4q-116 4 -167 4v-378h-4q-124 42 -175 68v4q8 367 8 400v76q0 193 -32 193h-13
q-65 0 -158 -125q-56 -85 -56 -166v-6q0 -169 154 -295q0 -8 -86 -115h-8q-48 35 -97 160q-45 129 -45 238v12q0 202 220 350q82 47 126 47q86 0 158 -100q12 -16 12 -90v-191q22 0 171 -6v187q0 144 236 191h89q177 0 254 -102q56 -63 56 -139v-469q0 -63 37 -63
q21 0 116 22z" />
    <glyph glyph-name="uniA98F.conj_full" 
d="M-1549 200q86 0 163 -104q9 -42 9 -110v-171q20 0 170 -6v189q0 143 231 193h94q163 0 224 -89q85 -70 85 -170v-458q0 -64 33 -64q65 0 65 64v587q0 57 -82 95q26 38 33 38h199q103 0 187 -123q17 -20 17 -80q0 -90 4 -641q-12 0 -179 67q-8 485 -8 641q0 40 -86 60
q-6 0 -21 -12q4 -59 4 -86v-514q0 -130 -72 -152q-38 -9 -70 -9q-116 0 -203 150q-4 18 -4 30v151q0 129 4 328q0 114 -105 114h-21q-146 0 -232 -104q-28 -39 -28 -76v-132h4q185 0 277 -168q8 0 8 -31v-35q0 -102 -171 -209q-35 -18 -61 -18q-37 0 -113 113
q-13 45 -13 124v142q0 5 -8 5q-106 4 -167 4v-383h-4q-60 18 -174 70v3q8 371 8 404v77q0 195 -33 195h-16q-78 -13 -159 -133q-53 -82 -53 -160v-7q0 -173 158 -301q-86 -103 -88 -113h-9q-54 44 -106 184q-37 119 -37 218v19q0 178 191 328q101 66 155 66zM-1138 -276
q0 -3 -5 -3l5 -45q0 -42 4 -161q9 -29 20 -29h8q49 0 105 83q21 25 21 43v17q-26 95 -158 95z" />
    <glyph glyph-name="uniA990" unicode="&#xa990;" horiz-adv-x="2074" 
d="M526 1375q86 0 163 -130q9 -52 9 -138v-213q20 0 170 -8v236q0 179 231 242h94q163 0 224 -111q85 -88 85 -213v-573q0 -79 33 -79q65 0 65 79v734q0 71 -82 119q26 48 33 48h199q103 0 187 -154q17 -25 17 -100q0 -113 4 -801q-12 0 -179 83q-8 606 -8 801q0 50 -86 75
q-6 0 -21 -15q4 -73 4 -107v-643q0 -162 -72 -190q-38 -11 -70 -11q-116 0 -203 188q-4 22 -4 37v189q0 161 4 410q0 142 -105 142h-21q-146 0 -232 -129q-28 -49 -28 -96v-165h4q185 0 277 -209q8 0 8 -39v-44q0 -127 -171 -261q-35 -23 -61 -23q-37 0 -113 142
q-13 56 -13 154v178q0 6 -8 6q-106 5 -167 5v-478h-4q-60 22 -174 87v4q8 464 8 505v96q0 244 -33 244h-16q-78 -16 -159 -166q-53 -103 -53 -201v-8q0 -217 158 -376q-86 -129 -88 -142h-9q-54 55 -106 230q-37 149 -37 273v23q0 223 191 411q101 82 155 82zM937 780
q0 -4 -5 -4l5 -56q0 -52 4 -201q9 -36 20 -36h8q49 0 105 103q21 32 21 54v21q-26 119 -158 119zM1010 309v-2l127 -31v-4q-55 -48 -241 -138v-4h9q479 0 585 -122q77 -61 114 -218q-5 0 -5 -3l-28 3h-21q-166 -7 -211 -7q24 57 24 102q0 186 -329 186q-60 0 -191 -36
q-9 0 -29 103q156 114 174 171h22z" />
    <glyph glyph-name="uniA990.conj" 
d="M-983 -273q0 -7 -5 -7l5 -38q0 -31 4 -165q8 -29 20 -29h12q41 0 101 79q21 28 21 46v16q0 64 -126 95q-23 3 -32 3zM-265 -565q217 69 308 5q85 -91 -9 -252l-65 39q-44 135 -193 125q-56 1 -93.5 -1.5t-80.5 -2.5q-102 0 -191 134q-12 24 -12 44v150q0 128 4 325
q0 112 -107 112h-24q-138 0 -227 -102q-28 -41 -28 -76v-131h4q165 0 247 -125q41 -34 41 -85q0 -114 -159 -218q-47 -28 -72 -28h-4q-38 0 -115 113q-12 46 -12 112v151q0 4 -8 4q-116 4 -167 4v-378h-4q-124 42 -175 68v4q8 367 8 400v76q0 193 -32 193h-13
q-65 0 -158 -125q-56 -85 -56 -166v-6q0 -169 154 -295q0 -8 -86 -115h-8q-48 35 -97 160q-45 129 -45 238v12q0 202 220 350q82 47 126 47q86 0 158 -100q12 -16 12 -90v-191q22 0 171 -6v187q0 144 236 191h89q177 0 254 -102q56 -63 56 -139v-469q0 -63 37 -63
q21 0 116 22zM-1130 -619v-2l127 -31v-4q-55 -48 -241 -138v-4h9q479 0 585 -122q77 -61 114 -218q-5 0 -5 -3l-28 3h-21q-166 -7 -211 -7q24 57 24 102q0 186 -329 186q-60 0 -191 -36q-9 0 -29 103q156 114 174 171h22z" />
    <glyph glyph-name="uniA990.conj_full" 
d="M-1552 200q86 0 163 -104q9 -42 9 -110v-171q20 0 170 -6v189q0 143 231 193h94q163 0 224 -89q85 -70 85 -170v-458q0 -64 33 -64q65 0 65 64v587q0 57 -82 95q26 38 33 38h199q103 0 187 -123q17 -20 17 -80q0 -90 4 -641q-12 0 -179 67q-8 485 -8 641q0 40 -86 60
q-6 0 -21 -12q4 -59 4 -86v-514q0 -130 -72 -152q-38 -9 -70 -9q-116 0 -203 150q-4 18 -4 30v151q0 129 4 328q0 114 -105 114h-21q-146 0 -232 -104q-28 -39 -28 -76v-132h4q185 0 277 -168q8 0 8 -31v-35q0 -102 -171 -209q-35 -18 -61 -18q-37 0 -113 113
q-13 45 -13 124v142q0 5 -8 5q-106 4 -167 4v-383h-4q-60 18 -174 70v3q8 371 8 404v77q0 195 -33 195h-16q-78 -13 -159 -133q-53 -82 -53 -160v-7q0 -173 158 -301q-86 -103 -88 -113h-9q-54 44 -106 184q-37 119 -37 218v19q0 178 191 328q101 66 155 66zM-1141 -276
q0 -3 -5 -3l5 -45q0 -42 4 -161q9 -29 20 -29h8q49 0 105 83q21 25 21 43v17q-26 95 -158 95zM-1068 -653v-1l127 -25v-3q-55 -39 -241 -111v-3h9q479 0 585 -98q77 -48 114 -174q-5 0 -5 -2l-28 2h-21q-166 -6 -211 -6q24 46 24 82q0 149 -329 149q-60 0 -191 -29
q-9 0 -29 82q156 92 174 137h22z" />
    <glyph glyph-name="uniA991" unicode="&#xa991;" horiz-adv-x="1783" 
d="M526 1375q86 0 158 -126q12 -20 12 -114v-241q22 0 171 -8v236q0 182 236 242h89q177 0 244 -142q66 -67 66 -163v-592q0 -79 37 -79q60 0 60 79v269q0 235 174 597q5 0 25 27q135 -56 163 -64v-11q-125 -51 -260 -388q-33 -87 -33 -157v-233q0 -151 -65 -186
q-38 -15 -81 -15q-102 0 -191 169q-12 30 -12 56v189q0 161 4 410q0 142 -107 142h-24q-138 0 -227 -129q-28 -52 -28 -96v-165h4q165 0 247 -158q41 -43 41 -107q0 -145 -159 -276q-47 -35 -72 -35h-4q-38 0 -115 142q-12 59 -12 142v190q0 6 -8 6q-116 5 -167 5v-478h-4
q-124 54 -175 87v4q8 464 8 505v96q0 244 -32 244h-13q-65 0 -158 -158q-56 -107 -56 -209v-8q0 -213 154 -372q0 -10 -86 -146h-8q-48 45 -97 202q-45 163 -45 301v15q0 255 220 442q82 59 126 59zM937 784q0 -8 -5 -8l5 -48q0 -40 4 -209q8 -36 20 -36h12q41 0 101 99
q21 36 21 58v21q0 80 -126 119q-23 4 -32 4z" />
    <glyph glyph-name="uniA991.conj" 
d="M-1263 200q86 0 158 -101q12 -16 12 -91v-193q22 0 171 -6v189q0 145 236 193h89q177 0 244 -113q66 -54 66 -131v-473q0 -64 37 -64q60 0 60 64v215q0 188 174 477q5 0 25 22q135 -45 163 -51v-9q-125 -41 -260 -310q-33 -70 -33 -126v-186q0 -121 -65 -149
q-38 -12 -81 -12q-102 0 -191 135q-12 24 -12 45v151q0 129 4 328q0 114 -107 114h-24q-138 0 -227 -104q-28 -41 -28 -76v-132h4q165 0 247 -127q41 -34 41 -85q0 -116 -159 -221q-47 -28 -72 -28h-4q-38 0 -115 113q-12 48 -12 114v152q0 5 -8 5q-116 4 -167 4v-383h-4
q-124 44 -175 70v3q8 371 8 404v77q0 195 -32 195h-13q-65 0 -158 -126q-56 -86 -56 -167v-7q0 -170 154 -297q0 -8 -86 -117h-8q-48 36 -97 161q-45 131 -45 241v12q0 204 220 354q82 47 126 47zM-852 -273q0 -6 -5 -6l5 -39q0 -32 4 -167q8 -29 20 -29h12q41 0 101 80
q21 28 21 46v17q0 64 -126 95q-23 3 -32 3z" />
    <glyph glyph-name="uniA992" unicode="&#xa992;" horiz-adv-x="2094" 
d="M1261 452q27 -48 57 -48h16q21 10 21 32l40 667q0 176 159 245q43 16 86 16h43q142 0 284 -269q11 -26 11 -63v-723q-171 87 -181 96l-2 710q0 137 -58 167h-21q-202 20 -248 -173q-4 -21 -4 -39l-40 -649q0 -111 -139 -111h-8q-142 0 -151 106l-4 24v669q0 133 -71 163
h-8q-204 30 -248 -166q-4 -36 -4 -60v-646q0 -90 -139 -90q-133 -10 -183 93q-21 97 -21 128q4 376 4 528q-11 103 -43 103q-104 0 -167 -157l-8 -60q0 -104 121 -197q-17 -90 -69 -146h-4q-122 208 -122 391q0 131 146 252q43 27 70 27h12q94 0 220 -165q11 -50 11 -87
v-522q14 -94 65 -94h17q20 0 24 59v676q0 135 163 213q52 12 77 12h37q149 0 288 -257q15 -37 15 -67z" />
    <glyph glyph-name="uniA992.conj" 
d="M-838 -538q27 -39 57 -39h16q21 8 21 26l40 533q0 141 159 196q43 13 86 13h43q142 0 284 -215q11 -21 11 -50v-579q-171 70 -181 77l-2 568q0 110 -58 134h-21q-202 16 -248 -139q-4 -17 -4 -31l-40 -519q0 -89 -139 -89h-8q-142 0 -151 85l-4 19v535q0 107 -71 131h-8
q-204 24 -248 -133q-4 -29 -4 -48v-517q0 -72 -139 -72q-133 -8 -183 74q-21 78 -21 103q4 301 4 422q-11 83 -43 83q-104 0 -167 -126l-8 -48q0 -83 121 -158q-17 -72 -69 -116h-4q-122 166 -122 312q0 105 146 202q43 22 70 22h12q94 0 220 -132q11 -40 11 -70v-418
q14 -75 65 -75h17q20 0 24 47v541q0 108 163 171q52 9 77 9h37q149 0 288 -205q15 -30 15 -54z" />
    <glyph glyph-name="uniA993" unicode="&#xa993;" horiz-adv-x="2864" 
d="M1338 1241q0 48 -60 48h-4q-175 0 -216 -48q-116 -112 -139 -248q-28 -86 -28 -198q0 -222 171 -364q27 -10 72 -19l62 -87l-8 -4q-4 0 -4 4l-9 -4h-267q-329 0 -343 48q-52 39 -52 138v402q0 112 4 313q-12 27 -36 27h-9q-82 -17 -166 -177q-49 -114 -49 -194
q0 -179 129 -351q29 -20 29 -25q0 -19 -93 -146q-38 19 -102 211q-40 158 -40 275v52q0 220 202 410q94 71 139 71q91 0 163 -126q0 -8 8 -27q4 -317 4 -471v-292q0 -43 44 -43h232q-167 187 -167 422v71q10 342 151 439q23 31 203 31h94q211 0 243 -79q25 -41 25 -130
l4 -638q2 -101 89.5 -86.5t345.5 309.5q143 -282 263 -308q60 0 115 111q41 138 41 262q0 238 -101 395q-31 47 -117 68h-4q22 74 37 86h287q210 0 243 -79q24 -40 24 -118v-865l-4 -7q-175 82 -179 90q8 644 12 797q0 88 -43 88q-22 4 -49 4h-166q167 -189 167 -455v-35
q0 -380 -269 -492h-31q-108 0 -308 217q-219 -203 -369 -203q-172 9 -171 198v732z" />
    <glyph glyph-name="uniA993.conj" 
d="M-1537 93q0 38 -60 38h-4q-175 0 -216 -38q-116 -90 -139 -199q-28 -68 -28 -158q0 -178 171 -291q27 -8 72 -15l62 -70l-8 -3q-4 0 -4 3l-9 -3h-267q-329 0 -343 38q-52 31 -52 111v321q0 90 4 251q-12 21 -36 21h-9q-82 -13 -166 -141q-49 -92 -49 -156
q0 -143 129 -280q29 -16 29 -20q0 -16 -93 -117q-38 15 -102 169q-40 126 -40 220v41q0 176 202 328q94 57 139 57q91 0 163 -101q0 -6 8 -21q4 -254 4 -377v-234q0 -34 44 -34h232q-167 149 -167 337v57q10 274 151 351q23 25 203 25h94q211 0 243 -63q25 -33 25 -104
l4 -510q2 -81 89.5 -69.5t345.5 247.5q143 -226 263 -246q60 0 115 88q41 111 41 210q0 190 -101 316q-31 38 -117 54h-4q22 60 37 69h287q210 0 243 -63q24 -32 24 -94v-692l-4 -6q-175 66 -179 72q8 515 12 638q0 70 -43 70q-22 3 -49 3h-166q167 -151 167 -364v-28
q0 -304 -269 -393h-31q-108 0 -308 173q-219 -162 -369 -162q-172 7 -171 158v586z" />
    <glyph glyph-name="uniA994" unicode="&#xa994;" horiz-adv-x="1672" 
d="M1052 1379q56 0 121 -107l29 -35q113 131 183 131q49 0 150 -115q21 -38 21 -83v-853l-4 -7q-175 83 -179 90v249q0 215 -4 588q-2 11 -21 20q-45 0 -206 -202h-12q-94 209 -148 209q-65 0 -210 -228h-8q-8 79 -8 90q169 253 296 253zM517 1375q108 0 175 -146
q4 -294 4 -489v-292q0 -44 49 -44h358q-158 96 -216 146q-28 33 -36 59q0 8 174 31q0 -2 4 -2q-8 -17 -8 -44q0 -89 236 -190q22 0 74 -91v-3l-20 3h-574q-158 0 -195 72q-29 40 -29 122v675q-2 67 -24 67h-13q-76 0 -178 -198q-37 -90 -37 -161v-28q0 -198 155 -360
q0 -17 -94 -150q-50 58 -97 202q-45 167 -45 305v19q0 224 228 438q71 58 109 59z" />
    <glyph glyph-name="uniA994.conj" 
d="M-622 202q57 0 142 -116q112 106 187 106q75 -14 154 -97q17 -27 17 -86v-657l-4 -6q-175 66 -179 73v3q0 180 -4 653q0 23 -21 29q-50 -3 -210 -161h-8q-53 106 -131 164l-8 3h-13q-58 0 -210 -183h-4q-8 48 -8 70q162 205 300 205zM-816 -653q1 1 1 2h-138
q-164 0 -203 60q-25 35 -25 85v64q0 181 -4 517q-8 23 -31 23q-84 0 -183 -164q-29 -57 -37 -132q0 -137 126 -280q32 -16 32 -21v-7q-90 -113 -94 -113q-42 29 -101 170q-41 130 -41 222v37q0 163 220 339q79 50 121 50q99 0 167 -110l4 -17q4 -458 4 -628q0 -18 45 -22
h362q-157 78 -203 108q-48 40 -48 60q151 21 175 21v-3l-4 -32q0 -75 234 -154q18 0 70 -67q4 0 4 -3l-8 -3h-423v-2h-22z" />
    <glyph glyph-name="uniA995" unicode="&#xa995;" horiz-adv-x="1920" 
d="M749 1379h29q88 0 179 -161q16 -44 16 -92v-417q0 -17 106 -159q54 -63 98 -63q90 0 175 111q51 108 51 232q0 238 -101 395q-31 47 -117 68h-4q22 74 37 86h317q210 0 243 -79q24 -40 24 -118v-865l-4 -7q-175 82 -179 90q8 644 12 797q0 88 -43 88q-22 4 -49 4h-196
q167 -189 167 -455v-35q0 -380 -269 -462h-31q-96 0 -241 205v4h-4q0 -125 -78 -158q-116 -78 -170 -78q-69 11 -155 121q-65 92 -65 171v23q0 145 175 222q43 12 53 12h65v330q0 96 -53 96q-20 4 -49 4h-64q-214 0 -329 -242q-33 -94 -33 -153v-20q0 -210 150 -367h4v-5
q0 -16 -94 -150q-46 54 -93 190q-49 172 -49 317v27q0 232 212 426q99 63 117 63q160 4 240 4zM658 569q15 -153 84 -169h13q26 0 28 94v33q0 74 4 217l-16 11h-16q-32 0 -66 -63q-31 -65 -31 -123z" />
    <glyph glyph-name="uniA995.conj" 
d="M-461 -413q104 -126 57 -252q-61 -159 -179 -169h-28q-79 0 -137 69q-22 52 -22 86v706q-4 89 -24 91h-21q-57 0 -57 -121v-945q-26 -105 -113 -105h-424q-331 26 -288 411q52 502 613 890l34 -34q-412 -355 -464 -894q-13 -261 185 -287h254q137 0 137 105v883
q0 143 78 169l62 10q104 0 191 -150q20 -41 20 -61v-322q336 -24 410 -142q48 -69 45 -188l-184 84q0 123 -145 166zM-607 -679q6 -65 51 -65.5t80 108.5q34 107 -118 243q-7 1 -13 1v-287z" />
    <glyph glyph-name="uniA996" unicode="&#xa996;" horiz-adv-x="1809" 
d="M658 1419q31 -35 33 -54q-130 -54 -167 -138q-68 -139 -116 -521q-14 -152 -7 -262q4 -51 80 -47l9 2q41 1 81 427q39 341 72 404q55 75 134 79q83 6 176 -61q65 -57 74 -169l2 -32q6 -79 -142 -607l2 -4q0 -13 39 -17q75 4 122 387q41 271 76 274q18 20 47 22
q83 4 162 -70q52 -59 60 -172l2 -43q4 -71 -89 -325q-6 -42 -6 -45q2 -16 25 -22q53 3 56 173q35 162 108 166l48 1q36 1 101 -61q11 -17 11 -29q2 -38 -106 -77v-4q134 -41 138 -114q10 -170 -53 -175q-141 -2 -192 186h-4q9 -142 -92 -148l-14 -1q-117 -7 -161 181v9
q7 45 82 368l-3 43q-9 40 -46 39l-23 -2q-37 -2 -71 -314q-45 -307 -78 -308q-37 -39 -83 -41q-75 -4 -152 50q-57 93 -69 175q13 78 128 550l-3 48q-3 46 -75 59q-31 -3 -72 -67q-29 -59 -96 -744q-34 -89 -119 -94q0 -3 -31 -5q-120 -6 -186 108q-73 105 -79 186
q-11 160 130 610q35 74 120 122q108 64 217 104zM1453 619q19 10 19 20l68 2q40 33 37 65h-6q-73 -2 -118 -84v-3zM1446 590l1 -23q30 -117 105 -116q21 27 18 76q-3 44 -124 63z" />
    <glyph glyph-name="uniA996.conj" 
d="M-532 -591q137 -82 6 77zM-505 -459l53 23q38 21 33 65h-5q-40 -4 -81 -85v-3zM-816 -330l84 -42l28 124l-2 44q-9 38 -42 36l-21 -1q-24 -2 -47 -161zM-1622 -283l19 81q-145 5 -138 -23q7 -24 119 -58zM-1318 -351q0 10 1 18q5 51 11 95q-67 13 -125 20
q-7 -51 -17 -108q58 -12 130 -25zM-1132 -382l22 103l-49 11q-38 8 -75 17q-7 -50 -12 -112zM-894 -422q5 33 10 72q-28 10 -56 19l-18 -79q33 -5 64 -12zM-748 -449q3 21 9 42l-82 33q-4 -27 -8 -59zM-607 -488q-17 -62 -44 -143q-5 -41 -5 -44q2 -16 22 -20q48 3 51 172
q3 18 5 33zM-573 -457q31 171 87 176l17 1q33 3 122 -98q10 -16 10 -27q3 -38 -112 -95q336 107 321 -176l-164 53q27 101 -122 82l81 -98q17 -57 -89 -70l-90 66l-20 46l-1 -32l-4 -2q8 -138 -83 -146l-13 -2q-105 -9 -145 178v8q3 24 25 121q-40 5 -78 9q-1 -10 -2 -19
q-41 -304 -71 -306q-33 -39 -75 -42q-67 -5 -137 48q-52 91 -62 170q5 41 38 188q-58 8 -112 17l-33 -359q-31 -88 -107 -94q0 -3 -28 -6q-109 -8 -168 105q-66 102 -72 182q-4 84 29 253q-99 29 -177 64q-197 90 -212 147q-15 58 198 55q111 -3 249 -25q14 53 31 111
q31 74 108 122q98 66 196 107q28 -33 30 -52q-118 -56 -151 -139q-28 -64 -52 -181l115 -26l1 -2q24 171 43 213q50 75 122 80q74 8 158 -57q60 -55 67 -166l2 -30q3 -38 -25 -172l50 -24q34 226 63 229q16 22 42 23q75 5 147 -66q46 -57 54 -170l1 -23q2 -39 -23 -138z
M-576 -478l-24 12q-1 -7 -4 -13q14 -3 27 -7q0 4 1 8zM-897 -455l-70 8q-25 -113 -64 -263l2 -4q0 -12 35 -15q57 5 97 274zM-1323 -397q-68 12 -131 25q-4 -39 -10 -82q-12 -151 -6 -260q4 -50 72 -45l8 3q35 1 67 359zM-1224 -166q63 -18 129 -43l32 144l-2 48
q-3 45 -68 57q-28 -3 -65 -67q-10 -23 -26 -139z" />
    <glyph glyph-name="uniA997" unicode="&#xa997;" horiz-adv-x="1859" 
d="M521 1374q91 0 167 -130q0 -9 4 -16q4 -372 4 -568v-213q0 -44 45 -44h273q-203 153 -203 403v12q0 228 117 414q101 131 208 131h37q97 0 413 -163q59 -23 103 -23h8v-8q-111 -134 -121 -134q-58 0 -297.5 -65.5t-251.5 -65.5q9 -9 214.5 -40t353.5 -166t133 -395
q-58 36 -180 92v27q-23 344 -648 424l-4 -21v-11q0 -191 178 -371q58 -40 107 -44q49 -63 60 -87q-12 0 -12 -3l-19 3h-355q-25 0 -60 -3q-189 0 -241 55q-41 53 -41 137v687q-4 60 -24 60h-15q-70 0 -172 -190q-40 -94 -40 -169v-28q0 -174 134 -343q19 -8 20 -17
q0 -17 -94 -150q-85 88 -138 403q-4 59 -4 100v15q0 217 204 426q94 79 137 79zM902 911l47 20q80 37 483 164v4q-136 59 -272 94q-128 43 -232 -177q-12 -37 -26 -105z" />
    <glyph glyph-name="uniA997.conj" 
d="M-358 -340.5q-71 141.5 -288 62.5q62 -38 95 -175q72 -305 -161 -484q-67 -37 -121 -55l-50 -16q-273 -83 -518 19q-201 119 -248 313l-7 30q-94 405 454 728q108 66 278 118l308 103l9 -64q-266 -61 -464 -200t-356 -424q-101 -249 -74 -366l5 -22q56 -235 586 -123
q232 73 199 329q-8 268 -327 224l-28 109q350 95 566 96.5t331 -150.5t-249 -616l-71 5q202 417 131 558.5z" />
    <glyph glyph-name="uniA997.conj_full" 
d="M-315 -600l-12 388q-2 12 -12 32q-78 175 -403 -86q218 -50 251 -187q72 -305 -161 -484q-67 -37 -121 -55l-50 -16q-273 -83 -518 19q-201 119 -248 313l-7 30q-94 405 454 728q108 66 278 118l308 103l9 -64q-266 -61 -464 -200t-356 -424q-101 -249 -74 -366l5 -22
q56 -235 586 -123q232 73 199 329q-8 268 -327 224l-28 109q347 179 550 212.5t306 -106.5q29 -38 28 -97l-8 -432z" />
    <glyph glyph-name="uniA998" unicode="&#xa998;" horiz-adv-x="1859" 
d="M521 1374q91 0 167 -130q0 -9 4 -16q4 -372 4 -568v-213q0 -44 45 -44h273q-203 153 -203 403v12q0 228 117 414q101 131 208 131h37q97 0 413 -163q59 -23 103 -23h8v-8q-111 -134 -121 -134q-58 0 -297.5 -65.5t-251.5 -65.5q9 -9 214.5 -40t353.5 -166t133 -395
q-58 36 -180 92v27q-23 344 -648 424l-4 -21v-11q0 -191 178 -371q58 -40 107 -44q49 -63 60 -87q-12 0 -12 -3l-19 3h-355q-25 0 -60 -3q-189 0 -241 55q-41 53 -41 137v687q-4 60 -24 60h-15q-70 0 -172 -190q-40 -94 -40 -169v-28q0 -174 134 -343q19 -8 20 -17
q0 -17 -94 -150q-85 88 -138 403q-4 59 -4 100v15q0 217 204 426q94 79 137 79zM902 911l47 20q80 37 483 164v4q-136 59 -272 94q-128 43 -232 -177q-12 -37 -26 -105zM853 309v-2l102 -31v-4q-44 -48 -193 -138v-4h7q383 0 468 -122q62 -61 91 -218q-4 0 -4 -3l-22 3h-17
q-133 -7 -169 -7q19 57 19 102q0 186 -263 186q-48 0 -153 -36q-7 0 -23 103q125 114 139 171h18z" />
    <glyph glyph-name="uniA998.conj" 
d="M-626 -267q62 -38 95 -172q72 -300 -161 -476q-67 -36 -121 -53l-50 -16q-273 -82 -518 18q-201 117 -248 308l-7 29q-94 398 454 715q108 65 278 116l308 101l9 -62q-266 -61 -464 -197t-356 -417q-101 -244 -74 -359l5 -22q56 -230 586 -120q232 72 199 323
q-8 263 -327 220l-28 107q350 93 566 94.5t331 -147.5t-249 -605l-71 5q202 410 131 548.5t-288 61.5zM-1080 -1028q-45 -172 119 -145q3 -35 3 -44q-194 -90 -264 -40q-76 31 15 233l51 90q57 93 41.5 150.5t-115.5 27.5l-4 8q37 49 57 97l21 -4h31q103 8 169.5 -18
t-34.5 -154q-67 -95 -90 -201z" />
    <glyph glyph-name="uniA998.conj_full" 
d="M-1100 -1028q-45 -172 119 -145q3 -35 3 -44q-194 -90 -264 -40q-76 31 15 233l51 90q57 93 41.5 150.5t-115.5 27.5l-4 8q37 49 57 97l21 -4h31q103 8 169.5 -18t-34.5 -154q-67 -95 -90 -201zM-315 -600l-12 388q-2 12 -12 32q-78 175 -403 -86q218 -50 251 -187
q72 -305 -161 -484q-67 -37 -121 -55l-50 -16q-273 -83 -518 19q-201 119 -248 313l-7 30q-94 405 454 728q108 66 278 118l308 103l9 -64q-266 -61 -464 -200t-356 -424q-101 -249 -74 -366l5 -22q56 -235 586 -123q232 73 199 329q-8 268 -327 224l-28 109
q347 179 550 212.5t306 -106.5q29 -38 28 -97l-8 -432z" />
    <glyph glyph-name="uniA999" unicode="&#xa999;" horiz-adv-x="2164" 
d="M1515 1577v-12q0 -52 175 -197q4 55 4 71q0 41 -4 169q-18 32 -57 32h-33q-85 -15 -85 -63zM526 1374q90 0 162 -130q8 -18 8 -52v-292q0 -155 4 -470q4 -27 45 -27h321q-12 13 -162 102q-78 63 -90 103q0 8 179 31v-4q-5 -27 -9 -36q0 -99 257 -204q45 -69 57 -80v-4
h-569q-212 0 -212 174q-4 95 -4 221v498q0 30 -24 43h-17q-78 -17 -154 -162q-57 -107 -57 -213q0 -193 143 -359q6 0 15 -16q-78 -130 -93 -142h-4q-54 59 -101 225q-41 155 -41 292q0 222 224 439q78 63 122 63zM1690 1218q-236 240 -236 303l-4 20q0 145 191 312
q30 12 37 12h12q82 -59 82 -106v-440q107 -83 150 -126q126 -129 126 -248q0 -149 -90 -288h-8q-6 0 -33 31q9 86 -4 163q-14 109 -141 285v-1953q-4 -121 -97 -173q-98 -45 -186 3q-236 -242 -557 -301q-347 -21 -533 104t-186 330q0 492 725 697q430 215 432 471
q8 279 5 897q0 29 -21 44q-49 0 -210 -201h-4l-61 111q-58 98 -95 98q-65 0 -206 -229h-12q-4 72 -4 95q169 249 296 249q51 0 101 -84q4 0 49 -62q103 133 183 133q48 0 150 -118q17 -33 17 -63l-5 -942q8 -138 -149.5 -295.5t-481.5 -290.5q-591 -214 -591 -610l40 -101
q154 -197 584 -95q165 43 436 306h8q151 -93 207 -52q79 23 83 154z" />
    <glyph glyph-name="uniA999.conj" horiz-adv-x="609" 
d="M-40 1577v-12q0 -52 175 -197q4 55 4 71q0 41 -4 169q-18 32 -57 32h-33q-85 -15 -85 -63zM135 1218q-236 240 -236 303l-4 20q0 145 191 312q30 12 37 12h12q82 -59 82 -106v-440q107 -83 150 -126q126 -129 126 -248q0 -149 -90 -288h-8q-6 0 -33 31q9 86 -4 163
q-14 109 -141 285l2 -1933q-4 -121 -97 -173q-98 -45 -186 3q-236 -242 -557 -301q-347 -21 -533 104t-186 330q0 492 725 697q882 110 -16 -187q-591 -214 -591 -610l40 -101q154 -197 584 -95q165 43 436 306h8q151 -93 207 -52q79 23 83 154z" />
    <glyph glyph-name="uniA999.conj_full" horiz-adv-x="612" 
d="M496 1009v-1719h-182v1719h182zM-30 1577v-12q0 -52 175 -197q4 55 4 71q0 41 -4 169q-18 32 -57 32h-33q-85 -15 -85 -63zM135 1218q-236 240 -236 303l-4 20q0 145 191 312q30 12 37 12h12q82 -59 82 -106v-440q107 -83 150 -126q126 -129 126 -248q0 -149 -90 -288h-8
q-6 0 -33 31q9 86 -4 163q-14 109 -141 285l2 -1813q-4 -121 -97 -173q-98 -45 -186 3q-236 -242 -557 -361q-347 -81 -533 44t-186 330q0 492 725 697q882 110 -16 -187q-591 -214 -591 -610l40 -101q154 -197 584 -35q165 103 436 366h8q151 -93 207 -52q79 23 83 154z
" />
    <glyph glyph-name="uniA999.full" horiz-adv-x="2164" 
d="M1515 1577v-12q0 -52 175 -197q4 55 4 71q0 41 -4 169q-18 32 -57 32h-33q-85 -15 -85 -63zM526 1374q90 0 162 -130q8 -18 8 -52v-292q0 -155 4 -470q4 -27 45 -27h321q-12 13 -162 102q-78 63 -90 103q0 8 179 31v-4q-5 -27 -9 -36q0 -99 257 -204q45 -69 57 -80v-4
h-569q-212 0 -212 174q-4 95 -4 221v498q0 30 -24 43h-17q-78 -17 -154 -162q-57 -107 -57 -213q0 -193 143 -359q6 0 15 -16q-78 -130 -93 -142h-4q-54 59 -101 225q-41 155 -41 292q0 222 224 439q78 63 122 63zM1690 1218q-236 240 -236 303l-4 20q0 145 191 312
q30 12 37 12h12q82 -59 82 -106v-440q107 -83 150 -126q126 -129 126 -248q0 -149 -90 -288h-8q-6 0 -33 31q9 86 -4 163q-14 109 -141 285v-1953q-4 -121 -97 -173q-98 -45 -186 3q-236 -242 -557 -301q-347 -21 -533 104t-186 330q0 492 725 697q430 215 432 471
q8 279 5 897q0 29 -21 44q-49 0 -210 -201h-4l-61 111q-58 98 -95 98q-65 0 -206 -229h-12q-4 72 -4 95q169 249 296 249q51 0 101 -84q4 0 49 -62q103 133 183 133q48 0 150 -118q17 -33 17 -63l-5 -942q8 -138 -149.5 -295.5t-481.5 -290.5q-591 -214 -591 -610l40 -101
q154 -197 584 -95q165 43 436 306h8q151 -93 207 -52q79 23 83 154zM1868 1050l179 -97v-1191l-179 112v1176z" />
    <glyph glyph-name="uniA999.short" horiz-adv-x="2164" 
d="M1515 1577v-12q0 -52 175 -197q4 55 4 71q0 41 -4 169q-18 32 -57 32h-33q-85 -15 -85 -63zM526 1374q90 0 162 -130q8 -18 8 -52v-292q0 -155 4 -470q4 -27 45 -27h321q-12 13 -162 102q-78 63 -90 103q0 8 179 31v-4q-5 -27 -9 -36q0 -99 257 -204q45 -69 57 -80v-4
h-569q-212 0 -212 174q-4 95 -4 221v498q0 30 -24 43h-17q-78 -17 -154 -162q-57 -107 -57 -213q0 -193 143 -359q6 0 15 -16q-78 -130 -93 -142h-4q-54 59 -101 225q-41 155 -41 292q0 222 224 439q78 63 122 63zM1690 1218q-236 240 -236 303l-4 20q0 145 191 312
q30 12 37 12h12q82 -59 82 -106v-440q107 -83 150 -126q126 -129 126 -248q0 -149 -90 -288h-8q-6 0 -33 31q9 86 -4 163q-14 109 -141 285v-1243q-4 -121 -97 -173q-98 -45 -206 3q-236 -222 -537 -201q-297 49 -418 174t-121 240q0 192 545 217q440 5 442 191
q-2 249 -5 867q0 29 -21 44q-49 0 -210 -201h-4l-61 111q-58 98 -95 98q-65 0 -206 -229h-12q-4 72 -4 95q169 249 296 249q51 0 101 -84q4 0 49 -62q103 133 183 133q48 0 150 -118q17 -33 17 -63l5 -872q-22 -188 -235 -214l-406 -52q-411 -94 -411 -210v-11
q64 -127 364 -195q225 -27 496 206h8q171 -63 227 -22q79 23 83 154zM1868 1070l179 -136v-1667l-179 157v1646z" />
    <glyph glyph-name="_1" 
 />
    <glyph glyph-name="uniA99A" unicode="&#xa99a;" horiz-adv-x="2581" 
d="M1061 1379q55 0 127 -119l25 -27q101 135 183 135q103 -42 158 -139q8 -29 8 -55v-691q0 -91 33 -91q64 0 64 79v31q0 5 4 5q0 4 -4 4q-4 211 -8 256l8 430q0 80 -80 115v4q16 52 27 52h199q120 0 204 -190v-24q0 -223 4 -706q8 -56 32 -56q66 0 66 79q0 23 -8 265
q4 351 4 482q0 49 -82 102q22 48 29 48h211q97 0 191 -179q5 -143 9 -876q-4 0 -4 -3q-159 74 -175 90q-8 685 -8 797q0 50 -86 75q-11 -1 -21 -15q4 -86 4 -127v-221q0 -164 4 -407q0 -192 -134 -192h-8q-117 0 -203 184q-4 22 -4 37q0 186 -4 679q-37 62 -89 62
q-12 -9 -12 -23h-5l5 -35q4 -575 4 -727q0 -177 -138 -177h-12q-102 0 -188 173q-12 26 -12 44v280q0 147 -4 430q0 5 -16 20q-54 0 -212 -202h-12q-92 209 -146 209q-64 0 -212 -228h-8q0 11 -8 90q170 253 300 253zM878 309q1 1 1 2h-138q-164 0 -203 75q-25 44 -25 107
v79q0 227 -4 647q-8 28 -31 28q-84 0 -183 -205q-29 -71 -37 -165q0 -171 126 -349q32 -21 32 -27v-8q-90 -142 -94 -142q-42 37 -101 213q-41 162 -41 277v46q0 204 220 424q79 63 121 63q99 0 167 -138l4 -21q4 -573 4 -785q0 -23 45 -27h362q-157 97 -203 134
q-48 51 -48 75q151 27 175 27v-4l-4 -40q0 -94 234 -192q18 0 70 -84q4 0 4 -4l-8 -4h-423v-2h-22z" />
    <glyph glyph-name="uniA99A.conj" horiz-adv-x="762" 
d="M-290 -77q-541 -97 -729 -247q-371 -234 -371 -630l40 -101q94 -197 364 -95q125 43 396 306h8q151 -93 207 -52q79 23 83 154zM-109 -27l1 -764q-38 -158 -200 -199q-98 -45 -186 3q-236 -242 -517 -301q-187 -21 -343 104t-156 330q0 492 505 717q315 119 713 200v355
l183 -94v-215q125 34 129 128l-4 1001q10 138 157 153h25q224 0 224 -197l-4 -2052q0 -204 166 -292q2 -3 62 -36q0 -4 -41 -64q-223 102 -322 214q-44 63 -44 130v2073q0 130 -53 130h-29q-53 -10 -53 -84v-1020q4 -159 -213 -220z" />
    <glyph glyph-name="_2" 
d="M204 -1262q-15 13 -40 13h-90q-188 0 -257 -245q-8 -48 -8 -77v-30q0 -126 141 -230q30 -10 77 -18l50 -56l-7 -4h-369q-160 0 -203 44q-23 31 -30 79q4 115 4 177v311q0 21 -36 24q-62 0 -152 -127q-39 -66 -39 -124v-3q0 -152 141 -258q-80 -98 -80 -100h-8
q-50 47 -89 151q-37 110 -37 197q0 200 229 325q50 23 67 23h19q71 0 137 -87q7 -23 7 -34v-481q0 -51 26 -51q24 -4 40 -4h185q-152 127 -152 312q0 279 163 340q33 8 61 8h40q69 0 123 2q171 0 213 -38q37 -30 37 -86l7 -489q0 -53 33 -53q19 0 103 19q193 58 274 4
q76 -77 -8 -212l-57 33q-40 113 -172 105q-50 1 -83.5 -1t-71.5 -2q-91 0 -170 112q-11 20 -11 37zM-290 -77q-541 -97 -729 -247q-371 -234 -371 -630l40 -101q94 -197 364 -95q125 43 396 306h8q151 -93 207 -52q79 23 83 154zM-109 -27l1 -764q-38 -158 -200 -199
q-98 -45 -186 3q-236 -242 -517 -301q-187 -21 -343 104t-156 330q0 492 505 717q315 119 713 200v355l183 -94v-215q125 34 129 128l-4 1001q10 138 157 153h25q224 0 224 -197l-4 -2052q0 -204 166 -292q2 -3 62 -36q0 -4 -41 -64q-223 102 -322 214q-44 63 -44 130v2073
q0 130 -53 130h-29q-53 -10 -53 -84v-1020q4 -159 -213 -220z" />
    <glyph glyph-name="uniA99A.conj_old" 
d="M-1528 203q55 0 127 -95l25 -22q101 108 183 108q103 -33 158 -111q8 -23 8 -44v-553q0 -72 33 -72q64 0 64 63v25q0 4 4 4q0 3 -4 3q-4 169 -8 205l8 344q0 64 -80 92v3q16 41 27 41h199q120 0 204 -152v-19q0 -178 4 -565q8 -44 32 -44q66 0 66 63q0 18 -8 212
q4 281 4 385q0 40 -82 82q22 38 29 38h211q97 0 191 -143q5 -114 9 -701q-4 0 -4 -2q-159 59 -175 72q-8 548 -8 638q0 40 -86 60q-11 -1 -21 -12q4 -69 4 -102v-177q0 -131 4 -325q0 -154 -134 -154h-8q-117 0 -203 147q-4 18 -4 30q0 149 -4 543q-37 50 -89 50
q-12 -8 -12 -19h-5l5 -28q4 -460 4 -581q0 -142 -138 -142h-12q-102 0 -188 138q-12 21 -12 36v224q0 117 -4 344q0 4 -16 16q-54 0 -212 -162h-12q-92 167 -146 167q-64 0 -212 -182h-8q0 9 -8 72q170 202 300 202zM-1711 -653q1 1 1 2h-138q-164 0 -203 60q-25 35 -25 85
v64q0 181 -4 517q-8 23 -31 23q-84 0 -183 -164q-29 -57 -37 -132q0 -137 126 -280q32 -16 32 -21v-7q-90 -113 -94 -113q-42 29 -101 170q-41 130 -41 222v37q0 163 220 339q79 50 121 50q99 0 167 -110l4 -17q4 -458 4 -628q0 -18 45 -22h362q-157 78 -203 108
q-48 40 -48 60q151 21 175 21v-3l-4 -32q0 -75 234 -154q18 0 70 -67q4 0 4 -3l-8 -3h-423v-2h-22z" />
    <glyph glyph-name="uniA99A.conj_full" horiz-adv-x="539" 
d="M-290 -77q-541 -97 -729 -247q-371 -234 -371 -630l40 -101q94 -197 364 -95q125 43 396 306h8q151 -93 207 -52q79 23 83 154zM17 1229q10 138 157 153h25q224 0 224 -197l-2 -894l-181 4v863q0 130 -53 130h-29q-53 -10 -53 -84l-1 -1011q4 -159 -213 -220l1 -764
q-38 -158 -200 -199q-98 -45 -186 3q-236 -242 -517 -301q-187 -21 -343 104t-156 330q0 492 505 717q315 119 713 200v355l183 -94v-215q125 34 129 128zM414 1009v-1719h-182v1719h182z" />
    <glyph glyph-name="uniA99A.conj_short" horiz-adv-x="539" 
d="M-290 -77q-541 -97 -729 -247q-371 -234 -371 -630l40 -101q94 -197 364 -95q125 43 396 306h8q151 -93 207 -52q79 23 83 154zM17 1229q10 138 157 153h25q224 0 224 -197l-2 -894l-181 4v863q0 130 -53 130h-29q-53 -10 -53 -84l-1 -1011q4 -159 -213 -220l1 -764
q-38 -158 -200 -199q-98 -45 -186 3q-236 -242 -517 -301q-187 -21 -343 104t-156 330q0 492 505 717q315 119 713 200v355l183 -94v-215q125 34 129 128z" />
    <glyph glyph-name="uniA99B" unicode="&#xa99b;" horiz-adv-x="1674" 
d="M1062 1379q51 0 138 -146q115 135 187 135q47 0 146 -111q25 -34 25 -99v-841l-4 -7q-176 82 -179 90v23q0 305 -4 802q-6 32 -21 32q-52 -6 -211 -202h-7q-96 209 -148 209q-64 0 -214 -228h-4q-8 58 -8 90q164 253 304 253zM521 1375q95 0 163 -130q8 -16 8 -27
q0 -183 8 -766q0 -57 70 -83h7q151 229 314 229h28q107 0 196 -131l4 -19q0 -58 -152 -123q-103 -40 -207 -40h-7q-10 0 -16 -4q-11 3 -74 8q18 -129 121 -129h17q34 0 162 19q0 -4 4 -4q-26 -79 -48 -79q-128 -47 -203 -47h-29q-112 0 -150 94q-8 30 -8 56q0 48 25 111
q-237 42 -237 224q0 106 -8 688q-8 27 -33 27q-79 0 -178 -198q-37 -86 -37 -157v-43q0 -167 139 -336q15 -2 15 -13q0 -15 -93 -150q-98 109 -142 439v99q0 201 220 422q81 63 121 63zM871 356h37q138 0 228 67q8 21 11 21q0 43 -97 58q-88 0 -179 -146z" />
    <glyph glyph-name="uniA99B.conj" 
d="M-736 -243q-25 5 -49.5 -17t-26.5 -73q-12 -94 78 -229q40 159 43 210q2 51 -9 78t-36 31zM-677 -659q113 -142 243 -155q120 -19 155 79q61 142 61 280q0 264 -93 387q-73 113 -179 153q52 78 118 121l88 -112q150 -226 153 -553v-79q-68 -467 -340 -440
q-138 13 -290 175q-184 -300 -415 -239q-287 107 -284.5 499t344.5 633q49 36 181 126l13 -46q-116 -49 -258.5 -234t-117.5 -475t178 -380q190 -48 303 178q-67 118 -80 155q-29 82 -24 188q16 106 72.5 174.5t113.5 59.5t86.5 -91t13.5 -188q-10 -69 -42 -216z" />
    <glyph glyph-name="uniA99B.conj_full" 
d="M-1042 -243q-25 5 -49.5 -17t-26.5 -73q-12 -94 78 -229q40 159 43 210q2 51 -9 78t-36 31zM-448 -459v-79q-68 -467 -340 -440q-138 13 -290 175q-184 -300 -415 -239q-287 107 -284.5 499t344.5 633q49 36 181 126l13 -46q-116 -49 -258.5 -234t-117.5 -475t178 -380
q190 -48 303 178q-67 118 -80 155q-29 82 -24 188q16 106 72.5 174.5t113.5 59.5t86.5 -91t13.5 -188q-10 -69 -42 -216q113 -142 243 -155q120 -19 155 79q61 142 61 280l-2 494q10 138 157 153h25q224 0 224 -197l-1 -657h-182v630q0 130 -53 130h-29q-53 -10 -53 -84z
" />
    <glyph glyph-name="uniA99C" unicode="&#xa99c;" horiz-adv-x="1674" 
d="M1054 1379q57 0 121 -111q11 0 25 -35q116 135 187 135q47 0 146 -111q25 -35 25 -99v-841l-4 -7q-176 82 -179 90v21q0 284 -4 808q-4 24 -13 24h-12q-49 0 -202 -198h-12q-47 126 -131 205l-8 4h-5q-69 0 -218 -228h-4q-8 58 -8 90q168 253 296 253zM521 1375
q92 0 163 -126q8 -26 8 -31q0 -164 8 -770q0 -47 89 -79h4v4q0 2 -4 23q0 75 172 154q89 28 146 28q142 0 212 -119v-7q0 -83 -236 -146q-78 -21 -163 -21q-179 0 -325 75q-78 70 -78 178l-8 691l-20 20h-17q-80 -17 -166 -177q-49 -120 -49 -186q0 -202 143 -371
q16 -2 16 -13q0 -20 -94 -146q-39 28 -97 198q-45 167 -45 288v48q0 201 220 422q79 63 121 63zM908 400q4 -31 16 -31h52q139 6 139 62q-34 61 -94 61h-4q-109 -15 -109 -92z" />
    <glyph glyph-name="uniA99C.conj" 
d="M-119 -386v-35q0 -260 -134.5 -441t-355.5 -181q-234 -12 -393 143.5t-160 405.5q-7 282 208 509q49 66 201 148l13 -40q-76 -31 -166.5 -167t-103.5 -397q-13 -226 118 -364.5t320 -117.5q210 10 293 199.5t73 343.5q-10 151 -29 237q-12 -35 -32 -64q-50 -72 -120 -72
t-119 72t-49 174q0 101 44 163t114 62t120 -52q155 -240 158 -526zM-354 84q-27 0 -37.5 -39.5t-10.5 -95.5t19.5 -95t38.5 -39q27 0 46.5 39t19.5 95t-24.5 95.5t-51.5 39.5z" />
    <glyph glyph-name="uniA99C.conj_full" 
d="M-721 84q-27 0 -37.5 -39.5t-10.5 -95.5t26 -98.5t150 -27.5q-52 182 -76.5 221.5t-51.5 39.5zM-508 -184q107 16 251 -84q147 -102 147 -282l-1 -112h-182v80q0 130 -82 228q-71 84 -119 86q7 -58 8 -118v-35q0 -260 -134.5 -441t-355.5 -181q-234 -12 -393 143.5
t-160 405.5q-7 282 208 509q49 66 201 148l13 -40q-76 -31 -166.5 -167t-103.5 -397q-13 -226 118 -364.5t320 -117.5q210 10 293 199.5t73 343.5l-10 129q-101 -8 -171 -8t-119 62t-49 164q0 101 44 163t114 62t120 -52q99 -153 136 -324z" />
    <glyph glyph-name="uniA99D" unicode="&#xa99d;" horiz-adv-x="2074" 
d="M1608 1174q0 164 70 194q28 15 76 15q115 0 204 -197v-884q-126 53 -179 91v746q0 161 -33 161q-68 0 -68 -90v-353h1l-1 -79q6 -369 -263 -481h-31q-108 0 -308 217q-219 -203 -369 -203q-172 9 -171 198l-5 397q23 253 209 370h-129q-176 -29 -265.5 -157.5
t-83.5 -246.5v-12q0 -150 93 -300q26 -37 65 -71q-79 -129 -98 -146q-38 28 -97 202q-45 168 -45 299v20q10 256 232 426q129 79 262 79h246q15 -12 37 -86h-4q-86 -21 -151.5 -82t-88.5 -242l10 -427q2 -101 89.5 -86.5t345.5 309.5q143 -282 263 -308q60 0 112 77
q71 117 75 296v354z" />
    <glyph glyph-name="uniA99D.conj" 
d="M-419 -814q100 -19 155 79q61 142 61 280q0 264 -93 387q-73 113 -179 153q52 78 118 121l88 -112q150 -226 153 -553v-79q-68 -467 -340 -440q-99 3 -175 78t-124 191q-29 87 -42 -110q-74 -293 -364 -223q-287 107 -284.5 499t344.5 633q49 36 181 126l13 -46
q-116 -49 -258.5 -234t-117.5 -475t178 -380q140 -48 187 58.5t32 182.5q-4 106 32.5 174.5t93.5 59.5t140 -209q101 -168 201 -161z" />
    <glyph glyph-name="uniA99D.conj_full" 
d="M-526 39q10 138 157 153h25q224 0 224 -197l-1 -657h-182v630q0 130 -53 130h-29q-53 -10 -53 -84v-472v-79q-68 -467 -340 -440q-99 3 -175 78t-124 191q-29 87 -42 -110q-74 -293 -364 -223q-287 107 -284.5 499t344.5 633q49 36 181 126l13 -46q-116 -49 -258.5 -234
t-117.5 -475t178 -380q140 -48 187 58.5t32 182.5q-4 106 32.5 174.5t93.5 59.5t140 -209q101 -168 201 -161q100 -19 155 79q61 142 61 280q0 39 -1 493z" />
    <glyph glyph-name="uniA99E" unicode="&#xa99e;" horiz-adv-x="1860" 
d="M740 1276h-129q-176 -29 -265.5 -157.5t-83.5 -246.5v-12q0 -150 93 -300q26 -37 65 -71q-79 -129 -98 -146q-38 28 -97 202q-45 168 -45 299v20q10 256 232 426q129 79 262 79h246q15 -12 37 -86h-4q-86 -21 -151.5 -82t-88.5 -242l10 -427q2 -101 89.5 -86.5
t345.5 309.5q173 -282 323 -308q60 0 115 111q41 138 41 262q0 238 -73 313q-93 94 -209 120q82 104 148 148l88 -93q150 -190 153 -484v-35q0 -380 -269 -492h-31q-138 0 -368 217q-219 -203 -369 -203q-172 9 -171 198l-5 397q23 253 209 370z" />
    <glyph glyph-name="uniA99E.conj" 
d="M-1120 121h-129q-176 -23 -265.5 -126t-83.5 -197v-10q0 -120 93 -240q26 -30 65 -57q-79 -103 -98 -117q-38 23 -97 162q-45 134 -45 239v16q10 205 232 341q129 63 262 63h246q15 -9 37 -69h-4q-86 -16 -151.5 -65t-88.5 -194l10 -341q2 -81 89.5 -69.5t345.5 247.5
q173 -226 323 -246q60 0 115 88q41 111 41 210q0 190 -73 250q-93 76 -209 96q82 84 148 119l88 -75q150 -152 153 -387v-28q0 -304 -269 -393h-31q-138 0 -368 173q-219 -162 -369 -162q-172 7 -171 158l-5 318q23 202 209 296z" />
    <glyph glyph-name="uniA99E.conj_full" 
d="M-1319 -175l5 -318q-1 -151 171 -158q150 0 369 162q230 -173 368 -173h31q269 89 269 393v28q-3 235 -153 387l-88 75q-66 -35 -148 -119q116 -20 209 -96q73 -60 73 -250q0 -99 -41 -210q-55 -88 -115 -88q-150 20 -323 246q-258 -236 -345.5 -247.5t-89.5 69.5
l-10 341q23 145 88.5 194t151.5 65h4q-22 60 -37 69h-246q-133 0 -262 -63q-222 -136 -232 -341v-16q0 -105 45 -239q59 -139 97 -162q19 14 98 117q-39 27 -65 57q-93 120 -93 240v10q-6 94 83.5 197t265.5 126h129q-186 -94 -209 -296zM-234 -392v-253h113v253h-113z
M-232 -513l-54 -27v-114l54 11v130z" />
    <glyph glyph-name="uniA99E.alt" horiz-adv-x="1860" 
d="M531 906l5 -397q-1 -189 171 -198q150 0 369 203q230 -217 368 -217h31q269 112 269 492v35q-3 294 -153 484l-88 93q-66 -44 -148 -148q116 -26 209 -120q73 -75 73 -313q0 -124 -41 -262q-55 -111 -115 -111q-150 26 -323 308q-258 -295 -345.5 -309.5t-89.5 86.5
l-10 427q23 181 88.5 242t151.5 82h4q-22 74 -37 86h-246q-133 0 -262 -79q-222 -170 -232 -426v-20q0 -131 45 -299q59 -174 97 -202q19 17 98 146q-39 34 -65 71q-93 150 -93 300v12q-6 118 83.5 246.5t265.5 157.5h129q-186 -117 -209 -370zM1728 314v320l-161 -204
l1 -121z" />
    <glyph glyph-name="uniA99F" unicode="&#xa99f;" horiz-adv-x="2776" 
d="M965 1364h37q149 0 288 -257q15 -37 15 -67v-581q16 -55 57 -55h17q20 8 20 40v659q0 180 163 245q44 16 85 16h41q144 0 288 -273q7 -27 7 -48v-591q27 -48 57 -48h16q21 10 21 32v667q0 176 159 245q43 16 86 16h43q142 0 284 -269q11 -26 11 -63v-715l-2 -7
q-175 80 -181 94v711q0 137 -58 167h-21q-202 20 -248 -173q-4 -21 -4 -39v-649q0 -111 -139 -111h-8q-142 0 -191 106l-4 24v589q0 209 -47 239q0 4 -16 4h-21q-147 20 -212 -84q-39 -59 -39 -118v-639q0 -92 -58 -110q-35 -11 -82 -11h-20q-187 20 -187 149v650
q0 133 -71 163h-8q-204 30 -248 -166q-4 -36 -4 -60v-646q0 -90 -139 -90q-133 -10 -183 93q-21 97 -21 128q4 376 4 528q-11 103 -43 103q-104 0 -167 -157l-8 -60q0 -104 121 -197q-17 -90 -69 -146h-4q-122 208 -122 391q0 131 146 252q43 27 70 27h12q94 0 220 -165
q11 -50 11 -87v-522q14 -94 65 -94h17q20 0 24 59v676q0 135 163 213q52 12 77 12z" />
    <glyph glyph-name="uniA99F.conj" 
d="M-1821 191h37q149 0 288 -205q15 -30 15 -54v-465q16 -44 57 -44h17q20 7 20 32v527q0 144 163 196q44 13 85 13h41q144 0 288 -218q7 -22 7 -39v-472q27 -39 57 -39h16q21 8 21 26v533q0 141 159 196q43 13 86 13h43q142 0 284 -215q11 -21 11 -50v-572l-2 -6
q-175 64 -181 75v569q0 110 -58 134h-21q-202 16 -248 -139q-4 -17 -4 -31v-519q0 -89 -139 -89h-8q-142 0 -191 85l-4 19v471q0 167 -47 191q0 4 -16 4h-21q-147 16 -212 -68q-39 -47 -39 -94v-511q0 -74 -58 -88q-35 -9 -82 -9h-20q-187 16 -187 119v520q0 107 -71 131h-8
q-204 24 -248 -133q-4 -29 -4 -48v-517q0 -72 -139 -72q-133 -8 -183 74q-21 78 -21 103q4 301 4 422q-11 83 -43 83q-104 0 -167 -126l-8 -48q0 -83 121 -158q-17 -72 -69 -116h-4q-122 166 -122 312q0 105 146 202q43 22 70 22h12q94 0 220 -132q11 -40 11 -70v-418
q14 -75 65 -75h17q20 0 24 47v541q0 108 163 171q52 9 77 9z" />
    <glyph glyph-name="uniA9A0" unicode="&#xa9a0;" horiz-adv-x="2257" 
d="M527 1375q94 0 166 -138q5 -22 5 -36v-43q0 -243 4 -727q0 -23 43 -27h521q62 0 81 40q-4 99 -4 146v106q0 126 -61 126h-4l-317 -94q-146 34 -146 110v399q0 85 93 115q53 15 211 15h379q91 0 183 -166q0 -2 8 -23q4 -501 4 -723q5 -62 33 -63q65 0 65 71q0 87 -8 281
q4 206 4 410v35q0 4 4 4q0 81 -82 119v4q0 26 29 51h199q110 0 196 -170q8 -27 8 -43v-848q-171 82 -171 87l-4 21q0 118 -8 792q-38 66 -86 66q-6 0 -21 -16q4 -68 4 -82q0 -130 4 -676q0 -189 -133 -189h-4q-133 0 -212 206v336q0 129 -4 359q-32 62 -105 62h-282
q-226 0 -226 -83v-11q0 -23 -4 -189q13 -84 80 -84q242 99 269 99q94 0 183 -162q4 -122 4 -193v-209q-19 -131 -98 -131h-455q-297 0 -314 60q-19 0 -39 94q-4 379 -4 572v179q0 35 -33 35h-8q-81 -23 -155 -162q-57 -115 -57 -209q0 -202 146 -367q12 0 12 -13
q-79 -132 -92 -142h-5q-68 81 -114 273q-29 147 -29 241q0 176 156 371q123 134 191 134z" />
    <glyph glyph-name="uniA9A0.conj" 
d="M-214 -661q-122 9 -196 167v273q0 105 -4 292q-32 50 -105 50h-282q-226 0 -226 -67v-9q0 -19 -4 -154q13 -68 80 -68q242 80 269 80q94 0 183 -131q4 -99 4 -157v-170q-19 -107 -98 -107h-455q-297 0 -314 49q-19 0 -39 77q-4 308 -4 465v145q0 29 -33 29h-8
q-81 -19 -155 -132q-57 -94 -57 -170q0 -164 146 -298q12 0 12 -11q-79 -107 -92 -115h-5q-68 65 -114 222q-29 119 -29 195q0 144 156 302q123 109 191 109q94 0 166 -112q5 -18 5 -29v-35q0 -198 4 -591q0 -19 43 -22h521q62 0 81 32q-4 81 -4 119v86q0 102 -61 102h-4
l-317 -76q-146 28 -146 89v325q0 69 93 93q53 12 211 12h379q91 0 183 -134q0 -2 8 -19q4 -407 4 -588q4 -41 24 -44h2q21 0 116 22q217 69 308 5q85 -91 -9 -252l-65 39q-44 135 -193 125q-56 1 -109 -6.5t-61 -6.5z" />
    <glyph glyph-name="uniA9A0.conj_full" 
d="M-1748 200q94 0 166 -110q5 -18 5 -29v-35q0 -194 4 -581q0 -19 43 -22h521q62 0 81 32q-4 79 -4 117v85q0 101 -61 101h-4l-317 -76q-146 28 -146 88v320q0 68 93 92q53 12 211 12h379q91 0 183 -133q0 -2 8 -19q4 -400 4 -578q5 -50 33 -50q65 0 65 56q0 70 -8 225
q4 165 4 328v28q0 3 4 3q0 65 -82 96v3q0 21 29 41h199q110 0 196 -136q8 -22 8 -35v-678q-171 65 -171 69l-4 17q0 95 -8 634q-38 53 -86 53q-6 0 -21 -13q4 -55 4 -66q0 -104 4 -541q0 -151 -133 -151h-4q-133 0 -212 165v269q0 103 -4 287q-32 50 -105 50h-282
q-226 0 -226 -67v-9q0 -18 -4 -151q13 -67 80 -67q242 79 269 79q94 0 183 -129q4 -98 4 -155v-167q-19 -105 -98 -105h-455q-297 0 -314 48q-19 0 -39 75q-4 304 -4 458v143q0 28 -33 28h-8q-81 -18 -155 -129q-57 -92 -57 -168q0 -161 146 -293q12 0 12 -11
q-79 -105 -92 -113h-5q-68 65 -114 218q-29 118 -29 193q0 141 156 297q123 107 191 107z" />
    <glyph glyph-name="uniA9A1" unicode="&#xa9a1;" horiz-adv-x="1862" 
d="M534 1361h452q8 -1 8 -8q-63 -86 -78 -86q-138 0 -216 -173q-68 -133 -68 -293q0 -292 105 -363q53 -32 111 -32q57 99 41.5 160t-115.5 29l-4 8q37 52 57 103l21 -4h31q103 9 169.5 -19t-34.5 -163q-43 -79 -57 -121h16q174 0 317 204q74 118 74 274q0 234 -171 374
q-38 16 -69 20v4q68 84 77 86h231q220 0 261 -48q49 -53 49 -117q4 -550 4 -853v-19q0 -9 -8 -9q-142 63 -179 84v833q0 39 -82 39h-187q-8 -1 -8 -8q167 -176 167 -419v-55q0 -366 -171 -465q-37 -17 -68 -17h-286q-45 -183 119 -154q3 -37 3 -47q-194 -95 -264 -42
q-76 33 17 247h-4q-63 0 -163 79q-139 133 -139 466q0 212 69 363q-31 17 -53 17h-8q-120 0 -218 -246q-21 -67 -21 -113v-29q0 -182 130 -343q24 -15 24 -20q0 -19 -94 -150q-54 60 -97 206q-45 155 -45 292v35q0 167 159 364q125 129 195 129z" />
    <glyph glyph-name="uniA9A1.conj" 
d="M-85 -116q65 -541 -80 -790q-156 -192 -557 -241q-347 9 -533 134t-186 330q0 362 725 537q430 215 432 471q1 41 0 84l183 -99v-57q8 -138 -149.5 -295.5t-481.5 -290.5q-688 -221 -551 -551q154 -197 584 -125q245 33 444 246q168 214 112 672zM-457 -651v-2l127 -31
v-4q-55 -48 -241 -138v-4h9q479 0 585 -122q77 -61 114 -218q-5 0 -5 -3l-28 3h-21q-166 -7 -211 -7q24 57 24 102q0 186 -329 186q-60 0 -191 -36q-9 0 -29 103q156 114 174 171h22z" />
    <glyph glyph-name="uniA9A1.conj_full" horiz-adv-x="446" 
d="M-75 -228l-1 267q10 138 157 153h25q224 0 224 -197l-1 -657h-182v630q0 130 -53 130h-29q-53 -10 -53 -84v-394q-7 -278 -186 -526q-156 -192 -557 -241q-347 9 -533 134t-186 330q0 362 725 537q430 215 432 471q1 41 0 84l183 -99v-57q8 -138 -149.5 -295.5
t-481.5 -290.5q-688 -221 -551 -551q154 -197 584 -125q245 33 444 246q166 220 185 399zM-475 -435v-2l127 -31v-4q-55 -48 -241 -138v-4h9q479 0 585 -122l77 -61q-183 -164 -228 -164q24 57 24 102q0 186 -329 186q-60 0 -191 -36q-9 0 -29 103q156 114 174 171h22z" />
    <glyph glyph-name="uniA9A2" unicode="&#xa9a2;" horiz-adv-x="1930" 
d="M546 1369h430q8 -1 8 -8q-50 -86 -68 -86q-172 0 -236 -261q-21 -79 -21 -177q0 -320 86 -403q48 -28 89 -28q70 0 127 202q83 213 150 244q10 0 25 12q4 84 4 99q-4 136 -4 142q0 121 146 208q70 29 142 29h8q253 0 305 -123q77 -87 77 -165v-744l-4 -8l-179 87
q5 406 5 613v98q0 114 -134 151h-17q-210 0 -277 -193q-4 -27 -4 -44v-154q128 0 212 -94q82 -104 82 -171v-4q0 -169 -204 -303l-28 -4h-5q-35 0 -109 134q-16 59 -16 169v150q-56 -38 -119 -288q0 -63 -105 -121q-52 -13 -78 -13h-48q-211 0 -269 305q-20 112 -20 196v80
q0 179 65 331q-31 15 -65 15q-120 0 -224 -271q-12 -66 -12 -103q0 -199 139 -363q18 -8 20 -16q-68 -114 -98 -146h-4q-138 226 -138 513q0 198 175 399q112 114 191 114zM1214 758q0 -297 21 -297q4 0 12 -4q35 0 82 63q48 68 48 107q0 80 -114 127q-22 4 -41 4h-8z" />
    <glyph glyph-name="uniA9A2.conj" 
d="M-292 159q-198 -170 -477 -382q-204 -199 -295 -347.5t-102 -260.5q350 291 681 287q239 0 366 -177l-171 -40q-45 -24 -68 -24q-71 146 -232 146q-204 20 -645 -378h-4q-170 23 -187 31q62 201 217.5 431.5t540.5 514.5l366.5 274t9.5 -75z" />
    <glyph glyph-name="uniA9A2.conj_full" 
d="M-144 -317q30 -46 30 -118l-1 -227h-182v217q-19 99 -271 72q-485 -170 -951 -644h-4q-170 23 -187 31q62 201 217.5 431.5t540.5 514.5l366.5 274t9.5 -75q-198 -170 -477 -382q-204 -199 -295 -347.5t-102 -260.5q607 509 996 578q213 34 310 -64z" />
    <glyph glyph-name="uniA9A3" unicode="&#xa9a3;" horiz-adv-x="2062" 
d="M740 1276h-129q-176 -29 -265.5 -157.5t-83.5 -246.5v-12q0 -150 93 -300q26 -37 65 -71q-79 -129 -98 -146q-38 28 -97 202q-45 168 -45 299v20q10 256 232 426q129 79 262 79h246q15 -12 37 -86h-4q-86 -21 -151.5 -82t-88.5 -242l10 -427q2 -101 89.5 -86.5
t345.5 309.5q143 -282 263 -308q60 0 115 111q41 138 41 262q0 238 -101 395q-91 47 -207 68h-4q22 74 37 86h377q210 0 243 -79q24 -40 24 -118v-865l-4 -7q-175 82 -179 90q8 644 12 797q0 88 -43 88q-22 4 -49 4h-166q167 -189 167 -455v-35q0 -380 -269 -492h-31
q-108 0 -308 217q-219 -203 -369 -203q-172 9 -171 198l-5 397q23 253 209 370z" />
    <glyph glyph-name="uniA9A3.conj" 
d="M-1314 121h-129q-176 -23 -265.5 -126t-83.5 -197v-10q0 -120 93 -240q26 -30 65 -57q-79 -103 -98 -117q-38 23 -97 162q-45 134 -45 239v16q10 205 232 341q129 63 262 63h246q15 -9 37 -69h-4q-86 -16 -151.5 -65t-88.5 -194l10 -341q2 -81 89.5 -69.5t345.5 247.5
q143 -226 263 -246q60 0 115 88q41 111 41 210q0 190 -101 316q-91 38 -207 54h-4q22 60 37 69h377q210 0 243 -63q24 -32 24 -94v-692l-4 -6q-175 66 -179 72q8 515 12 638q0 70 -43 70q-22 3 -49 3h-166q167 -151 167 -364v-28q0 -304 -269 -393h-31q-108 0 -308 173
q-219 -162 -369 -162q-172 7 -171 158l-5 318q23 202 209 296z" />
    <glyph glyph-name="uniA9A4" unicode="&#xa9a4;" horiz-adv-x="1707" 
d="M513 1372h21q78 0 154 -127q8 -74 8 -252v-99q129 -8 171 -8v236q0 171 220 238q34 4 57 4h15q296 0 347 -111q85 -99 85 -181v-755q0 -7 -9 -7q-153 75 -174 94v4q0 174 4 762q0 89 -187 102h-17q-191 0 -267 -181l-4 -40v-169q144 0 226 -119q62 -79 62 -129v-40
q0 -134 -175 -269q-30 -19 -57 -19h-13q-113 102 -113 232v250h-4q-41 0 -171 3v-474l-4 -7q-169 82 -175 82v12q8 493 8 537v43q0 261 -28 261l-21 4q-65 0 -166 -181q-45 -96 -45 -182v-27q0 -179 139 -344q19 -11 19 -17q-78 -124 -97 -144q-50 57 -93 184
q-49 180 -49 309v39q0 225 208 422q91 64 125 64zM934 789q9 -213 9 -269q4 -15 24 -27q67 0 130 154v23q0 85 -130 123h-24z" />
    <glyph glyph-name="uniA9A4.conj" horiz-adv-x="269" 
d="M-300 -77q-541 -97 -729 -247q-371 -234 -371 -630l40 -101q94 -197 364 -95q125 43 396 306h8q151 -93 207 -52q79 23 83 154zM-119 109q211 158 207 374q23 129 123 -271q7 -158 -330 -239l1 -764q-38 -158 -200 -199q-98 -45 -186 3q-236 -242 -517 -301
q-187 -21 -343 104t-156 330q0 492 505 717q315 119 713 200v371l183 -113v-212z" />
    <glyph glyph-name="uniA9A4.conj_full" horiz-adv-x="359" 
d="M-117 98q61 8 111 4h25q224 0 224 -197l-1 -567h-182v560q0 130 -176 105q1 4 -1 3v92zM-290 -27q-541 -117 -729 -267q-371 -264 -371 -660l40 -101q94 -197 364 -95q125 43 396 306h8q151 -93 207 -52q79 23 83 154zM-108 -791q-38 -158 -200 -199q-98 -45 -186 3
q-236 -242 -517 -301q-187 -21 -343 104t-156 330q0 492 505 717q315 119 713 200v371l183 -113z" />
    <glyph glyph-name="uniA9A5" unicode="&#xa9a5;" horiz-adv-x="1634" 
d="M1307 1375q103 0 191 -157q20 -44 20 -64v-847h-4q-19 0 -179 88v798q-4 93 -24 96h-21q-57 0 -57 -127v-741q-26 -111 -114 -111h-314q-213 0 -251 59q-37 50 -37 98q-4 382 -4 580v163q-5 39 -37 39q-80 -17 -166 -177q-49 -112 -49 -194q0 -213 159 -380v-2
q-75 -122 -98 -142q-86 87 -138 426q0 23 -4 94q0 191 187 403q98 92 142 95h29q79 0 150 -127q8 -26 8 -35v-36q0 -251 4 -747q0 -27 105 -27h224q138 0 138 111v675q0 151 78 178z" />
    <glyph glyph-name="uniA9A5.conj" horiz-adv-x="1250" 
d="M1134 315l-4 -8q-173 82 -179 96v781q-4 88 -23 95h-20q-58 0 -58 -123v-749q0 -88 -133 -100h-5q-39 0 -289 103q-57 16 -97 16q-70 0 -90 -83q0 -4 -4 -4q-52 35 -52 39q25 25 105 175q3 0 29 23h8q95 0 308 -158q40 -23 78 -23q63 0 77 114v679q0 177 139 177
q117 0 206 -192q4 -22 4 -37v-821z" />
    <glyph glyph-name="uniA9A6" unicode="&#xa9a6;" horiz-adv-x="2165" 
d="M1498 1094v-13q0 -47 171 -227q8 152 4 275q0 29 -78 36q-97 -13 -97 -71zM1744 798q99 -104 143 -146q162 -155 156 -338q1 -111 -156 -217l-28 26q13 79 -4 176q-16 153 -131 301q-53 -224 -249 -306h-31q-138 0 -368 217q-219 -203 -369 -203q-172 9 -171 198l-5 397
q23 253 209 370h-129q-176 -29 -265.5 -157.5t-83.5 -246.5v-12q0 -150 93 -300q26 -37 65 -71q-79 -129 -98 -146q-38 28 -97 202q-45 168 -45 299v20q10 256 232 426q129 79 262 79h246q15 -12 37 -86h-4q-86 -21 -151.5 -82t-88.5 -242l10 -427q2 -101 89.5 -86.5
t345.5 309.5q173 -282 323 -308q60 0 115 111q33 64 42 153q-214 276 -214 335l-4 21q0 144 191 311q30 12 37 12h13q81 -59 81 -106v-402q2 -28 2 -58v-23z" />
    <glyph glyph-name="uniA9A6.conj" horiz-adv-x="1990" 
d="M1323 1094v-13q0 -47 161 -207q18 132 14 255q0 29 -78 36q-97 -13 -97 -71zM1550 598q-11 -181 -90 -244q-86 -57 -179 -41h-4q-40 0 -277 211q-51 20 -85 -35.5t-96 -119.5q-42 -44 -129 -53h-4q-40 0 -247 108q-51 17 -91 17q-69 0 -125 -87q-2 -6 -6 -6
q-37 39 -35 43q35 26 179 187q17 17 38 25h28q96 0 222 -170q30 -25 68 -25q52 0 92 56q110 255 181 285h48q66 0 232 -294q57 -50 101 46q63 122 85 216q-207 268 -207 326l-4 21q0 144 191 311q30 12 37 12h13q81 -59 81 -106v-402q2 -28 2 -58v-23q99 -104 143 -146
q162 -155 156 -338q1 -111 -156 -217l-28 26q13 79 -4 176q-16 152 -130 299z" />
    <glyph glyph-name="uniA9A7" unicode="&#xa9a7;" horiz-adv-x="2154" 
d="M1054 1378q63 0 145 -146q117 133 185 133q54 0 153 -114q20 -36 18 -103l-11 -687q-2 -71 30 -71q95 0 97 84q0 27 8 734q1 62 -79 110q22 47 29 47h213q109 0 196 -177l-6 -877q-4 0 -4 -4q-152 73 -173 92q3 688 5 797q1 51 -98 75l-17 -12q4 -100 -4 -766
q-3 -186 -175 -186h-8q-106 0 -193 186q0 9 -4 16q1 283 4 430l5 280q0 30 -20 36q-47 0 -215 -201h-8q-90 209 -147 209q-60 0 -216 -229h-4q-6 66 -6 87q168 257 300 257zM878 309q1 1 1 2h-138q-164 0 -203 75q-25 44 -25 107v79q0 227 -4 647q-8 28 -31 28
q-84 0 -183 -205q-29 -71 -37 -165q0 -171 126 -349q32 -21 32 -27v-8q-90 -142 -94 -142q-42 37 -101 213q-41 162 -41 277v46q0 204 220 424q79 63 121 63q99 0 167 -138l4 -21q4 -573 4 -785q0 -23 45 -27h362q-157 97 -203 134q-48 51 -48 75q151 27 175 27v-4l-4 -40
q0 -94 234 -192q18 0 70 -84q4 0 4 -4l-8 -4h-423v-2h-22z" />
    <glyph glyph-name="uniA9A7.conj" 
d="M-740 -341q0 -272 21 -272q4 0 12 -4q35 0 82 58q48 63 48 98q0 74 -114 117q-22 3 -41 3h-8zM-1038 -591q24 44 45 113q83 195 150 223q10 0 25 11q4 77 4 91q-4 125 -4 130q0 111 146 191q70 26 142 26h8q253 0 305 -112q77 -80 77 -152v-681l-4 -8l-179 80
q5 372 5 562v90q0 104 -134 138h-17q-210 0 -277 -177q-4 -25 -4 -40v-141q128 0 212 -86q82 -96 82 -157v-4q0 -155 -204 -277l-28 -4h-5q-35 0 -109 123q-16 54 -16 155v137q-56 -25 -145 -293q-72 -239 -352 -179q-287 95 -284.5 443.5t344.5 562.5q49 32 181 112l13 -41
q-116 -43 -258.5 -207.5t-117.5 -422.5t178 -338q140 -43 187 52q10 20 34 80z" />
    <glyph glyph-name="uniA9A7.conj_old" 
d="M-1102 202q63 0 145 -116q117 106 185 106q54 0 153 -91q20 -29 18 -83l-11 -549q-2 -57 30 -57q95 0 97 67q0 22 8 587q1 50 -79 88q22 38 29 38h213q109 0 196 -142l-6 -701q-4 0 -4 -3q-152 58 -173 73q3 551 5 638q1 41 -98 60l-17 -10q4 -80 -4 -613
q-3 -148 -175 -148h-8q-106 0 -193 148q0 8 -4 13q1 227 4 344l5 224q0 24 -20 29q-47 0 -215 -161h-8q-90 167 -147 167q-60 0 -216 -183h-4q-6 53 -6 70q168 205 300 205zM-1278 -653q1 1 1 2h-138q-164 0 -203 60q-25 35 -25 85v64q0 181 -4 517q-8 23 -31 23
q-84 0 -183 -164q-29 -57 -37 -132q0 -137 126 -280q32 -16 32 -21v-7q-90 -113 -94 -113q-42 29 -101 170q-41 130 -41 222v37q0 163 220 339q79 50 121 50q99 0 167 -110l4 -17q4 -458 4 -628q0 -18 45 -22h362q-157 78 -203 108q-48 40 -48 60q151 21 175 21v-3l-4 -32
q0 -75 234 -154q18 0 70 -67q4 0 4 -3l-8 -3h-423v-2h-22z" />
    <glyph glyph-name="uniA9A8" unicode="&#xa9a8;" horiz-adv-x="2000" 
d="M1621 1389h230q4 0 4 -3q5 0 5 3l24 -3v-8q-57 -88 -80 -88q-253 -89 -253 -173v-21q12 -34 12 -38h-179l-8 3q4 65 150 233h-187q-61 0 -61 -83v-466q198 -40 298 -139q106 -91 148 -307l-180 98q-38 170 -266 254v-146q0 -54 4 -142q-19 -56 -64 -56h-8
q-193 12 -525 186q-8 9 -8 12v7q81 10 81 52v142q-118 0 -309 -79h-8q-10 5 -74 87v8q99 52 127 126q0 5 13 31l150 -15v-4q-60 -63 -175 -119l-16 -15h4l288 40q0 147 -4 485q0 27 -81 27h-329v-3q255 -139 255 -206v-4l-174 -27v4q4 22 4 35v13q0 90 -253 192l-56 83l8 4
h529q235 0 255 -79q10 0 25 -71q4 -217 4 -347v-99q168 -4 260 -15q5 124 5 185v253q0 139 97 173q47 20 318 20zM941 710v-123q0 -85 179 -161q15 -8 32 -8h21q20 0 28 20v236q0 22 -260 36z" />
    <glyph glyph-name="uniA9A8.conj" 
d="M-299 211h230q4 0 4 -2q5 0 5 2l24 -2v-7q-57 -70 -80 -70q-253 -71 -253 -138v-17q12 -27 12 -31h-179l-8 3q4 52 150 186h-187q-61 0 -61 -66v-373q198 -32 298 -111q106 -73 148 -246l-180 79q-38 136 -266 203v-117q0 -43 4 -114q-19 -44 -64 -44h-8q-193 9 -525 148
q-8 8 -8 10v6q81 8 81 41v114q-118 0 -309 -63h-8q-10 4 -74 69v7q99 41 127 100q0 4 13 25l150 -12v-3q-60 -50 -175 -95l-16 -12h4l288 32q0 117 -4 388q0 21 -81 21h-329v-2q255 -111 255 -165v-3l-174 -22v4q4 17 4 28v10q0 72 -253 154l-56 66l8 3h529q235 0 255 -63
q10 0 25 -57q4 -173 4 -277v-80q168 -3 260 -12q5 100 5 148v203q0 111 97 138q47 16 318 16zM-979 -332v-98q0 -68 179 -129q15 -7 32 -7h21q20 0 28 16v189q0 18 -260 29z" />
    <glyph glyph-name="uniA9A9" unicode="&#xa9a9;" horiz-adv-x="1760" 
d="M1429 1389q125 0 211 -193l4 -40v-845l-4 -8q-176 86 -179 92v812q0 96 -36 96h-8q-57 0 -57 -115v-718q0 -114 -66 -142q-26 -17 -60 -17h-353q-157 0 -228 111q-86 72 -86 173q0 164 118 245q48 37 48 39q-162 112 -162 211v81q0 48 28 80v4l-41 4h-12
q-171 0 -268 -284q-16 -57 -16 -111q0 -214 158 -375q-88 -141 -88 -146h-13q-139 229 -139 517q0 239 253 466q50 43 207 43q71 5 85 5q76 -5 191 -5q38 -32 66 -87q-118 -20 -175 -55q-53 -58 -53 -154v-12q0 -3 -5 -3q5 -8 5 -12t-5 -4q0 -115 70 -115h81q5 0 61 -83v-7
h-4q-145 0 -191 -154q-12 -47 -12 -96v-19q0 -10 -5 -16q5 -7 5 -15v-25q6 -98 61 -98q23 -11 195 -11h191q89 0 89 78v35q0 206 4 720q0 103 78 142z" />
    <glyph glyph-name="uniA9A9.conj" 
d="M-758 -45q42 -104 66 -104q25 0 31.5 44.5t6.5 93.5q0 40 -22 59.5t-57 19.5q-48 -3 -84 -31t-71 -81q-111 -136 -124 -397q-13 -226 118 -364.5t320 -117.5q200 30 288 189.5t88 353.5q0 181 -38 301.5t-58 153.5l15 65q155 -240 158 -526v-35q0 -260 -134.5 -441
t-355.5 -181q-234 -12 -393 143.5t-160 405.5q-7 282 208 509q68 66 121.5 93t93.5 27q64 0 107.5 -44.5t43.5 -128.5t-38.5 -143.5t-92.5 -59.5t-92 60q-28 44 -36 102q21 53 91 34z" />
    <glyph glyph-name="uniA9A9.conj_full" 
d="M-489 -380l-1 419q10 138 157 153h25q224 0 224 -197l-1 -657h-182v630q0 130 -53 130h-29q-53 -10 -53 -84l2 -394q-10 -301 -144.5 -482t-355.5 -181q-234 -12 -393 143.5t-160 405.5q-7 282 208 509q68 66 121.5 93t93.5 27q64 0 107.5 -44.5t43.5 -128.5
t-38.5 -143.5t-92.5 -59.5t-92 60q-28 44 -36 102q21 53 91 34q42 -104 66 -104q25 0 31.5 44.5t6.5 93.5q0 40 -22 59.5t-57 19.5q-48 -3 -84 -31t-71 -81q-111 -136 -124 -397q-13 -226 118 -364.5t320 -117.5q210 30 293 189.5t81 353.5z" />
    <glyph glyph-name="uniA9AA" unicode="&#xa9aa;" horiz-adv-x="2358" 
d="M1261 1375q107 0 196 -169q12 -26 12 -44v-702q0 -60 56 -60h224q142 0 142 98v653q0 165 53 201q32 17 94 23q86 0 179 -146q25 -43 25 -78v-844q-29 4 -179 88v700q0 194 -29 194h-12q-61 0 -61 -79v-762q0 -93 -78 -131q-28 -7 -48 -7h-244q-213 0 -257 46
q-48 44 -48 163v35q0 252 4 632q-7 103 -29 103h-20q-53 0 -53 -88v-757q-15 -134 -114 -134h-269q-248 0 -271 86q-21 46 -21 150v655q0 48 -37 48q-65 0 -166 -173q-49 -105 -49 -206q0 -196 143 -355q6 0 15 -17q-76 -127 -93 -142h-4q-37 22 -101 215q-41 166 -41 299
q0 221 212 430q83 72 113 72h37q65 0 142 -119q12 -30 12 -75v-715q0 -63 58 -63h222q143 0 143 98v624q0 160 32 211q52 42 110 42z" />
    <glyph glyph-name="uniA9AA.conj" 
d="M-1104 200q107 0 196 -135q12 -21 12 -35v-562q0 -48 56 -48h224q142 0 142 78v523q0 132 53 161q32 13 94 18q86 0 179 -117q25 -34 25 -62v-675q-29 3 -179 70v560q0 155 -29 155h-12q-61 0 -61 -63v-610q0 -74 -78 -104q-28 -6 -48 -6h-244q-213 0 -257 37
q-48 35 -48 130v28q0 202 4 506q-7 82 -29 82h-20q-53 0 -53 -70v-606q-15 -107 -114 -107h-269q-248 0 -271 69q-21 37 -21 120v524q0 38 -37 38q-65 0 -166 -138q-49 -84 -49 -165q0 -157 143 -284q6 0 15 -14q-76 -101 -93 -113h-4q-37 17 -101 172q-41 133 -41 239
q0 177 212 344q83 58 113 58h37q65 0 142 -96q12 -24 12 -60v-572q0 -50 58 -50h222q143 0 143 78v500q0 128 32 168q52 34 110 34z" />
    <glyph glyph-name="uniA9AB" unicode="&#xa9ab;" horiz-adv-x="1765" 
d="M1288 1386h36q174 0 319 -277q6 -37 6 -59v-739l-2 -8q-181 83 -181 96v753q0 142 -88 142h-25q-180 0 -255 -165q-13 -33 -13 -68v-541q0 -52 5 -134q-13 -87 -86 -87q-297 57 -521 202q-4 0 -4 4v7q89 0 187 384q29 114 29 308v28q0 46 -61 46h-350q161 -101 203 -134
q54 -54 54 -75q-44 -11 -175 -31q0 4 -4 4q7 19 7 48q0 84 -243 188q-15 8 -66 83q1 8 8 8h529q180 0 228 -43q53 -45 53 -161q0 -228 -131 -566q-4 -6 -4 -19q0 -63 160 -150q50 -20 80 -20h16q21 11 21 31v605q0 44 -4 115q8 81 85 157q81 68 187 68z" />
    <glyph glyph-name="uniA9AB.conj" 
d="M-497 209h36q174 0 319 -222q6 -29 6 -47v-591l-2 -7q-181 67 -181 77v603q0 113 -88 113h-25q-180 0 -255 -132q-13 -26 -13 -54v-433q0 -42 5 -107q-13 -70 -86 -70q-297 46 -521 162q-4 0 -4 3v6q89 0 187 307q29 91 29 246v23q0 36 -61 36h-350q161 -80 203 -107
q54 -43 54 -60q-44 -9 -175 -25q0 4 -4 4q7 15 7 38q0 67 -243 150q-15 7 -66 67q1 6 8 6h529q180 0 228 -34q53 -36 53 -129q0 -182 -131 -453q-4 -5 -4 -15q0 -50 160 -120q50 -16 80 -16h16q21 9 21 25v484q0 35 -4 92q8 65 85 125q81 55 187 55z" />
    <glyph glyph-name="uniA9AC" unicode="&#xa9ac;" horiz-adv-x="3130" 
d="M2786 1996q103 0 200 -265q28 -86 28 -181v-391q0 -259 -4 -753q0 -54 -86 -96l-41 -3h-105q-186 0 -224 63q-37 29 -37 201v127q0 169 4 417q0 155 -97 155h-4q-203 -4 -243 -170q-12 -50 -12 -95v-604q0 -94 -122 -94h-28q-144 0 -187 109l-4 25v674q0 155 -97 155h-13
q-107 0 -171 -90q-66 -63 -66 -163v-611q0 -99 -121 -99h-45q-130 0 -175 122v671q0 170 -97 170h-4q-173 0 -237 -190q-4 -15 -4 -31v-593q0 -104 -33 -126q-42 -23 -93 -23h-37q-109 0 -162 122q-17 49 -17 83v553q0 65 -37 90h-8q-121 0 -170 -186v-43q0 -88 118 -182v-3
q-21 -99 -69 -142h-4q-122 219 -122 387q0 143 167 267q37 17 52 17h8q97 0 220 -165q12 -36 12 -80v-525q0 -86 78 -103q28 0 28 56v658q0 172 156 238q30 12 88 12q171 0 293 -194q53 -72 53 -127v-563q8 -80 65 -80q33 11 33 52v687q0 136 143 209q49 16 85 16h16
q176 0 288 -190q62 -66 62 -170v-548q0 -38 61 -56q33 7 33 48v687q0 134 145 213q56 16 109 16q192 0 325 -250q20 -39 20 -62v-301q0 -95 4 -276q-4 -16 -4 -27q0 -48 62 -48h53q130 0 130 115v995q-7 0 -37 -8q-101 0 -200 190q-28 63 -28 126v4q0 124 94 177h12z
M2782 1812q0 -82 93 -103h8q28 0 41 15q-26 178 -90 178q-52 -23 -52 -90z" />
    <glyph glyph-name="uniA9AC.conj" horiz-adv-x="390" 
d="M46 697q103 0 200 -212q28 -69 28 -145v-313q0 -207 -4 -602q0 -43 -86 -77l-41 -2h-105q-186 0 -224 50q-37 23 -37 161v101q0 136 4 334q0 124 -97 124h-4q-203 -3 -243 -136q-12 -40 -12 -76v-483q0 -75 -122 -75h-28q-144 0 -187 87l-4 20v539q0 124 -97 124h-13
q-107 0 -171 -72q-66 -50 -66 -130v-489q0 -79 -121 -79h-45q-130 0 -175 97v537q0 136 -97 136h-4q-173 0 -237 -152q-4 -12 -4 -25v-474q0 -83 -33 -101q-42 -18 -93 -18h-37q-109 0 -162 97q-17 39 -17 67v442q0 52 -37 72h-8q-121 0 -170 -149v-34q0 -71 118 -146v-2
q-21 -79 -69 -114h-4q-122 175 -122 310q0 114 167 213q37 14 52 14h8q97 0 220 -132q12 -29 12 -64v-420q0 -69 78 -82q28 0 28 44v527q0 137 156 190q30 10 88 10q171 0 293 -155q53 -58 53 -102v-450q8 -64 65 -64q33 8 33 41v550q0 109 143 167q49 13 85 13h16
q176 0 288 -152q62 -53 62 -136v-439q0 -30 61 -44q33 5 33 38v550q0 107 145 170q56 13 109 13q192 0 325 -200q20 -31 20 -50v-241q0 -76 4 -220q-4 -13 -4 -22q0 -38 62 -38h53q130 0 130 92v796q-7 0 -37 -7q-101 0 -200 152q-28 51 -28 101v3q0 99 94 142h12zM42 550
q0 -66 93 -83h8q28 0 41 12q-26 143 -90 143q-52 -19 -52 -72z" />
    <glyph glyph-name="uniA9AD" unicode="&#xa9ad;" horiz-adv-x="2410" 
d="M1241 1375q193 0 240 -55q41 -45 41 -127v-749q0 -40 48 -40q12 -4 57 -4h175q104 0 130 48q12 37 12 67v682q0 178 135 178q125 0 212 -193l3 -39v-832l-3 -8q-180 87 -180 92v811q0 83 -36 83h-8q-57 0 -57 -127v-741q-26 -111 -114 -111h-265q-232 0 -275 67
q0 12 -17 31l4 28v193q0 219 -4 633q-17 19 -45 19h-101q-211 0 -289 -359q-8 -69 -8 -111v-44q0 -185 158 -336q34 -15 86 -27l56 -83l-7 -4h-415q-179 0 -228 64q-26 45 -33 115q4 169 4 259v455q0 31 -41 35q-69 0 -170 -186q-44 -96 -44 -181v-4q0 -223 158 -378
q-90 -142 -90 -146h-8q-57 69 -101 221q-41 161 -41 288q0 292 257 476q56 33 76 33h21q79 0 154 -127q8 -35 8 -50v-704q0 -75 29 -75q27 -4 45 -4h207q-170 185 -170 455q0 409 183 497q37 12 68 12h45q78 0 138 3z" />
    <glyph glyph-name="uniA9AD.conj" 
d="M-581 113q-17 16 -45 16h-101q-211 0 -289 -292q-8 -57 -8 -91v-36q0 -150 158 -273q34 -12 86 -22l56 -67l-7 -4h-415q-179 0 -228 52q-26 37 -33 94q4 137 4 211v370q0 25 -41 28q-69 0 -170 -151q-44 -78 -44 -147v-4q0 -181 158 -307q-90 -116 -90 -119h-8
q-57 56 -101 180q-41 131 -41 234q0 238 257 387q56 27 76 27h21q79 0 154 -103q8 -28 8 -41v-572q0 -61 29 -61q27 -4 45 -4h207q-170 151 -170 371q0 332 183 404q37 10 68 10h45q78 0 138 2q193 0 240 -45q41 -36 41 -103l8 -581q0 -63 37 -63q21 0 116 22q217 69 308 5
q85 -91 -9 -252l-65 39q-44 135 -193 125q-56 1 -93.5 -1.5t-80.5 -2.5q-102 0 -191 134q-12 24 -12 44z" />
    <glyph glyph-name="uniA9AD.conj_full" 
d="M-1179 200q193 0 240 -44q41 -36 41 -102v-599q0 -32 48 -32q12 -3 57 -3h175q104 0 130 38q12 30 12 54v546q0 142 135 142q125 0 212 -154l3 -32v-665l-3 -7q-180 70 -180 74v649q0 66 -36 66h-8q-57 0 -57 -101v-593q-26 -89 -114 -89h-265q-232 0 -275 54q0 9 -17 24
l4 23v154q0 175 -4 507q-17 15 -45 15h-101q-211 0 -289 -287q-8 -56 -8 -89v-35q0 -148 158 -269q34 -12 86 -22l56 -66l-7 -3h-415q-179 0 -228 51q-26 36 -33 92q4 135 4 207v364q0 25 -41 28q-69 0 -170 -149q-44 -77 -44 -145v-3q0 -178 158 -302q-90 -114 -90 -117h-8
q-57 55 -101 177q-41 129 -41 230q0 234 257 381q56 26 76 26h21q79 0 154 -101q8 -28 8 -40v-563q0 -60 29 -60q27 -4 45 -4h207q-170 148 -170 364q0 328 183 398q37 10 68 10h45q78 0 138 2z" />
    <glyph glyph-name="uniA9AD.conj_conj" 
d="M-581 -700q-17 16 -45 16h-101q-211 0 -289 -292q-8 -57 -8 -91v-36q0 -150 158 -273q34 -12 86 -22l56 -67l-7 -4h-415q-179 0 -228 52q-26 37 -33 94q4 137 4 211v370q0 25 -41 28q-69 0 -170 -151q-44 -78 -44 -147v-4q0 -181 158 -307q-90 -116 -90 -119h-8
q-57 56 -101 180q-41 131 -41 234q0 238 257 387q56 27 76 27h21q79 0 154 -103q8 -28 8 -41v-572q0 -61 29 -61q27 -4 45 -4h207q-170 151 -170 371q0 332 183 404q37 10 68 10h45q78 0 138 2q193 0 240 -45q41 -36 41 -103l8 -581q0 -63 37 -63q21 0 116 22q217 69 308 5
q85 -91 -9 -252l-65 39q-44 135 -193 125q-56 1 -93.5 -1.5t-80.5 -2.5q-102 0 -191 134q-12 24 -12 44z" />
    <glyph glyph-name="uniA9AE" unicode="&#xa9ae;" horiz-adv-x="1862" 
d="M534 1361h452l8 -4q-52 -90 -86 -90q-174 0 -260 -328q-12 -60 -12 -123v-12q0 -304 101 -363q60 -42 152 -42h39q252 0 387 248q49 94 49 213v36q0 194 -154 346q-54 28 -82 29v7q69 83 73 83h237q247 0 275 -67q33 -27 33 -244v-748q-134 52 -187 87v847q0 35 -86 35
h-187v-4q167 -191 167 -446q0 -392 -167 -493q-34 -21 -81 -21h-370q-214 0 -308 273q-29 118 -29 236v71q0 182 64 332q-31 17 -51 17h-17q-109 0 -216 -257q-16 -75 -16 -119q0 -220 158 -379q-81 -133 -92 -142h-5q-36 21 -102 213q-41 168 -41 300q0 213 199 419
q97 90 155 90z" />
    <glyph glyph-name="uniA9AE.conj" 
d="M-115 -116q65 -541 -80 -790q-156 -192 -557 -241q-347 9 -533 134t-186 330q0 362 725 537q430 215 432 471q1 41 0 84l183 -99v-57q8 -138 -149.5 -295.5t-481.5 -290.5q-688 -221 -551 -551q154 -197 584 -125q245 33 444 246q168 214 112 672z" />
    <glyph glyph-name="uniA9AE.conj_full" horiz-adv-x="446" 
d="M-75 -228l-1 267q10 138 157 153h25q224 0 224 -197l-1 -657h-182v630q0 130 -53 130h-29q-53 -10 -53 -84v-394q-7 -278 -186 -526q-156 -192 -557 -241q-347 9 -533 134t-186 330q0 362 725 537q430 215 432 471q1 41 0 84l183 -99v-57q8 -138 -149.5 -295.5
t-481.5 -290.5q-688 -221 -551 -551q154 -197 584 -125q245 33 444 246q166 220 185 399z" />
    <glyph glyph-name="uniA9AE.conj_conj" 
d="M57 -821q-75 -224 -220 -374q-176 -171 -557 -202q-307 -2 -443 113t-136 287q0 304 605 251q410 -60 412 135q1 35 0 71l183 -83v-48q8 -126 -149.5 -173.5t-461.5 -38.5q-568 -6 -431 -293q94 -166 444 -125q255 38 444 207q168 139 252 294z" />
    <glyph glyph-name="uniA9AF" unicode="&#xa9af;" horiz-adv-x="2403" 
d="M1301 452q27 -48 57 -48h16q21 10 21 32v667q0 176 159 245q43 16 86 16h43q142 0 284 -269q11 -26 11 -63v-715l-2 -7q-175 80 -181 94v711q0 137 -58 167h-21q-202 20 -248 -173q-4 -21 -4 -39v-649q0 -111 -139 -111h-8q-142 0 -191 106l-4 24v669q0 133 -71 163h-8
q-204 30 -248 -166q-4 -36 -4 -60v-646q0 -90 -139 -90q-133 -10 -183 93q-21 97 -21 128q4 376 4 528q-11 103 -43 103q-104 0 -167 -157l-8 -60q0 -104 121 -197q-17 -90 -69 -146h-4q-122 208 -122 391q0 131 146 252q43 27 70 27h12q94 0 220 -165q11 -50 11 -87v-522
q14 -94 65 -94h17q20 0 24 59v676q0 135 163 213q52 12 77 12h37q149 0 288 -257q15 -37 15 -67zM1004 992v-2l115 -31v-4q-50 -48 -218 -138v-4h8q433 0 770 -79t608 -271q-5 0 -5 -3l-25 3h-19q-150 -7 -190 -7q-11 57 -292 162.5t-533 120.5t-370 -21q-8 0 -26 103
q141 114 157 171h20z" />
    <glyph glyph-name="uniA9AF.conj" 
d="M-795 -538q27 -39 57 -39h16q21 8 21 26v533q0 141 159 196q43 13 86 13h43q142 0 284 -215q11 -21 11 -50v-572l-2 -6q-175 64 -181 75v569q0 110 -58 134h-21q-202 16 -248 -139q-4 -17 -4 -31v-519q0 -89 -139 -89h-8q-142 0 -191 85l-4 19v535q0 107 -71 131h-8
q-204 24 -248 -133q-4 -29 -4 -48v-517q0 -72 -139 -72q-133 -8 -183 74q-21 78 -21 103q4 301 4 422q-11 83 -43 83q-104 0 -167 -126l-8 -48q0 -83 121 -158q-17 -72 -69 -116h-4q-122 166 -122 312q0 105 146 202q43 22 70 22h12q94 0 220 -132q11 -40 11 -70v-418
q14 -75 65 -75h17q20 0 24 47v541q0 108 163 171q52 9 77 9h37q149 0 288 -205q15 -30 15 -54zM-1092 -106v-2l115 -25v-3q-50 -38 -218 -110v-4h8q433 0 770 -63t608 -217q-5 0 -5 -2l-25 2h-19q-150 -5 -190 -5q-11 45 -292 129.5t-533 96.5t-370 -17q-8 0 -26 83
q141 91 157 137h20z" />
    <glyph glyph-name="uniA9B0" unicode="&#xa9b0;" horiz-adv-x="1989" 
d="M1307 1375q103 0 191 -157q20 -44 20 -64v-847h-4q-19 0 -179 88v798q-4 93 -24 96h-21q-57 0 -57 -127v-741q-26 -111 -114 -111h-314q-213 0 -251 59q-37 50 -37 98q-4 382 -4 580v163q-5 39 -37 39q-80 -17 -166 -177q-49 -112 -49 -194q0 -213 159 -380v-2
q-75 -122 -98 -142q-86 87 -138 426q0 23 -4 94q0 191 187 403q98 92 142 95h29q79 0 150 -127q8 -26 8 -35v-36q0 -251 4 -747q0 -27 105 -27h224q138 0 138 111v675q0 151 78 178zM965 992v-2l109 -31v-4q-47 -48 -206 -138v-4h8q409 0 627 -79t475 -271q-4 0 -4 -3l-24 3
h-18q-142 -7 -180 -7q-10 57 -176 162.5t-403.5 120.5t-349.5 -21q-8 0 -25 103q133 114 149 171h18z" />
    <glyph glyph-name="uniA9B0.conj" horiz-adv-x="1142" 
d="M1026 315l-4 -8q-173 82 -179 96v781q-4 88 -23 95h-20q-58 0 -58 -123v-749q0 -88 -133 -100h-5q-39 0 -289 103q-57 16 -97 16q-70 0 -90 -83q0 -4 -4 -4q-52 35 -52 39q25 25 105 175q3 0 29 23h8q95 0 308 -158q40 -23 78 -23q63 0 77 114v679q0 177 139 177
q117 0 206 -192q4 -22 4 -37v-821zM-119 327v-652q10 -237 -22 -412t-203 -374q282 148 320 361.5t25 759.5q112 -74 125 -141v-397q-16 -347 -245 -524t-366 -217l-79 83v4q228 181 249 344.5t22 461.5l-7 786z" />
    <glyph glyph-name="uniA9B1" unicode="&#xa9b1;" horiz-adv-x="1910" 
d="M661 537q15 -100 48 -142l28 -21h12q37 0 37 56q4 229 4 288l-16 12h-12q-69 0 -101 -185v-8zM1514 784q-5 -336 -195 -441q-52 -32 -81 -32h-20q-109 0 -249 209h-4q0 -132 -76 -157q-97 -68 -164 -83q-71 0 -191 169q-36 78 -36 131v13q0 152 179 228q33 12 68 12h45
v355q0 71 -65 71q0 4 -44 4h-45q-211 0 -321 -205q-53 -101 -53 -210q0 -198 146 -363q6 0 12 -11q-77 -127 -92 -142h-5q-39 23 -98 205q-45 168 -45 300q0 292 253 474q61 39 90 39q203 4 255 4q90 0 179 -162q16 -38 16 -75v-430q0 -21 122 -182q45 -44 86 -44
q89 0 194 107q67 96 67 225l2 381q0 164 70 194q29 15 77 15q114 0 203 -197v-884q-126 53 -179 91v746q0 161 -33 161q-68 0 -68 -90v-426z" />
    <glyph glyph-name="uniA9B1.conj" horiz-adv-x="1442" 
d="M814 1365q117 0 206 -192q4 -22 4 -37v-437q150 -45 302 -143l-138 -134q0 78 -164 177v-284l-4 -8q-173 82 -179 96v267q0 11 -101 29v-292q0 -88 -133 -100h-5q-39 0 -289 103q-57 16 -97 16q-70 0 -90 -83q0 -4 -4 -4q-52 35 -52 39q25 25 105 175q3 0 29 23h8
q95 0 308 -158q40 -23 78 -23q63 0 77 114v201q-64 8 -130 8h-20q-60 0 -208 -35q-52 90 -52 110q104 62 163 165h4q165 -35 170 -35v-4q-49 -44 -244 -138v-4h41q126 0 272 -7q0 -4 4 -4v422q0 177 139 177zM740 777l4 -19l97 -13v439q-4 88 -23 95h-20q-58 0 -58 -123
v-379z" />
    <glyph glyph-name="_3" 
 />
    <glyph glyph-name="uniA9B2" unicode="&#xa9b2;" horiz-adv-x="2358" 
d="M1896 1364q192 0 333 -272q13 -39 13 -91v-694h-4q-21 0 -179 88v710q0 165 -90 165h-29q-188 0 -259 -186q-4 -22 -4 -35v-612q0 -82 -37 -107q-40 -24 -110 -24q-143 0 -195 110l-4 29v737q0 92 -33 92q-65 0 -65 -79v-750q0 -116 -81 -146q-24 -3 -24 -8q-48 4 -70 4
h-321q-162 0 -203 79q-21 51 -21 107q0 191 -4 730q-15 19 -33 19q-87 0 -191 -225q-15 -45 -27 -138l4 -19v-17q0 -166 138 -335q16 -2 16 -11q0 -22 -94 -146q-52 46 -97 200q-45 153 -45 284v48q0 188 195 399q95 87 151 87q84 0 158 -127q8 -24 8 -31q4 -557 4 -785
q11 -29 41 -29h317q111 0 111 107v671q0 194 129 194h17q94 0 183 -154q20 -41 20 -75v-672q16 -55 56 -55h12q25 13 25 44v666q0 182 212 246z" />
    <glyph glyph-name="uniA9B2.conj" horiz-adv-x="2398" 
d="M995 619v-212q0 -88 -162 -100h-6q-48 0 -352 103q-69 16 -117 16q-86 0 -110 -83q0 -4 -5 -4q-63 35 -63 39q30 25 128 175q3 0 35 23h10q115 0 374 -158q49 -23 95 -23q110 0 103 213v518q0 157 191 226q33 12 69 12h45q176 0 316 -273q9 -27 9 -48l-41 -580
q16 -100 125 -45h8q33 13 33 80l-27 641q0 144 199 217q38 8 60 8h45q170 0 313 -265q12 -37 12 -67v-715l-4 -7q-157 72 -179 94v743q-11 121 -72 121q0 4 -16 4h-21q-186 0 -261 -169q-12 -30 -12 -87l27 -589q0 -117 -179 -144h-35q-161 0 -195 153l41 647q0 153 -52 181
q-33 8 -41 8h-21q-199 0 -265 -189q-8 -33 -8 -86z" />
    <glyph glyph-name="uniA9B2_uniA9BF.conj" 
 />
    <glyph glyph-name="_4" 
 />
    <glyph glyph-name="uniA9B3" unicode="&#xa9b3;" 
d="M-704 1975q65 -43 65 -82q-146 -137 -223 -137q-40 0 -121 88l104 125q14 0 120 -98q36 50 55 104zM-562 1718q65 -42 65 -82q-146 -136 -223 -136q-40 0 -121 87l104 126q14 0 120 -99q36 51 55 104zM-917 1718q65 -42 65 -82q-146 -136 -223 -136q-40 0 -121 87
l104 126q14 0 120 -99q36 51 55 104z" />
    <glyph glyph-name="uniA9B3_uniA980" 
d="M-1288 1962q65 -43 65 -82q-146 -137 -223 -137q-40 0 -121 88l104 125q14 0 120 -98q36 50 55 104zM-1146 1705q65 -42 65 -82q-146 -136 -223 -136q-40 0 -121 87l104 126q14 0 120 -99q36 51 55 104zM-1501 1705q65 -42 65 -82q-146 -136 -223 -136q-40 0 -121 87
l104 126q14 0 120 -99q36 51 55 104zM-505 1874q213 -128 213 -245q62 16 137 98l65 -60q-159 -186 -446.5 -184t-405.5 135l117 121q68 -89 136 -110q22 122 184 245zM-597 1601q110 -16 166 2q18 50 -101 136q-65 -45 -65 -138z" />
    <glyph glyph-name="uniA9B3_uniA981" 
d="M-1028 1975q65 -43 65 -82q-146 -137 -223 -137q-40 0 -121 88l104 125q14 0 120 -98q36 50 55 104zM-886 1718q65 -42 65 -82q-146 -136 -223 -136q-40 0 -121 87l104 126q14 0 120 -99q36 51 55 104zM-1241 1718q65 -42 65 -82q-146 -136 -223 -136q-40 0 -121 87
l104 126q14 0 120 -99q36 51 55 104zM-384 1747q81 -52 81 -101q-180 -168 -276 -168q-49 0 -149 108l128 154q17 0 148 -121q44 63 68 128z" />
    <glyph glyph-name="uniA9B3_uniA982" 
d="M-916 1975q65 -43 65 -82q-146 -137 -223 -137q-40 0 -121 88l104 125q14 0 120 -98q36 50 55 104zM-774 1718q65 -42 65 -82q-146 -136 -223 -136q-40 0 -121 87l104 126q14 0 120 -99q36 51 55 104zM-1129 1718q65 -42 65 -82q-146 -136 -223 -136q-40 0 -121 87
l104 126q14 0 120 -99q36 51 55 104zM-695 1508q199 249 417 691l116 -22l-448 -686z" />
    <glyph glyph-name="uniA9B3_uniA9B6" 
d="M-540 2343q58 0 152.5 -84.5t94.5 -191.5v-18l-44 -566q-139 121 -139 140q0 67 27 439v35q0 149 -86 149q-195 0 -583 -604v-15q0 -16 56.5 -47.5t421.5 79.5l169 -74q0 -24 -367 -82q-59 -11 -135 -11h-77q-150 0 -188 78q-11 18 -11 40q0 78 281 424q254 309 428 309z
M-1198 2398q65 -43 65 -82q-146 -137 -223 -137q-40 0 -121 88l104 125q14 0 120 -98q36 50 55 104zM-1056 2141q65 -42 65 -82q-146 -136 -223 -136q-40 0 -121 87l104 126q14 0 120 -99q36 51 55 104zM-1411 2141q65 -42 65 -82q-146 -136 -223 -136q-40 0 -121 87
l104 126q14 0 120 -99q36 51 55 104z" />
    <glyph glyph-name="uniA9B3_uniA9B6_uniA980" 
d="M-960 2343q58 0 152.5 -84.5t94.5 -191.5v-18l-44 -566q-139 121 -139 140q0 67 27 439v35q0 149 -86 149q-195 0 -583 -604v-15q0 -16 56.5 -47.5t421.5 79.5l169 -74q0 -24 -367 -82q-59 -11 -135 -11h-77q-150 0 -188 78q-11 18 -11 40q0 78 281 424q254 309 428 309z
M-185 1888q213 -128 213 -245q62 16 137 98l65 -60q-159 -186 -446.5 -184t-405.5 135l117 121q68 -89 136 -110q22 122 184 245zM-277 1615q110 -16 166 2q18 50 -101 136q-65 -45 -65 -138zM-1628 2408q65 -43 65 -82q-146 -137 -223 -137q-40 0 -121 88l104 125
q14 0 120 -98q36 50 55 104zM-1486 2151q65 -42 65 -82q-146 -136 -223 -136q-40 0 -121 87l104 126q14 0 120 -99q36 51 55 104zM-1841 2151q65 -42 65 -82q-146 -136 -223 -136q-40 0 -121 87l104 126q14 0 120 -99q36 51 55 104z" />
    </font>
</defs>
</svg>
